<svg width="147" height="53" viewBox="0 0 147 53" fill="none" xmlns="http://www.w3.org/2000/svg">
<g clip-path="url(#clip0_40_3074)">
<mask id="mask0_40_3074" style="mask-type:luminance" maskUnits="userSpaceOnUse" x="0" y="0" width="147" height="53">
<path d="M146.267 0.0159912H0.666748V52.3451H146.267V0.0159912Z" fill="white"/>
</mask>
<g mask="url(#mask0_40_3074)">
<path fill-rule="evenodd" clip-rule="evenodd" d="M10.5785 0.0159912L8.09902 6.8618H42.4591L44.9385 0.0159912H10.5785ZM6.85849 10.2831L4.37901 17.1274H38.7391L41.2186 10.2831H6.85849ZM3.14623 20.5503L0.666748 27.3945H35.0268L37.5047 20.5503H3.14623Z" fill="#00AAFF"/>
<path fill-rule="evenodd" clip-rule="evenodd" d="M73.7141 30.0032V30.1476C75.2841 30.7286 76.7841 31.7444 77.5701 32.3968C79.9981 34.4285 81.0701 37.1126 81.0701 40.5951C81.0701 46.3283 78.0701 50.4632 73.1421 51.7695C71.6421 52.2044 70.0721 52.3504 67.1424 52.3504H52.2178V10.4147H65.4299C68.1441 10.4147 70.0001 10.5591 71.6421 10.994C76.4281 12.3003 79.5701 15.6384 79.5701 20.9335C79.5701 23.7636 78.5701 26.1588 76.9281 27.7541C76.2141 28.4794 75.2141 29.3508 73.7141 30.0032ZM60.5019 34.4285V45.4569H66.2158C67.9281 45.4569 69.5001 45.3124 70.6441 44.2236C71.7861 43.1347 72.2861 41.7569 72.2861 39.9427C72.2861 38.5649 71.9281 37.2586 71.2141 36.3158C70.0001 34.792 68.5001 34.4285 65.9299 34.4285H60.5019ZM60.43 27.1731H65.0721C66.5002 27.1731 67.2142 27.1731 67.9281 26.9556C69.8581 26.3747 71.0721 24.635 71.0721 22.2398C71.0721 19.4113 69.7861 18.1764 67.9281 17.597C67.1424 17.3796 66.358 17.3066 64.7862 17.3066H60.43V27.1731ZM93.4961 52.3504V17.4511H81.5701V10.4147H114.708L112.352 17.4511H101.781V52.3504H93.4961ZM117.278 52.3504V10.4147H144.132L141.776 17.4511H125.492V26.7382H132.134C137.49 26.7382 140.276 28.0445 142.204 29.7127C143.704 31.0191 146.275 33.9206 146.275 39.6538C146.275 45.3124 143.632 48.4314 141.418 50.0282C138.848 51.8409 136.134 52.3504 130.634 52.3504H117.278ZM125.492 45.3124H131.706C134.062 45.3124 135.49 44.7315 136.49 43.4251C136.99 42.7728 137.704 41.6109 137.704 39.4348C137.704 37.2586 136.99 35.7348 135.562 34.6459C134.706 33.9936 133.562 33.6317 131.634 33.6317H125.492V45.3124Z" fill="#0A2896"/>
</g>
</g>
<defs>
<clipPath id="clip0_40_3074">
<rect width="146" height="53" fill="white" transform="translate(0.666748)"/>
</clipPath>
</defs>
</svg>
