<svg width="491" height="126" fill="none" xmlns="http://www.w3.org/2000/svg"><g clip-path="url(#a)" fill="#C4C4C4"><path d="M1.622 6.959a1.623 1.623 0 1 0 0-3.246 1.623 1.623 0 0 0 0 3.246Zm0 11.904a1.623 1.623 0 1 0 0-3.246 1.623 1.623 0 0 0 0 3.246Zm0 11.904a1.623 1.623 0 1 0 0-3.245 1.623 1.623 0 0 0 0 3.245Zm0 11.904a1.623 1.623 0 1 0 0-3.245 1.623 1.623 0 0 0 0 3.245ZM13.519 6.959a1.623 1.623 0 1 0-.001-3.246 1.623 1.623 0 0 0 0 3.246Zm0 11.904a1.623 1.623 0 1 0-.001-3.246 1.623 1.623 0 0 0 0 3.246Zm0 11.904a1.623 1.623 0 1 0-.001-3.245 1.623 1.623 0 0 0 0 3.245Zm0 11.904a1.623 1.623 0 1 0-.001-3.245 1.623 1.623 0 0 0 0 3.245ZM25.415 6.959a1.623 1.623 0 1 0 0-3.246 1.623 1.623 0 0 0 0 3.246Zm0 11.904a1.623 1.623 0 1 0 0-3.246 1.623 1.623 0 0 0 0 3.246Zm0 11.904a1.623 1.623 0 1 0 0-3.245 1.623 1.623 0 0 0 0 3.245Zm0 11.904a1.623 1.623 0 1 0 0-3.245 1.623 1.623 0 0 0 0 3.245ZM37.312 6.959a1.623 1.623 0 1 0-.001-3.246 1.623 1.623 0 0 0 0 3.246Zm0 11.904a1.623 1.623 0 1 0-.001-3.246 1.623 1.623 0 0 0 0 3.246Zm0 11.904a1.623 1.623 0 1 0-.001-3.245 1.623 1.623 0 0 0 0 3.245Zm0 11.904a1.623 1.623 0 1 0-.001-3.245 1.623 1.623 0 0 0 0 3.245ZM49.208 6.959a1.623 1.623 0 1 0 0-3.246 1.623 1.623 0 0 0 0 3.246Zm0 11.904a1.623 1.623 0 1 0-.001-3.246 1.623 1.623 0 0 0 .001 3.246Zm0 11.904a1.623 1.623 0 1 0-.001-3.245 1.623 1.623 0 0 0 .001 3.245Zm0 11.904a1.623 1.623 0 1 0-.001-3.245 1.623 1.623 0 0 0 .001 3.245ZM61.105 6.959a1.623 1.623 0 1 0-.001-3.246 1.623 1.623 0 0 0 0 3.246Zm0 11.904a1.623 1.623 0 1 0-.001-3.246 1.623 1.623 0 0 0 0 3.246Zm0 11.904a1.623 1.623 0 1 0-.001-3.245 1.623 1.623 0 0 0 0 3.245Zm0 11.904a1.623 1.623 0 1 0-.001-3.245 1.623 1.623 0 0 0 0 3.245ZM73.001 6.959a1.623 1.623 0 1 0 0-3.246 1.623 1.623 0 0 0 0 3.246Zm0 11.904A1.623 1.623 0 1 0 73 15.617a1.623 1.623 0 0 0 .001 3.246Zm0 11.904A1.623 1.623 0 1 0 73 27.522a1.623 1.623 0 0 0 .001 3.245Zm0 11.904A1.623 1.623 0 1 0 73 39.426a1.623 1.623 0 0 0 .001 3.245ZM84.898 6.959a1.623 1.623 0 1 0-.001-3.246 1.623 1.623 0 0 0 0 3.246Zm0 11.904a1.623 1.623 0 1 0-.001-3.246 1.623 1.623 0 0 0 0 3.246Zm0 11.904a1.623 1.623 0 1 0-.001-3.245 1.623 1.623 0 0 0 0 3.245Zm0 11.904a1.623 1.623 0 1 0-.001-3.245 1.623 1.623 0 0 0 0 3.245ZM96.794 6.959a1.623 1.623 0 1 0 0-3.246 1.623 1.623 0 0 0 0 3.246Zm0 11.904a1.623 1.623 0 1 0 0-3.246 1.623 1.623 0 0 0 0 3.246Zm0 11.904a1.623 1.623 0 1 0 0-3.245 1.623 1.623 0 0 0 0 3.245Zm0 11.904a1.623 1.623 0 1 0 0-3.245 1.623 1.623 0 0 0 0 3.245Zm11.897-35.712a1.623 1.623 0 1 0-.001-3.245 1.623 1.623 0 0 0 .001 3.245Zm0 11.904a1.623 1.623 0 1 0-.001-3.245 1.623 1.623 0 0 0 .001 3.245Zm0 11.904a1.623 1.623 0 1 0-.001-3.245 1.623 1.623 0 0 0 .001 3.245Zm0 11.904a1.623 1.623 0 1 0-.001-3.245 1.623 1.623 0 0 0 .001 3.245Zm11.896-35.712a1.623 1.623 0 1 0-.001-3.245 1.623 1.623 0 0 0 .001 3.245Zm0 11.904a1.623 1.623 0 1 0-.001-3.245 1.623 1.623 0 0 0 .001 3.245Zm0 11.904a1.623 1.623 0 1 0-.001-3.245 1.623 1.623 0 0 0 .001 3.245Zm0 11.904a1.623 1.623 0 1 0-.001-3.245 1.623 1.623 0 0 0 .001 3.245Zm11.897-35.712a1.623 1.623 0 1 0-.001-3.245 1.623 1.623 0 0 0 .001 3.245Zm0 11.904a1.623 1.623 0 1 0-.001-3.245 1.623 1.623 0 0 0 .001 3.245Zm0 11.904a1.623 1.623 0 1 0-.001-3.245 1.623 1.623 0 0 0 .001 3.245Zm0 11.904a1.623 1.623 0 1 0-.001-3.245 1.623 1.623 0 0 0 .001 3.245ZM144.38 6.959a1.623 1.623 0 1 0-.001-3.245 1.623 1.623 0 0 0 .001 3.245Zm0 11.904a1.623 1.623 0 1 0-.001-3.245 1.623 1.623 0 0 0 .001 3.245Zm0 11.904a1.623 1.623 0 1 0-.001-3.245 1.623 1.623 0 0 0 .001 3.245Zm0 11.904a1.623 1.623 0 1 0-.001-3.245 1.623 1.623 0 0 0 .001 3.245Zm11.897-35.712a1.623 1.623 0 1 0-.002-3.246 1.623 1.623 0 0 0 .002 3.246Zm0 11.904a1.623 1.623 0 1 0-.002-3.247 1.623 1.623 0 0 0 .002 3.247Zm0 11.904a1.623 1.623 0 1 0-.002-3.246 1.623 1.623 0 0 0 .002 3.246Zm0 11.904a1.623 1.623 0 1 0-.002-3.246 1.623 1.623 0 0 0 .002 3.246Zm11.896-35.712a1.623 1.623 0 1 0-.001-3.245 1.623 1.623 0 0 0 .001 3.245Zm0 11.904a1.623 1.623 0 1 0-.001-3.245 1.623 1.623 0 0 0 .001 3.245Zm0 11.904a1.623 1.623 0 1 0-.001-3.245 1.623 1.623 0 0 0 .001 3.245Zm0 11.904a1.623 1.623 0 1 0-.001-3.245 1.623 1.623 0 0 0 .001 3.245ZM180.07 6.959a1.623 1.623 0 1 0-.002-3.246 1.623 1.623 0 0 0 .002 3.246Zm0 11.904a1.623 1.623 0 1 0-.002-3.247 1.623 1.623 0 0 0 .002 3.247Zm0 11.904a1.623 1.623 0 1 0-.002-3.246 1.623 1.623 0 0 0 .002 3.246Zm0 11.904a1.623 1.623 0 1 0-.002-3.246 1.623 1.623 0 0 0 .002 3.246Zm11.896-35.712a1.623 1.623 0 1 0-.001-3.245 1.623 1.623 0 0 0 .001 3.245Zm0 11.904a1.623 1.623 0 1 0-.001-3.245 1.623 1.623 0 0 0 .001 3.245Zm0 11.904a1.623 1.623 0 1 0-.001-3.245 1.623 1.623 0 0 0 .001 3.245Zm0 11.904a1.623 1.623 0 1 0-.001-3.245 1.623 1.623 0 0 0 .001 3.245Zm11.896-35.712a1.623 1.623 0 1 0 0-3.247 1.623 1.623 0 0 0 0 3.247Zm0 11.904a1.623 1.623 0 1 0 0-3.247 1.623 1.623 0 0 0 0 3.247Zm0 11.904a1.623 1.623 0 1 0 0-3.247 1.623 1.623 0 0 0 0 3.247Zm0 11.904a1.623 1.623 0 1 0 0-3.246 1.623 1.623 0 0 0 0 3.246Zm11.897-35.712a1.623 1.623 0 1 0-.001-3.245 1.623 1.623 0 0 0 .001 3.245Zm0 11.904a1.623 1.623 0 1 0-.001-3.245 1.623 1.623 0 0 0 .001 3.245Zm0 11.904a1.623 1.623 0 1 0-.001-3.245 1.623 1.623 0 0 0 .001 3.245Zm0 11.904a1.623 1.623 0 1 0-.001-3.245 1.623 1.623 0 0 0 .001 3.245Zm11.896-35.712a1.623 1.623 0 1 0 0-3.247 1.623 1.623 0 0 0 0 3.247Zm0 11.904a1.623 1.623 0 1 0 0-3.247 1.623 1.623 0 0 0 0 3.247Zm0 11.904a1.623 1.623 0 1 0 0-3.247 1.623 1.623 0 0 0 0 3.247Zm0 11.904a1.623 1.623 0 1 0 0-3.246 1.623 1.623 0 0 0 0 3.246Zm11.897-35.712a1.623 1.623 0 1 0-.001-3.245 1.623 1.623 0 0 0 .001 3.245Zm0 11.904a1.623 1.623 0 1 0-.001-3.245 1.623 1.623 0 0 0 .001 3.245Zm0 11.904a1.623 1.623 0 1 0-.001-3.245 1.623 1.623 0 0 0 .001 3.245Zm0 11.904a1.623 1.623 0 1 0-.001-3.245 1.623 1.623 0 0 0 .001 3.245Zm11.896-35.712a1.623 1.623 0 1 0 0-3.247 1.623 1.623 0 0 0 0 3.247Zm0 11.904a1.623 1.623 0 1 0 0-3.247 1.623 1.623 0 0 0 0 3.247Zm0 11.904a1.623 1.623 0 1 0 0-3.247 1.623 1.623 0 0 0 0 3.247Zm0 11.904a1.623 1.623 0 1 0 0-3.246 1.623 1.623 0 0 0 0 3.246Zm11.897-35.712a1.623 1.623 0 1 0-.001-3.245 1.623 1.623 0 0 0 .001 3.245Zm0 11.904a1.623 1.623 0 1 0-.001-3.245 1.623 1.623 0 0 0 .001 3.245Zm0 11.904a1.623 1.623 0 1 0-.001-3.245 1.623 1.623 0 0 0 .001 3.245Zm0 11.904a1.623 1.623 0 1 0-.001-3.245 1.623 1.623 0 0 0 .001 3.245Zm11.896-35.712a1.623 1.623 0 1 0 0-3.247 1.623 1.623 0 0 0 0 3.247Zm0 11.904a1.623 1.623 0 1 0 0-3.247 1.623 1.623 0 0 0 0 3.247Zm0 11.904a1.623 1.623 0 1 0 0-3.247 1.623 1.623 0 0 0 0 3.247Zm0 11.904a1.623 1.623 0 1 0 0-3.246 1.623 1.623 0 0 0 0 3.246Zm11.897-35.712a1.623 1.623 0 1 0-.001-3.245 1.623 1.623 0 0 0 .001 3.245Zm0 11.904a1.623 1.623 0 1 0-.001-3.245 1.623 1.623 0 0 0 .001 3.245Zm0 11.904a1.623 1.623 0 1 0-.001-3.245 1.623 1.623 0 0 0 .001 3.245Zm0 11.904a1.623 1.623 0 1 0-.001-3.245 1.623 1.623 0 0 0 .001 3.245Zm11.896-35.712a1.623 1.623 0 1 0 0-3.247 1.623 1.623 0 0 0 0 3.247Zm0 11.904a1.623 1.623 0 1 0 0-3.247 1.623 1.623 0 0 0 0 3.247Zm0 11.904a1.623 1.623 0 1 0 0-3.247 1.623 1.623 0 0 0 0 3.247Zm0 11.904a1.623 1.623 0 1 0 0-3.246 1.623 1.623 0 0 0 0 3.246Zm11.897-35.712a1.623 1.623 0 1 0-.001-3.245 1.623 1.623 0 0 0 .001 3.245Zm0 11.904a1.623 1.623 0 1 0-.001-3.245 1.623 1.623 0 0 0 .001 3.245Zm0 11.904a1.623 1.623 0 1 0-.001-3.245 1.623 1.623 0 0 0 .001 3.245Zm0 11.904a1.623 1.623 0 1 0-.001-3.245 1.623 1.623 0 0 0 .001 3.245Zm11.896-35.712a1.623 1.623 0 1 0 0-3.247 1.623 1.623 0 0 0 0 3.247Zm0 11.904a1.623 1.623 0 1 0 0-3.247 1.623 1.623 0 0 0 0 3.247Zm0 11.904a1.623 1.623 0 1 0 0-3.247 1.623 1.623 0 0 0 0 3.247Zm0 11.904a1.623 1.623 0 1 0 0-3.246 1.623 1.623 0 0 0 0 3.246ZM1.622 54.575a1.623 1.623 0 1 0 0-3.245 1.623 1.623 0 0 0 0 3.245Zm0 11.905a1.623 1.623 0 1 0 0-3.246 1.623 1.623 0 0 0 0 3.245Zm0 11.904a1.623 1.623 0 1 0 0-3.246 1.623 1.623 0 0 0 0 3.246Zm0 11.904a1.623 1.623 0 1 0 0-3.246 1.623 1.623 0 0 0 0 3.246Zm0 11.904a1.623 1.623 0 1 0-.001-3.246 1.623 1.623 0 0 0 .001 3.246Zm0 11.904a1.623 1.623 0 1 0-.001-3.246 1.623 1.623 0 0 0 .001 3.246Zm0 11.904a1.623 1.623 0 1 0-.001-3.246A1.623 1.623 0 0 0 1.622 126Zm11.897-71.425a1.623 1.623 0 1 0-.001-3.245 1.623 1.623 0 0 0 0 3.245Zm0 11.905a1.623 1.623 0 1 0-.001-3.246 1.623 1.623 0 0 0 0 3.245Zm0 11.904a1.623 1.623 0 1 0-.001-3.246 1.623 1.623 0 0 0 0 3.246Zm0 11.904a1.623 1.623 0 1 0-.001-3.246 1.623 1.623 0 0 0 0 3.246Zm0 11.904a1.623 1.623 0 1 0-.001-3.246 1.623 1.623 0 0 0 0 3.246Zm0 11.904a1.623 1.623 0 1 0-.002-3.246 1.623 1.623 0 0 0 .002 3.246Zm0 11.904a1.623 1.623 0 1 0-.001-3.246 1.623 1.623 0 0 0 0 3.246Zm11.896-71.425a1.623 1.623 0 1 0 0-3.245 1.623 1.623 0 0 0 0 3.245Zm0 11.905a1.623 1.623 0 1 0 0-3.246 1.623 1.623 0 0 0 0 3.245Zm0 11.904a1.623 1.623 0 1 0 0-3.246 1.623 1.623 0 0 0 0 3.246Zm0 11.904a1.623 1.623 0 1 0 0-3.246 1.623 1.623 0 0 0 0 3.246Zm0 11.904a1.623 1.623 0 1 0 0-3.246 1.623 1.623 0 0 0 0 3.246Zm0 11.904a1.623 1.623 0 1 0-.001-3.246 1.623 1.623 0 0 0 .001 3.246Zm0 11.904a1.623 1.623 0 1 0 0-3.246 1.623 1.623 0 0 0 0 3.246Zm11.897-71.425a1.623 1.623 0 1 0-.001-3.245 1.623 1.623 0 0 0 0 3.245Zm0 11.905a1.623 1.623 0 1 0-.001-3.246 1.623 1.623 0 0 0 0 3.245Zm0 11.904a1.623 1.623 0 1 0-.001-3.246 1.623 1.623 0 0 0 0 3.246Zm0 11.904a1.623 1.623 0 1 0-.001-3.246 1.623 1.623 0 0 0 0 3.246Zm0 11.904a1.623 1.623 0 1 0-.002-3.246 1.623 1.623 0 0 0 .002 3.246Zm0 11.904a1.623 1.623 0 1 0-.002-3.246 1.623 1.623 0 0 0 .002 3.246Zm0 11.904a1.623 1.623 0 1 0-.002-3.246 1.623 1.623 0 0 0 .002 3.246Zm11.896-71.425a1.623 1.623 0 1 0-.001-3.245 1.623 1.623 0 0 0 .001 3.245Zm0 11.905a1.623 1.623 0 1 0-.001-3.246 1.623 1.623 0 0 0 .001 3.245Zm0 11.904a1.623 1.623 0 1 0-.001-3.246 1.623 1.623 0 0 0 .001 3.246Zm0 11.904a1.623 1.623 0 1 0-.001-3.246 1.623 1.623 0 0 0 .001 3.246Zm0 11.904a1.623 1.623 0 1 0-.001-3.246 1.623 1.623 0 0 0 .001 3.246Zm0 11.904a1.623 1.623 0 1 0-.002-3.246 1.623 1.623 0 0 0 .002 3.246Zm0 11.904a1.623 1.623 0 1 0-.001-3.246 1.623 1.623 0 0 0 .001 3.246Zm11.897-71.425a1.623 1.623 0 1 0-.001-3.245 1.623 1.623 0 0 0 0 3.245Zm0 11.905a1.623 1.623 0 1 0-.001-3.246 1.623 1.623 0 0 0 0 3.245Zm0 11.904a1.623 1.623 0 1 0-.001-3.246 1.623 1.623 0 0 0 0 3.246Zm0 11.904a1.623 1.623 0 1 0-.001-3.246 1.623 1.623 0 0 0 0 3.246Zm0 11.904a1.623 1.623 0 1 0-.002-3.246 1.623 1.623 0 0 0 .002 3.246Zm0 11.904a1.623 1.623 0 1 0-.002-3.246 1.623 1.623 0 0 0 .002 3.246Zm0 11.904a1.623 1.623 0 1 0-.002-3.246 1.623 1.623 0 0 0 .002 3.246Zm11.896-71.425A1.623 1.623 0 1 0 73 51.33a1.623 1.623 0 0 0 .001 3.245Zm0 11.905A1.623 1.623 0 1 0 73 63.233a1.623 1.623 0 0 0 .001 3.245Zm0 11.904A1.623 1.623 0 1 0 73 75.138a1.623 1.623 0 0 0 .001 3.246Zm0 11.904A1.623 1.623 0 1 0 73 87.042a1.623 1.623 0 0 0 .001 3.246Zm0 11.904A1.623 1.623 0 1 0 73 98.946a1.623 1.623 0 0 0 .001 3.246Zm0 11.904A1.623 1.623 0 1 0 73 110.85a1.623 1.623 0 0 0 .002 3.246Zm0 11.904a1.623 1.623 0 1 0-.001-3.246A1.623 1.623 0 0 0 73 126Zm11.897-71.425a1.623 1.623 0 1 0-.001-3.245 1.623 1.623 0 0 0 0 3.245Zm0 11.905a1.623 1.623 0 1 0-.001-3.246 1.623 1.623 0 0 0 0 3.245Zm0 11.904a1.623 1.623 0 1 0-.001-3.246 1.623 1.623 0 0 0 0 3.246Zm0 11.904a1.623 1.623 0 1 0-.001-3.246 1.623 1.623 0 0 0 0 3.246Zm0 11.904a1.623 1.623 0 1 0-.002-3.246 1.623 1.623 0 0 0 .002 3.246Zm0 11.904a1.623 1.623 0 1 0-.002-3.246 1.623 1.623 0 0 0 .002 3.246Zm0 11.904a1.623 1.623 0 1 0-.002-3.246 1.623 1.623 0 0 0 .002 3.246Zm11.896-71.425a1.623 1.623 0 1 0 0-3.245 1.623 1.623 0 0 0 0 3.245Zm0 11.905a1.623 1.623 0 1 0 0-3.246 1.623 1.623 0 0 0 0 3.245Zm0 11.904a1.623 1.623 0 1 0 0-3.246 1.623 1.623 0 0 0 0 3.246Zm0 11.904a1.623 1.623 0 1 0 0-3.246 1.623 1.623 0 0 0 0 3.246Zm0 11.904a1.623 1.623 0 1 0-.001-3.246 1.623 1.623 0 0 0 .001 3.246Zm0 11.904a1.623 1.623 0 1 0-.001-3.246 1.623 1.623 0 0 0 .001 3.246Zm0 11.904a1.623 1.623 0 1 0-.001-3.246 1.623 1.623 0 0 0 .001 3.246Zm11.897-71.425a1.623 1.623 0 1 0-.001-3.245 1.623 1.623 0 0 0 .001 3.245Zm0 11.905a1.623 1.623 0 1 0-.001-3.246 1.623 1.623 0 0 0 .001 3.245Zm0 11.904a1.623 1.623 0 1 0-.001-3.245 1.623 1.623 0 0 0 .001 3.245Zm0 11.904a1.623 1.623 0 1 0-.001-3.245 1.623 1.623 0 0 0 .001 3.245Zm0 11.904a1.623 1.623 0 1 0-.001-3.245 1.623 1.623 0 0 0 .001 3.245Zm0 11.904a1.623 1.623 0 1 0-.002-3.246 1.623 1.623 0 0 0 .002 3.246Zm0 11.904a1.623 1.623 0 1 0-.001-3.245 1.623 1.623 0 0 0 .001 3.245Zm11.896-71.425a1.623 1.623 0 1 0-.001-3.245 1.623 1.623 0 0 0 .001 3.245Zm0 11.905a1.623 1.623 0 1 0-.001-3.246 1.623 1.623 0 0 0 .001 3.245Zm0 11.904a1.623 1.623 0 1 0-.001-3.245 1.623 1.623 0 0 0 .001 3.245Zm0 11.904a1.623 1.623 0 1 0-.001-3.245 1.623 1.623 0 0 0 .001 3.245Zm0 11.904a1.623 1.623 0 1 0-.001-3.245 1.623 1.623 0 0 0 .001 3.245Zm0 11.904a1.623 1.623 0 1 0-.002-3.246 1.623 1.623 0 0 0 .002 3.246Zm0 11.904a1.623 1.623 0 1 0-.001-3.245 1.623 1.623 0 0 0 .001 3.245Zm11.897-71.425a1.623 1.623 0 1 0-.001-3.245 1.623 1.623 0 0 0 .001 3.245Zm0 11.905a1.623 1.623 0 1 0-.001-3.246 1.623 1.623 0 0 0 .001 3.245Zm0 11.904a1.623 1.623 0 1 0-.001-3.245 1.623 1.623 0 0 0 .001 3.245Zm0 11.904a1.623 1.623 0 1 0-.001-3.245 1.623 1.623 0 0 0 .001 3.245Zm0 11.904a1.623 1.623 0 1 0-.001-3.245 1.623 1.623 0 0 0 .001 3.245Zm0 11.904a1.623 1.623 0 1 0-.002-3.246 1.623 1.623 0 0 0 .002 3.246Zm0 11.904a1.623 1.623 0 1 0-.001-3.245 1.623 1.623 0 0 0 .001 3.245Zm11.896-71.425a1.623 1.623 0 1 0-.001-3.245 1.623 1.623 0 0 0 .001 3.245Zm0 11.905a1.623 1.623 0 1 0-.001-3.246 1.623 1.623 0 0 0 .001 3.245Zm0 11.904a1.623 1.623 0 1 0-.001-3.245 1.623 1.623 0 0 0 .001 3.245Zm0 11.904a1.623 1.623 0 1 0-.001-3.245 1.623 1.623 0 0 0 .001 3.245Zm0 11.904a1.623 1.623 0 1 0-.001-3.245 1.623 1.623 0 0 0 .001 3.245Zm0 11.904a1.623 1.623 0 1 0-.002-3.246 1.623 1.623 0 0 0 .002 3.246Zm0 11.904a1.623 1.623 0 1 0-.001-3.245 1.623 1.623 0 0 0 .001 3.245Zm11.897-71.425a1.623 1.623 0 1 0-.002-3.246 1.623 1.623 0 0 0 .002 3.246Zm0 11.905a1.623 1.623 0 1 0-.002-3.247 1.623 1.623 0 0 0 .002 3.247Zm0 11.904a1.623 1.623 0 1 0-.002-3.247 1.623 1.623 0 0 0 .002 3.247Zm0 11.904a1.623 1.623 0 1 0-.002-3.247 1.623 1.623 0 0 0 .002 3.247Zm0 11.904a1.623 1.623 0 1 0-.002-3.246 1.623 1.623 0 0 0 .002 3.246Zm0 11.904a1.623 1.623 0 1 0-.003-3.247 1.623 1.623 0 0 0 .003 3.247Zm0 11.904a1.623 1.623 0 1 0-.002-3.246 1.623 1.623 0 0 0 .002 3.246Zm11.896-71.425a1.623 1.623 0 1 0-.001-3.245 1.623 1.623 0 0 0 .001 3.245Zm0 11.905a1.623 1.623 0 1 0-.001-3.246 1.623 1.623 0 0 0 .001 3.245Zm0 11.904a1.623 1.623 0 1 0-.001-3.245 1.623 1.623 0 0 0 .001 3.245Zm0 11.904a1.623 1.623 0 1 0-.001-3.245 1.623 1.623 0 0 0 .001 3.245Zm0 11.904a1.623 1.623 0 1 0-.001-3.245 1.623 1.623 0 0 0 .001 3.245Zm0 11.904a1.623 1.623 0 1 0-.002-3.246 1.623 1.623 0 0 0 .002 3.246Zm0 11.904a1.623 1.623 0 1 0-.001-3.245 1.623 1.623 0 0 0 .001 3.245Zm11.897-71.425a1.623 1.623 0 1 0-.002-3.246 1.623 1.623 0 0 0 .002 3.246Zm0 11.905a1.623 1.623 0 1 0-.002-3.247 1.623 1.623 0 0 0 .002 3.247Zm0 11.904a1.623 1.623 0 1 0-.002-3.247 1.623 1.623 0 0 0 .002 3.247Zm0 11.904a1.623 1.623 0 1 0-.002-3.247 1.623 1.623 0 0 0 .002 3.247Zm0 11.904a1.623 1.623 0 1 0-.002-3.246 1.623 1.623 0 0 0 .002 3.246Zm0 11.904a1.623 1.623 0 1 0-.003-3.247 1.623 1.623 0 0 0 .003 3.247Zm0 11.904a1.623 1.623 0 1 0-.002-3.246 1.623 1.623 0 0 0 .002 3.246Zm11.896-71.425a1.623 1.623 0 1 0-.001-3.245 1.623 1.623 0 0 0 .001 3.245Zm0 11.905a1.623 1.623 0 1 0-.001-3.246 1.623 1.623 0 0 0 .001 3.245Zm0 11.904a1.623 1.623 0 1 0-.001-3.245 1.623 1.623 0 0 0 .001 3.245Zm0 11.904a1.623 1.623 0 1 0-.001-3.245 1.623 1.623 0 0 0 .001 3.245Zm0 11.904a1.623 1.623 0 1 0-.001-3.245 1.623 1.623 0 0 0 .001 3.245Zm0 11.904a1.623 1.623 0 1 0-.002-3.246 1.623 1.623 0 0 0 .002 3.246Zm0 11.904a1.623 1.623 0 1 0-.001-3.245 1.623 1.623 0 0 0 .001 3.245Zm11.896-71.425a1.623 1.623 0 1 0 0-3.247 1.623 1.623 0 0 0 0 3.247Zm0 11.905a1.623 1.623 0 1 0 0-3.247 1.623 1.623 0 0 0 0 3.247Zm0 11.904a1.623 1.623 0 1 0 0-3.247 1.623 1.623 0 0 0 0 3.247Zm0 11.904a1.623 1.623 0 1 0 0-3.247 1.623 1.623 0 0 0 0 3.247Zm0 11.904a1.623 1.623 0 1 0 0-3.247 1.623 1.623 0 0 0 0 3.247Zm0 11.904a1.624 1.624 0 1 0-.001-3.247 1.624 1.624 0 0 0 .001 3.247Zm0 11.904a1.623 1.623 0 1 0 0-3.247 1.623 1.623 0 0 0 0 3.247Zm11.897-71.425a1.623 1.623 0 1 0-.001-3.245 1.623 1.623 0 0 0 .001 3.245Zm0 11.905a1.623 1.623 0 1 0-.001-3.246 1.623 1.623 0 0 0 .001 3.245Zm0 11.904a1.623 1.623 0 1 0-.001-3.245 1.623 1.623 0 0 0 .001 3.245Zm0 11.904a1.623 1.623 0 1 0-.001-3.245 1.623 1.623 0 0 0 .001 3.245Zm0 11.904a1.623 1.623 0 1 0-.001-3.245 1.623 1.623 0 0 0 .001 3.245Zm0 11.904a1.623 1.623 0 1 0-.002-3.246 1.623 1.623 0 0 0 .002 3.246Zm0 11.904a1.623 1.623 0 1 0-.001-3.245 1.623 1.623 0 0 0 .001 3.245Zm11.896-71.425a1.623 1.623 0 1 0 0-3.247 1.623 1.623 0 0 0 0 3.247Zm0 11.905a1.623 1.623 0 1 0 0-3.247 1.623 1.623 0 0 0 0 3.247Zm0 11.904a1.623 1.623 0 1 0 0-3.247 1.623 1.623 0 0 0 0 3.247Zm0 11.904a1.623 1.623 0 1 0 0-3.247 1.623 1.623 0 0 0 0 3.247Zm0 11.904a1.623 1.623 0 1 0 0-3.247 1.623 1.623 0 0 0 0 3.247Zm0 11.904a1.624 1.624 0 1 0-.001-3.247 1.624 1.624 0 0 0 .001 3.247Zm0 11.904a1.623 1.623 0 1 0 0-3.247 1.623 1.623 0 0 0 0 3.247Zm11.897-71.425a1.623 1.623 0 1 0-.001-3.245 1.623 1.623 0 0 0 .001 3.245Zm0 11.905a1.623 1.623 0 1 0-.001-3.246 1.623 1.623 0 0 0 .001 3.245Zm0 11.904a1.623 1.623 0 1 0-.001-3.245 1.623 1.623 0 0 0 .001 3.245Zm0 11.904a1.623 1.623 0 1 0-.001-3.245 1.623 1.623 0 0 0 .001 3.245Zm0 11.904a1.623 1.623 0 1 0-.001-3.245 1.623 1.623 0 0 0 .001 3.245Zm0 11.904a1.623 1.623 0 1 0-.002-3.246 1.623 1.623 0 0 0 .002 3.246Zm0 11.904a1.623 1.623 0 1 0-.001-3.245 1.623 1.623 0 0 0 .001 3.245Zm11.896-71.424a1.623 1.623 0 1 0 0-3.247 1.623 1.623 0 0 0 0 3.247Zm0 11.904a1.623 1.623 0 1 0 0-3.247 1.623 1.623 0 0 0 0 3.247Zm0 11.903a1.623 1.623 0 1 0 0-3.246 1.623 1.623 0 0 0 0 3.246Zm0 11.905a1.623 1.623 0 1 0 0-3.247 1.623 1.623 0 0 0 0 3.247Zm0 11.904a1.623 1.623 0 1 0 0-3.247 1.623 1.623 0 0 0 0 3.247Zm0 11.904a1.623 1.623 0 1 0 0-3.247 1.623 1.623 0 0 0 0 3.247Zm0 11.904a1.623 1.623 0 1 0 0-3.247 1.623 1.623 0 0 0 0 3.247Zm11.897-71.424a1.623 1.623 0 1 0-.001-3.245 1.623 1.623 0 0 0 .001 3.245Zm0 11.904a1.623 1.623 0 1 0-.001-3.246 1.623 1.623 0 0 0 .001 3.245Zm0 11.903a1.623 1.623 0 1 0-.001-3.245 1.623 1.623 0 0 0 .001 3.245Zm0 11.905a1.623 1.623 0 1 0-.001-3.245 1.623 1.623 0 0 0 .001 3.245Zm0 11.904a1.623 1.623 0 1 0-.001-3.245 1.623 1.623 0 0 0 .001 3.245Zm0 11.904a1.623 1.623 0 1 0-.001-3.245 1.623 1.623 0 0 0 .001 3.245Zm0 11.904a1.623 1.623 0 1 0-.001-3.245 1.623 1.623 0 0 0 .001 3.245Zm11.896-71.424a1.623 1.623 0 1 0 0-3.247 1.623 1.623 0 0 0 0 3.247Zm0 11.904a1.623 1.623 0 1 0 0-3.247 1.623 1.623 0 0 0 0 3.247Zm0 11.903a1.623 1.623 0 1 0 0-3.246 1.623 1.623 0 0 0 0 3.246Zm0 11.905a1.623 1.623 0 1 0 0-3.247 1.623 1.623 0 0 0 0 3.247Zm0 11.904a1.623 1.623 0 1 0 0-3.247 1.623 1.623 0 0 0 0 3.247Zm0 11.904a1.623 1.623 0 1 0 0-3.247 1.623 1.623 0 0 0 0 3.247Zm0 11.904a1.623 1.623 0 1 0 0-3.247 1.623 1.623 0 0 0 0 3.247Zm11.897-71.424a1.623 1.623 0 1 0-.001-3.245 1.623 1.623 0 0 0 .001 3.245Zm0 11.904a1.623 1.623 0 1 0-.001-3.246 1.623 1.623 0 0 0 .001 3.245Zm0 11.903a1.623 1.623 0 1 0-.001-3.245 1.623 1.623 0 0 0 .001 3.245Zm0 11.905a1.623 1.623 0 1 0-.001-3.245 1.623 1.623 0 0 0 .001 3.245Zm0 11.904a1.623 1.623 0 1 0-.001-3.245 1.623 1.623 0 0 0 .001 3.245Zm0 11.904a1.623 1.623 0 1 0-.001-3.245 1.623 1.623 0 0 0 .001 3.245Zm0 11.904a1.623 1.623 0 1 0-.001-3.245 1.623 1.623 0 0 0 .001 3.245Zm11.896-71.424a1.623 1.623 0 1 0 0-3.247 1.623 1.623 0 0 0 0 3.247Zm0 11.904a1.623 1.623 0 1 0 0-3.247 1.623 1.623 0 0 0 0 3.247Zm0 11.903a1.623 1.623 0 1 0 0-3.246 1.623 1.623 0 0 0 0 3.246Zm0 11.905a1.623 1.623 0 1 0 0-3.247 1.623 1.623 0 0 0 0 3.247Zm0 11.904a1.623 1.623 0 1 0 0-3.247 1.623 1.623 0 0 0 0 3.247Zm0 11.904a1.623 1.623 0 1 0 0-3.247 1.623 1.623 0 0 0 0 3.247Zm0 11.904a1.623 1.623 0 1 0 0-3.247 1.623 1.623 0 0 0 0 3.247Zm11.897-71.424a1.623 1.623 0 1 0-.001-3.245 1.623 1.623 0 0 0 .001 3.245Zm0 11.904a1.623 1.623 0 1 0-.001-3.246 1.623 1.623 0 0 0 .001 3.245Zm0 11.903a1.623 1.623 0 1 0-.001-3.245 1.623 1.623 0 0 0 .001 3.245Zm0 11.905a1.623 1.623 0 1 0-.001-3.245 1.623 1.623 0 0 0 .001 3.245Zm0 11.904a1.623 1.623 0 1 0-.001-3.245 1.623 1.623 0 0 0 .001 3.245Zm0 11.904a1.623 1.623 0 1 0-.001-3.245 1.623 1.623 0 0 0 .001 3.245Zm0 11.904a1.623 1.623 0 1 0-.001-3.245 1.623 1.623 0 0 0 .001 3.245Zm11.896-71.424a1.623 1.623 0 1 0 0-3.247 1.623 1.623 0 0 0 0 3.247Zm0 11.904a1.623 1.623 0 1 0 0-3.247 1.623 1.623 0 0 0 0 3.247Zm0 11.903a1.623 1.623 0 1 0 0-3.246 1.623 1.623 0 0 0 0 3.246Zm0 11.905a1.623 1.623 0 1 0 0-3.247 1.623 1.623 0 0 0 0 3.247Zm0 11.904a1.623 1.623 0 1 0 0-3.247 1.623 1.623 0 0 0 0 3.247Zm0 11.904a1.623 1.623 0 1 0 0-3.247 1.623 1.623 0 0 0 0 3.247Zm0 11.904a1.623 1.623 0 1 0 0-3.247 1.623 1.623 0 0 0 0 3.247ZM334.724 6.959a1.623 1.623 0 1 0-.001-3.245 1.623 1.623 0 0 0 .001 3.245Zm0 11.904a1.623 1.623 0 1 0-.001-3.245 1.623 1.623 0 0 0 .001 3.245Zm0 11.904a1.623 1.623 0 1 0-.001-3.245 1.623 1.623 0 0 0 .001 3.245Zm0 11.904a1.623 1.623 0 1 0-.001-3.245 1.623 1.623 0 0 0 .001 3.245ZM346.62 6.959a1.623 1.623 0 1 0 0-3.247 1.623 1.623 0 0 0 0 3.247Zm0 11.904a1.623 1.623 0 1 0 0-3.247 1.623 1.623 0 0 0 0 3.247Zm0 11.904a1.623 1.623 0 1 0 0-3.247 1.623 1.623 0 0 0 0 3.247Zm0 11.904a1.623 1.623 0 1 0 0-3.246 1.623 1.623 0 0 0 0 3.246Zm11.897-35.712a1.623 1.623 0 1 0-.001-3.245 1.623 1.623 0 0 0 .001 3.245Zm0 11.904a1.623 1.623 0 1 0-.001-3.245 1.623 1.623 0 0 0 .001 3.245Zm0 11.904a1.623 1.623 0 1 0-.001-3.245 1.623 1.623 0 0 0 .001 3.245Zm0 11.904a1.623 1.623 0 1 0-.001-3.245 1.623 1.623 0 0 0 .001 3.245Zm11.896-35.712a1.623 1.623 0 1 0 0-3.247 1.623 1.623 0 0 0 0 3.247Zm0 11.904a1.623 1.623 0 1 0 0-3.247 1.623 1.623 0 0 0 0 3.247Zm0 11.904a1.623 1.623 0 1 0 0-3.247 1.623 1.623 0 0 0 0 3.247Zm0 11.904a1.623 1.623 0 1 0 0-3.246 1.623 1.623 0 0 0 0 3.246ZM382.31 6.959a1.623 1.623 0 1 0-.001-3.245 1.623 1.623 0 0 0 .001 3.245Zm0 11.904a1.623 1.623 0 1 0-.001-3.245 1.623 1.623 0 0 0 .001 3.245Zm0 11.904a1.623 1.623 0 1 0-.001-3.245 1.623 1.623 0 0 0 .001 3.245Zm0 11.904a1.623 1.623 0 1 0-.001-3.245 1.623 1.623 0 0 0 .001 3.245Zm11.896-35.712a1.623 1.623 0 1 0-.001-3.245 1.623 1.623 0 0 0 .001 3.245Zm0 11.904a1.623 1.623 0 1 0-.001-3.245 1.623 1.623 0 0 0 .001 3.245Zm0 11.904a1.623 1.623 0 1 0-.001-3.245 1.623 1.623 0 0 0 .001 3.245Zm0 11.904a1.623 1.623 0 1 0-.001-3.245 1.623 1.623 0 0 0 .001 3.245Zm11.897-35.712a1.623 1.623 0 1 0-.001-3.245 1.623 1.623 0 0 0 .001 3.245Zm0 11.904a1.623 1.623 0 1 0-.001-3.245 1.623 1.623 0 0 0 .001 3.245Zm0 11.904a1.623 1.623 0 1 0-.001-3.245 1.623 1.623 0 0 0 .001 3.245Zm0 11.904a1.623 1.623 0 1 0-.001-3.245 1.623 1.623 0 0 0 .001 3.245Zm11.896-35.712a1.623 1.623 0 1 0-.001-3.245 1.623 1.623 0 0 0 .001 3.245Zm0 11.904a1.623 1.623 0 1 0-.001-3.245 1.623 1.623 0 0 0 .001 3.245Zm0 11.904a1.623 1.623 0 1 0-.001-3.245 1.623 1.623 0 0 0 .001 3.245Zm0 11.904a1.623 1.623 0 1 0-.001-3.245 1.623 1.623 0 0 0 .001 3.245Zm11.897-35.712a1.623 1.623 0 1 0-.001-3.245 1.623 1.623 0 0 0 .001 3.245Zm0 11.904a1.623 1.623 0 1 0-.001-3.245 1.623 1.623 0 0 0 .001 3.245Zm0 11.904a1.623 1.623 0 1 0-.001-3.245 1.623 1.623 0 0 0 .001 3.245Zm0 11.904a1.623 1.623 0 1 0-.001-3.245 1.623 1.623 0 0 0 .001 3.245Zm11.896-35.712a1.623 1.623 0 1 0-.001-3.245 1.623 1.623 0 0 0 .001 3.245Zm0 11.904a1.623 1.623 0 1 0-.001-3.245 1.623 1.623 0 0 0 .001 3.245Zm0 11.904a1.623 1.623 0 1 0-.001-3.245 1.623 1.623 0 0 0 .001 3.245Zm0 11.904a1.623 1.623 0 1 0-.001-3.245 1.623 1.623 0 0 0 .001 3.245Zm11.897-35.712a1.623 1.623 0 1 0-.001-3.245 1.623 1.623 0 0 0 .001 3.245Zm0 11.904a1.623 1.623 0 1 0-.001-3.245 1.623 1.623 0 0 0 .001 3.245Zm0 11.904a1.623 1.623 0 1 0-.001-3.245 1.623 1.623 0 0 0 .001 3.245Zm0 11.904a1.623 1.623 0 1 0-.001-3.245 1.623 1.623 0 0 0 .001 3.245Zm11.896-35.712a1.623 1.623 0 1 0-.001-3.245 1.623 1.623 0 0 0 .001 3.245Zm0 11.904a1.623 1.623 0 1 0-.001-3.245 1.623 1.623 0 0 0 .001 3.245Zm0 11.904a1.623 1.623 0 1 0-.001-3.245 1.623 1.623 0 0 0 .001 3.245Zm0 11.904a1.623 1.623 0 1 0-.001-3.245 1.623 1.623 0 0 0 .001 3.245Zm11.897-35.712a1.623 1.623 0 1 0-.001-3.245 1.623 1.623 0 0 0 .001 3.245Zm0 11.904a1.623 1.623 0 1 0-.001-3.245 1.623 1.623 0 0 0 .001 3.245Zm0 11.904a1.623 1.623 0 1 0-.001-3.245 1.623 1.623 0 0 0 .001 3.245Zm0 11.904a1.623 1.623 0 1 0-.001-3.245 1.623 1.623 0 0 0 .001 3.245Zm11.896-35.712a1.623 1.623 0 1 0-.001-3.245 1.623 1.623 0 0 0 .001 3.245Zm0 11.904a1.623 1.623 0 1 0-.001-3.245 1.623 1.623 0 0 0 .001 3.245Zm0 11.904a1.623 1.623 0 1 0-.001-3.245 1.623 1.623 0 0 0 .001 3.245Zm0 11.904a1.623 1.623 0 1 0-.001-3.245 1.623 1.623 0 0 0 .001 3.245ZM334.724 54.576a1.623 1.623 0 1 0-.001-3.245 1.623 1.623 0 0 0 .001 3.245Zm0 11.904a1.623 1.623 0 1 0-.001-3.246 1.623 1.623 0 0 0 .001 3.245Zm0 11.903a1.623 1.623 0 1 0-.001-3.245 1.623 1.623 0 0 0 .001 3.245Zm0 11.905a1.623 1.623 0 1 0-.001-3.245 1.623 1.623 0 0 0 .001 3.245Zm0 11.904a1.623 1.623 0 1 0-.001-3.245 1.623 1.623 0 0 0 .001 3.245Zm0 11.904a1.623 1.623 0 1 0-.001-3.245 1.623 1.623 0 0 0 .001 3.245Zm0 11.904a1.623 1.623 0 1 0-.001-3.245 1.623 1.623 0 0 0 .001 3.245Zm11.896-71.424a1.623 1.623 0 1 0 0-3.247 1.623 1.623 0 0 0 0 3.247Zm0 11.904a1.623 1.623 0 1 0 0-3.247 1.623 1.623 0 0 0 0 3.247Zm0 11.903a1.623 1.623 0 1 0 0-3.246 1.623 1.623 0 0 0 0 3.246Zm0 11.905a1.623 1.623 0 1 0 0-3.247 1.623 1.623 0 0 0 0 3.247Zm0 11.904a1.623 1.623 0 1 0 0-3.247 1.623 1.623 0 0 0 0 3.247Zm0 11.904a1.623 1.623 0 1 0 0-3.247 1.623 1.623 0 0 0 0 3.247Zm0 11.904a1.623 1.623 0 1 0 0-3.247 1.623 1.623 0 0 0 0 3.247Zm11.897-71.424a1.623 1.623 0 1 0-.001-3.245 1.623 1.623 0 0 0 .001 3.245Zm0 11.904a1.623 1.623 0 1 0-.001-3.246 1.623 1.623 0 0 0 .001 3.245Zm0 11.903a1.623 1.623 0 1 0-.001-3.245 1.623 1.623 0 0 0 .001 3.245Zm0 11.905a1.623 1.623 0 1 0-.001-3.245 1.623 1.623 0 0 0 .001 3.245Zm0 11.904a1.623 1.623 0 1 0-.001-3.245 1.623 1.623 0 0 0 .001 3.245Zm0 11.904a1.623 1.623 0 1 0-.001-3.245 1.623 1.623 0 0 0 .001 3.245Zm0 11.904a1.623 1.623 0 1 0-.001-3.245 1.623 1.623 0 0 0 .001 3.245Zm11.896-71.424a1.623 1.623 0 1 0 0-3.247 1.623 1.623 0 0 0 0 3.247Zm0 11.904a1.623 1.623 0 1 0 0-3.247 1.623 1.623 0 0 0 0 3.247Zm0 11.903a1.623 1.623 0 1 0 0-3.246 1.623 1.623 0 0 0 0 3.246Zm0 11.905a1.623 1.623 0 1 0 0-3.247 1.623 1.623 0 0 0 0 3.247Zm0 11.904a1.623 1.623 0 1 0 0-3.247 1.623 1.623 0 0 0 0 3.247Zm0 11.904a1.623 1.623 0 1 0 0-3.247 1.623 1.623 0 0 0 0 3.247Zm0 11.904a1.623 1.623 0 1 0 0-3.247 1.623 1.623 0 0 0 0 3.247Zm11.897-71.424a1.623 1.623 0 1 0-.001-3.245 1.623 1.623 0 0 0 .001 3.245Zm0 11.904a1.623 1.623 0 1 0-.001-3.246 1.623 1.623 0 0 0 .001 3.245Zm0 11.903a1.623 1.623 0 1 0-.001-3.245 1.623 1.623 0 0 0 .001 3.245Zm0 11.905a1.623 1.623 0 1 0-.001-3.245 1.623 1.623 0 0 0 .001 3.245Zm0 11.904a1.623 1.623 0 1 0-.001-3.245 1.623 1.623 0 0 0 .001 3.245Zm0 11.904a1.623 1.623 0 1 0-.001-3.245 1.623 1.623 0 0 0 .001 3.245Zm0 11.904a1.623 1.623 0 1 0-.001-3.245 1.623 1.623 0 0 0 .001 3.245Zm11.896-71.424a1.623 1.623 0 1 0-.001-3.245 1.623 1.623 0 0 0 .001 3.245Zm0 11.904a1.623 1.623 0 1 0-.001-3.246 1.623 1.623 0 0 0 .001 3.245Zm0 11.903a1.623 1.623 0 1 0-.001-3.245 1.623 1.623 0 0 0 .001 3.245Zm0 11.905a1.623 1.623 0 1 0-.001-3.245 1.623 1.623 0 0 0 .001 3.245Zm0 11.904a1.623 1.623 0 1 0-.001-3.245 1.623 1.623 0 0 0 .001 3.245Zm0 11.904a1.623 1.623 0 1 0-.001-3.245 1.623 1.623 0 0 0 .001 3.245Zm0 11.904a1.623 1.623 0 1 0-.001-3.245 1.623 1.623 0 0 0 .001 3.245Zm11.897-71.424a1.623 1.623 0 1 0-.001-3.245 1.623 1.623 0 0 0 .001 3.245Zm0 11.904a1.623 1.623 0 1 0-.001-3.246 1.623 1.623 0 0 0 .001 3.245Zm0 11.903a1.623 1.623 0 1 0-.001-3.245 1.623 1.623 0 0 0 .001 3.245Zm0 11.905a1.623 1.623 0 1 0-.001-3.245 1.623 1.623 0 0 0 .001 3.245Zm0 11.904a1.623 1.623 0 1 0-.001-3.245 1.623 1.623 0 0 0 .001 3.245Zm0 11.904a1.623 1.623 0 1 0-.001-3.245 1.623 1.623 0 0 0 .001 3.245Zm0 11.904a1.623 1.623 0 1 0-.001-3.245 1.623 1.623 0 0 0 .001 3.245Zm11.896-71.424a1.623 1.623 0 1 0-.001-3.245 1.623 1.623 0 0 0 .001 3.245Zm0 11.904a1.623 1.623 0 1 0-.001-3.246 1.623 1.623 0 0 0 .001 3.245Zm0 11.903a1.623 1.623 0 1 0-.001-3.245 1.623 1.623 0 0 0 .001 3.245Zm0 11.905a1.623 1.623 0 1 0-.001-3.245 1.623 1.623 0 0 0 .001 3.245Zm0 11.904a1.623 1.623 0 1 0-.001-3.245 1.623 1.623 0 0 0 .001 3.245Zm0 11.904a1.623 1.623 0 1 0-.001-3.245 1.623 1.623 0 0 0 .001 3.245Zm0 11.904a1.623 1.623 0 1 0-.001-3.245 1.623 1.623 0 0 0 .001 3.245Zm11.897-71.424a1.623 1.623 0 1 0-.001-3.245 1.623 1.623 0 0 0 .001 3.245Zm0 11.904a1.623 1.623 0 1 0-.001-3.246 1.623 1.623 0 0 0 .001 3.245Zm0 11.903a1.623 1.623 0 1 0-.001-3.245 1.623 1.623 0 0 0 .001 3.245Zm0 11.905a1.623 1.623 0 1 0-.001-3.245 1.623 1.623 0 0 0 .001 3.245Zm0 11.904a1.623 1.623 0 1 0-.001-3.245 1.623 1.623 0 0 0 .001 3.245Zm0 11.904a1.623 1.623 0 1 0-.001-3.245 1.623 1.623 0 0 0 .001 3.245Zm0 11.904a1.623 1.623 0 1 0-.001-3.245 1.623 1.623 0 0 0 .001 3.245Zm11.896-71.424a1.623 1.623 0 1 0-.001-3.245 1.623 1.623 0 0 0 .001 3.245Zm0 11.904a1.623 1.623 0 1 0-.001-3.246 1.623 1.623 0 0 0 .001 3.245Zm0 11.903a1.623 1.623 0 1 0-.001-3.245 1.623 1.623 0 0 0 .001 3.245Zm0 11.905a1.623 1.623 0 1 0-.001-3.245 1.623 1.623 0 0 0 .001 3.245Zm0 11.904a1.623 1.623 0 1 0-.001-3.245 1.623 1.623 0 0 0 .001 3.245Zm0 11.904a1.623 1.623 0 1 0-.001-3.245 1.623 1.623 0 0 0 .001 3.245Zm0 11.904a1.623 1.623 0 1 0-.001-3.245 1.623 1.623 0 0 0 .001 3.245Zm11.897-71.424a1.623 1.623 0 1 0-.001-3.245 1.623 1.623 0 0 0 .001 3.245Zm0 11.904a1.623 1.623 0 1 0-.001-3.246 1.623 1.623 0 0 0 .001 3.245Zm0 11.903a1.623 1.623 0 1 0-.001-3.245 1.623 1.623 0 0 0 .001 3.245Zm0 11.905a1.623 1.623 0 1 0-.001-3.245 1.623 1.623 0 0 0 .001 3.245Zm0 11.904a1.623 1.623 0 1 0-.001-3.245 1.623 1.623 0 0 0 .001 3.245Zm0 11.904a1.623 1.623 0 1 0-.001-3.245 1.623 1.623 0 0 0 .001 3.245Zm0 11.904a1.623 1.623 0 1 0-.001-3.245 1.623 1.623 0 0 0 .001 3.245Zm11.896-71.424a1.623 1.623 0 1 0-.001-3.245 1.623 1.623 0 0 0 .001 3.245Zm0 11.904a1.623 1.623 0 1 0-.001-3.246 1.623 1.623 0 0 0 .001 3.245Zm0 11.903a1.623 1.623 0 1 0-.001-3.245 1.623 1.623 0 0 0 .001 3.245Zm0 11.905a1.623 1.623 0 1 0-.001-3.245 1.623 1.623 0 0 0 .001 3.245Zm0 11.904a1.623 1.623 0 1 0-.001-3.245 1.623 1.623 0 0 0 .001 3.245Zm0 11.904a1.623 1.623 0 1 0-.001-3.245 1.623 1.623 0 0 0 .001 3.245Zm0 11.904a1.623 1.623 0 1 0-.001-3.245 1.623 1.623 0 0 0 .001 3.245Zm11.897-71.424a1.623 1.623 0 1 0-.001-3.245 1.623 1.623 0 0 0 .001 3.245Zm0 11.904a1.623 1.623 0 1 0-.001-3.246 1.623 1.623 0 0 0 .001 3.245Zm0 11.903a1.623 1.623 0 1 0-.001-3.245 1.623 1.623 0 0 0 .001 3.245Zm0 11.905a1.623 1.623 0 1 0-.001-3.245 1.623 1.623 0 0 0 .001 3.245Zm0 11.904a1.623 1.623 0 1 0-.001-3.245 1.623 1.623 0 0 0 .001 3.245Zm0 11.904a1.623 1.623 0 1 0-.001-3.245 1.623 1.623 0 0 0 .001 3.245Zm0 11.904a1.623 1.623 0 1 0-.001-3.245 1.623 1.623 0 0 0 .001 3.245Zm11.896-71.424a1.623 1.623 0 1 0-.001-3.245 1.623 1.623 0 0 0 .001 3.245Zm0 11.904a1.623 1.623 0 1 0-.001-3.246 1.623 1.623 0 0 0 .001 3.245Zm0 11.903a1.623 1.623 0 1 0-.001-3.245 1.623 1.623 0 0 0 .001 3.245Zm0 11.905a1.623 1.623 0 1 0-.001-3.245 1.623 1.623 0 0 0 .001 3.245Zm0 11.904a1.623 1.623 0 1 0-.001-3.245 1.623 1.623 0 0 0 .001 3.245Zm0 11.904a1.623 1.623 0 1 0-.001-3.245 1.623 1.623 0 0 0 .001 3.245Zm0 11.904a1.623 1.623 0 1 0-.001-3.245 1.623 1.623 0 0 0 .001 3.245Z"/></g><defs><clipPath id="a"><path fill="#fff" d="M0 0h491v126H0z"/></clipPath></defs></svg>