<svg width="491" height="90" fill="none" xmlns="http://www.w3.org/2000/svg"><g opacity=".6" clip-path="url(#a)" fill="#C4C4C4"><path d="M1.622 6.671a1.623 1.623 0 1 0 0-3.245 1.623 1.623 0 0 0 0 3.245Zm11.897 0a1.623 1.623 0 1 0-.001-3.245 1.623 1.623 0 0 0 0 3.245Zm11.896 0a1.623 1.623 0 1 0 0-3.245 1.623 1.623 0 0 0 0 3.245Zm11.897 0a1.623 1.623 0 1 0-.001-3.245 1.623 1.623 0 0 0 0 3.245Zm11.896 0a1.623 1.623 0 1 0 0-3.245 1.623 1.623 0 0 0 0 3.245Zm11.897 0a1.623 1.623 0 1 0-.001-3.245 1.623 1.623 0 0 0 0 3.245Zm11.896 0a1.623 1.623 0 1 0 0-3.245 1.623 1.623 0 0 0 0 3.245Zm11.897 0a1.623 1.623 0 1 0-.001-3.245 1.623 1.623 0 0 0 0 3.245Zm11.896 0a1.623 1.623 0 1 0 0-3.245 1.623 1.623 0 0 0 0 3.245Zm11.897 0a1.623 1.623 0 1 0-.001-3.245 1.623 1.623 0 0 0 .001 3.245Zm11.896 0a1.623 1.623 0 1 0-.001-3.245 1.623 1.623 0 0 0 .001 3.245Zm11.897 0a1.623 1.623 0 1 0-.001-3.245 1.623 1.623 0 0 0 .001 3.245Zm11.896 0a1.623 1.623 0 1 0-.001-3.245 1.623 1.623 0 0 0 .001 3.245Zm11.897 0a1.623 1.623 0 1 0-.002-3.246 1.623 1.623 0 0 0 .002 3.246Zm11.896 0a1.623 1.623 0 1 0-.001-3.245 1.623 1.623 0 0 0 .001 3.245Zm11.897 0a1.623 1.623 0 1 0-.002-3.246 1.623 1.623 0 0 0 .002 3.246Zm11.896 0a1.623 1.623 0 1 0-.001-3.245 1.623 1.623 0 0 0 .001 3.245Zm11.896 0a1.623 1.623 0 1 0 0-3.247 1.623 1.623 0 0 0 0 3.247Zm11.897 0a1.623 1.623 0 1 0-.001-3.245 1.623 1.623 0 0 0 .001 3.245Zm11.896 0a1.623 1.623 0 1 0 0-3.247 1.623 1.623 0 0 0 0 3.247Zm11.897 0a1.623 1.623 0 1 0-.001-3.245 1.623 1.623 0 0 0 .001 3.245Zm11.896 0a1.623 1.623 0 1 0 0-3.247 1.623 1.623 0 0 0 0 3.247Zm11.897 0a1.623 1.623 0 1 0-.001-3.245 1.623 1.623 0 0 0 .001 3.245Zm11.896 0a1.623 1.623 0 1 0 0-3.247 1.623 1.623 0 0 0 0 3.247Zm11.897 0a1.623 1.623 0 1 0-.001-3.245 1.623 1.623 0 0 0 .001 3.245Zm11.896 0a1.623 1.623 0 1 0 0-3.247 1.623 1.623 0 0 0 0 3.247Zm11.897 0a1.623 1.623 0 1 0-.001-3.245 1.623 1.623 0 0 0 .001 3.245Zm11.896 0a1.623 1.623 0 1 0 0-3.247 1.623 1.623 0 0 0 0 3.247ZM1.622 18.575a1.623 1.623 0 1 0 0-3.245 1.623 1.623 0 0 0 0 3.245Zm0 11.905a1.623 1.623 0 1 0 0-3.246 1.623 1.623 0 0 0 0 3.245Zm0 11.903a1.623 1.623 0 1 0 0-3.245 1.623 1.623 0 0 0 0 3.245Zm0 11.905a1.623 1.623 0 1 0 0-3.246 1.623 1.623 0 0 0 0 3.246Zm0 11.904a1.623 1.623 0 1 0 0-3.246 1.623 1.623 0 0 0 0 3.246Zm0 11.904a1.623 1.623 0 1 0 0-3.245 1.623 1.623 0 0 0 0 3.245Zm0 11.904a1.623 1.623 0 1 0 0-3.246 1.623 1.623 0 0 0 0 3.246Zm11.897-71.425a1.623 1.623 0 1 0-.001-3.245 1.623 1.623 0 0 0 0 3.245Zm0 11.905a1.623 1.623 0 1 0-.001-3.246 1.623 1.623 0 0 0 0 3.245Zm0 11.903a1.623 1.623 0 1 0-.001-3.245 1.623 1.623 0 0 0 0 3.245Zm0 11.905a1.623 1.623 0 1 0-.001-3.246 1.623 1.623 0 0 0 0 3.246Zm0 11.904a1.623 1.623 0 1 0-.001-3.246 1.623 1.623 0 0 0 0 3.246Zm0 11.904a1.623 1.623 0 1 0-.001-3.246 1.623 1.623 0 0 0 0 3.246Zm0 11.904a1.623 1.623 0 1 0-.001-3.246 1.623 1.623 0 0 0 0 3.246Zm11.896-71.425a1.623 1.623 0 1 0 0-3.245 1.623 1.623 0 0 0 0 3.245Zm0 11.905a1.623 1.623 0 1 0 0-3.246 1.623 1.623 0 0 0 0 3.245Zm0 11.903a1.623 1.623 0 1 0 0-3.245 1.623 1.623 0 0 0 0 3.245Zm0 11.905a1.623 1.623 0 1 0 0-3.246 1.623 1.623 0 0 0 0 3.246Zm0 11.904a1.623 1.623 0 1 0 0-3.246 1.623 1.623 0 0 0 0 3.246Zm0 11.904a1.623 1.623 0 1 0 0-3.246 1.623 1.623 0 0 0 0 3.246Zm0 11.904a1.623 1.623 0 1 0 0-3.246 1.623 1.623 0 0 0 0 3.246Zm11.897-71.425a1.623 1.623 0 1 0-.001-3.245 1.623 1.623 0 0 0 0 3.245Zm0 11.905a1.623 1.623 0 1 0-.001-3.246 1.623 1.623 0 0 0 0 3.245Zm0 11.903a1.623 1.623 0 1 0-.001-3.245 1.623 1.623 0 0 0 0 3.245Zm0 11.905a1.623 1.623 0 1 0-.001-3.246 1.623 1.623 0 0 0 0 3.246Zm0 11.904a1.623 1.623 0 1 0-.001-3.246 1.623 1.623 0 0 0 0 3.246Zm0 11.904a1.623 1.623 0 1 0-.001-3.245 1.623 1.623 0 0 0 0 3.245Zm0 11.904a1.623 1.623 0 1 0-.001-3.246 1.623 1.623 0 0 0 0 3.246Zm11.896-71.425a1.623 1.623 0 1 0 0-3.245 1.623 1.623 0 0 0 0 3.245Zm0 11.905a1.623 1.623 0 1 0-.001-3.246 1.623 1.623 0 0 0 .001 3.245Zm0 11.903a1.623 1.623 0 1 0 0-3.245 1.623 1.623 0 0 0 0 3.245Zm0 11.905a1.623 1.623 0 1 0-.001-3.246 1.623 1.623 0 0 0 .001 3.246Zm0 11.904a1.623 1.623 0 1 0-.001-3.246 1.623 1.623 0 0 0 .001 3.246Zm0 11.904a1.623 1.623 0 1 0 0-3.245 1.623 1.623 0 0 0 0 3.245Zm0 11.904a1.623 1.623 0 1 0-.001-3.246A1.623 1.623 0 0 0 49.208 90Zm11.897-71.425a1.623 1.623 0 1 0-.001-3.245 1.623 1.623 0 0 0 0 3.245Zm0 11.905a1.623 1.623 0 1 0-.001-3.246 1.623 1.623 0 0 0 0 3.245Zm0 11.903a1.623 1.623 0 1 0-.001-3.245 1.623 1.623 0 0 0 0 3.245Zm0 11.905a1.623 1.623 0 1 0-.001-3.246 1.623 1.623 0 0 0 0 3.246Zm0 11.904a1.623 1.623 0 1 0-.001-3.246 1.623 1.623 0 0 0 0 3.246Zm0 11.904a1.623 1.623 0 1 0-.001-3.245 1.623 1.623 0 0 0 0 3.245Zm0 11.904a1.623 1.623 0 1 0-.001-3.246 1.623 1.623 0 0 0 0 3.246Zm11.896-71.425a1.623 1.623 0 1 0 0-3.245 1.623 1.623 0 0 0 0 3.245Zm0 11.905A1.623 1.623 0 1 0 73 27.234a1.623 1.623 0 0 0 .001 3.245Zm0 11.903a1.623 1.623 0 1 0 0-3.245 1.623 1.623 0 0 0 0 3.245Zm0 11.905A1.623 1.623 0 1 0 73 51.042a1.623 1.623 0 0 0 .001 3.246Zm0 11.904A1.623 1.623 0 1 0 73 62.946a1.623 1.623 0 0 0 .001 3.246Zm0 11.904a1.623 1.623 0 1 0 0-3.245 1.623 1.623 0 0 0 0 3.245Zm0 11.904A1.623 1.623 0 1 0 73 86.754 1.623 1.623 0 0 0 73.001 90Zm11.897-71.425a1.623 1.623 0 1 0-.001-3.245 1.623 1.623 0 0 0 0 3.245Zm0 11.905a1.623 1.623 0 1 0-.001-3.246 1.623 1.623 0 0 0 0 3.245Zm0 11.903a1.623 1.623 0 1 0-.001-3.245 1.623 1.623 0 0 0 0 3.245Zm0 11.905a1.623 1.623 0 1 0-.001-3.246 1.623 1.623 0 0 0 0 3.246Zm0 11.904a1.623 1.623 0 1 0-.001-3.246 1.623 1.623 0 0 0 0 3.246Zm0 11.904a1.623 1.623 0 1 0-.001-3.246 1.623 1.623 0 0 0 0 3.246Zm0 11.904a1.623 1.623 0 1 0-.001-3.246 1.623 1.623 0 0 0 0 3.246Zm11.896-71.425a1.623 1.623 0 1 0 0-3.245 1.623 1.623 0 0 0 0 3.245Zm0 11.905a1.623 1.623 0 1 0 0-3.246 1.623 1.623 0 0 0 0 3.245Zm0 11.903a1.623 1.623 0 1 0 0-3.245 1.623 1.623 0 0 0 0 3.245Zm0 11.905a1.623 1.623 0 1 0 0-3.246 1.623 1.623 0 0 0 0 3.246Zm0 11.904a1.623 1.623 0 1 0 0-3.246 1.623 1.623 0 0 0 0 3.246Zm0 11.904a1.623 1.623 0 1 0 0-3.246 1.623 1.623 0 0 0 0 3.246Zm0 11.904a1.623 1.623 0 1 0 0-3.246 1.623 1.623 0 0 0 0 3.246Zm11.897-71.425a1.622 1.622 0 1 0-.001-3.245 1.622 1.622 0 0 0 .001 3.245Zm0 11.905a1.623 1.623 0 1 0-.001-3.246 1.623 1.623 0 0 0 .001 3.245Zm0 11.903a1.622 1.622 0 1 0 0-3.244 1.622 1.622 0 0 0 0 3.244Zm0 11.905a1.623 1.623 0 1 0-.001-3.245 1.623 1.623 0 0 0 .001 3.245Zm0 11.904a1.623 1.623 0 1 0-.001-3.245 1.623 1.623 0 0 0 .001 3.245Zm0 11.904a1.622 1.622 0 1 0 0-3.245 1.622 1.622 0 0 0 0 3.245Zm0 11.904a1.623 1.623 0 1 0-.001-3.245 1.623 1.623 0 0 0 0 3.245Zm11.896-71.425a1.622 1.622 0 1 0-.001-3.245 1.622 1.622 0 0 0 .001 3.245Zm0 11.905a1.623 1.623 0 1 0-.001-3.246 1.623 1.623 0 0 0 .001 3.245Zm0 11.903a1.622 1.622 0 1 0 0-3.244 1.622 1.622 0 0 0 0 3.244Zm0 11.905a1.623 1.623 0 1 0-.001-3.245 1.623 1.623 0 0 0 .001 3.245Zm0 11.904a1.623 1.623 0 1 0-.001-3.245 1.623 1.623 0 0 0 .001 3.245Zm0 11.904a1.622 1.622 0 1 0 0-3.245 1.622 1.622 0 0 0 0 3.245Zm0 11.904a1.623 1.623 0 1 0-.001-3.245 1.623 1.623 0 0 0 .001 3.245Zm11.897-71.425a1.622 1.622 0 1 0-.001-3.245 1.622 1.622 0 0 0 .001 3.245Zm0 11.905a1.623 1.623 0 1 0-.001-3.246 1.623 1.623 0 0 0 .001 3.245Zm0 11.903a1.622 1.622 0 1 0 0-3.244 1.622 1.622 0 0 0 0 3.244Zm0 11.905a1.623 1.623 0 1 0-.001-3.245 1.623 1.623 0 0 0 .001 3.245Zm0 11.904a1.623 1.623 0 1 0-.001-3.245 1.623 1.623 0 0 0 .001 3.245Zm0 11.904a1.622 1.622 0 1 0 0-3.245 1.622 1.622 0 0 0 0 3.245Zm0 11.904a1.623 1.623 0 1 0-.001-3.245 1.623 1.623 0 0 0 .001 3.245Zm11.896-71.425a1.622 1.622 0 1 0-.001-3.245 1.622 1.622 0 0 0 .001 3.245Zm0 11.905a1.623 1.623 0 1 0-.001-3.246 1.623 1.623 0 0 0 .001 3.245Zm0 11.903a1.622 1.622 0 1 0 0-3.244 1.622 1.622 0 0 0 0 3.244Zm0 11.905a1.623 1.623 0 1 0-.001-3.245 1.623 1.623 0 0 0 .001 3.245Zm0 11.904a1.623 1.623 0 1 0-.001-3.245 1.623 1.623 0 0 0 .001 3.245Zm0 11.904a1.622 1.622 0 1 0 0-3.245 1.622 1.622 0 0 0 0 3.245Zm0 11.904a1.623 1.623 0 1 0-.001-3.245A1.623 1.623 0 0 0 144.38 90Zm11.897-71.425a1.623 1.623 0 1 0-.002-3.246 1.623 1.623 0 0 0 .002 3.246Zm0 11.905a1.623 1.623 0 1 0-.002-3.247 1.623 1.623 0 0 0 .002 3.247Zm0 11.903a1.623 1.623 0 1 0-.002-3.246 1.623 1.623 0 0 0 .002 3.246Zm0 11.905a1.623 1.623 0 1 0-.002-3.247 1.623 1.623 0 0 0 .002 3.247Zm0 11.904a1.623 1.623 0 1 0-.002-3.246 1.623 1.623 0 0 0 .002 3.246Zm0 11.904a1.623 1.623 0 1 0-.002-3.246 1.623 1.623 0 0 0 .002 3.246Zm0 11.904a1.623 1.623 0 1 0-.002-3.246 1.623 1.623 0 0 0 .002 3.246Zm11.896-71.425a1.622 1.622 0 1 0-.001-3.245 1.622 1.622 0 0 0 .001 3.245Zm0 11.905a1.623 1.623 0 1 0-.001-3.246 1.623 1.623 0 0 0 .001 3.245Zm0 11.903a1.622 1.622 0 1 0 0-3.244 1.622 1.622 0 0 0 0 3.244Zm0 11.905a1.623 1.623 0 1 0-.001-3.245 1.623 1.623 0 0 0 .001 3.245Zm0 11.904a1.623 1.623 0 1 0-.001-3.245 1.623 1.623 0 0 0 .001 3.245Zm0 11.904a1.622 1.622 0 1 0 0-3.245 1.622 1.622 0 0 0 0 3.245Zm0 11.904a1.623 1.623 0 1 0-.001-3.245 1.623 1.623 0 0 0 .001 3.245Zm11.897-71.425a1.623 1.623 0 1 0-.002-3.246 1.623 1.623 0 0 0 .002 3.246Zm0 11.905a1.623 1.623 0 1 0-.002-3.247 1.623 1.623 0 0 0 .002 3.247Zm0 11.903a1.623 1.623 0 1 0-.002-3.246 1.623 1.623 0 0 0 .002 3.246Zm0 11.905a1.623 1.623 0 1 0-.002-3.247 1.623 1.623 0 0 0 .002 3.247Zm0 11.904a1.623 1.623 0 1 0-.002-3.246 1.623 1.623 0 0 0 .002 3.246Zm0 11.904a1.623 1.623 0 1 0-.002-3.246 1.623 1.623 0 0 0 .002 3.246Zm0 11.904a1.623 1.623 0 1 0-.002-3.246A1.623 1.623 0 0 0 180.07 90Zm11.896-71.425a1.622 1.622 0 1 0-.001-3.245 1.622 1.622 0 0 0 .001 3.245Zm0 11.905a1.623 1.623 0 1 0-.001-3.246 1.623 1.623 0 0 0 .001 3.245Zm0 11.903a1.622 1.622 0 1 0 0-3.244 1.622 1.622 0 0 0 0 3.244Zm0 11.905a1.623 1.623 0 1 0-.001-3.245 1.623 1.623 0 0 0 .001 3.245Zm0 11.904a1.623 1.623 0 1 0-.001-3.245 1.623 1.623 0 0 0 .001 3.245Zm0 11.904a1.622 1.622 0 1 0 0-3.245 1.622 1.622 0 0 0 0 3.245Zm0 11.904a1.623 1.623 0 1 0-.001-3.245 1.623 1.623 0 0 0 .001 3.245Zm11.896-71.425a1.623 1.623 0 1 0 0-3.246 1.623 1.623 0 0 0 0 3.246Zm0 11.905a1.623 1.623 0 1 0 0-3.247 1.623 1.623 0 0 0 0 3.247Zm0 11.903a1.623 1.623 0 1 0 0-3.246 1.623 1.623 0 0 0 0 3.246Zm0 11.905a1.623 1.623 0 1 0 0-3.247 1.623 1.623 0 0 0 0 3.247Zm0 11.904a1.623 1.623 0 1 0 0-3.247 1.623 1.623 0 0 0 0 3.247Zm0 11.904a1.623 1.623 0 1 0 0-3.247 1.623 1.623 0 0 0 0 3.247Zm0 11.904a1.623 1.623 0 1 0 0-3.247 1.623 1.623 0 0 0 0 3.247Zm11.897-71.425a1.622 1.622 0 1 0-.001-3.245 1.622 1.622 0 0 0 .001 3.245Zm0 11.905a1.623 1.623 0 1 0-.001-3.246 1.623 1.623 0 0 0 .001 3.245Zm0 11.903a1.622 1.622 0 1 0 0-3.244 1.622 1.622 0 0 0 0 3.244Zm0 11.905a1.623 1.623 0 1 0-.001-3.245 1.623 1.623 0 0 0 .001 3.245Zm0 11.904a1.623 1.623 0 1 0-.001-3.245 1.623 1.623 0 0 0 .001 3.245Zm0 11.904a1.622 1.622 0 1 0 0-3.245 1.622 1.622 0 0 0 0 3.245Zm0 11.904a1.623 1.623 0 1 0-.001-3.245 1.623 1.623 0 0 0 .001 3.245Zm11.896-71.425a1.623 1.623 0 1 0 0-3.246 1.623 1.623 0 0 0 0 3.246Zm0 11.905a1.623 1.623 0 1 0 0-3.247 1.623 1.623 0 0 0 0 3.247Zm0 11.903a1.623 1.623 0 1 0 0-3.246 1.623 1.623 0 0 0 0 3.246Zm0 11.905a1.623 1.623 0 1 0 0-3.247 1.623 1.623 0 0 0 0 3.247Zm0 11.904a1.623 1.623 0 1 0 0-3.247 1.623 1.623 0 0 0 0 3.247Zm0 11.904a1.623 1.623 0 1 0 0-3.247 1.623 1.623 0 0 0 0 3.247Zm0 11.904a1.623 1.623 0 1 0 0-3.247 1.623 1.623 0 0 0 0 3.247Zm11.897-71.425a1.622 1.622 0 1 0-.001-3.245 1.622 1.622 0 0 0 .001 3.245Zm0 11.905a1.623 1.623 0 1 0-.001-3.246 1.623 1.623 0 0 0 .001 3.245Zm0 11.903a1.622 1.622 0 1 0 0-3.244 1.622 1.622 0 0 0 0 3.244Zm0 11.905a1.623 1.623 0 1 0-.001-3.245 1.623 1.623 0 0 0 .001 3.245Zm0 11.904a1.623 1.623 0 1 0-.001-3.245 1.623 1.623 0 0 0 .001 3.245Zm0 11.904a1.622 1.622 0 1 0 0-3.245 1.622 1.622 0 0 0 0 3.245Zm0 11.904a1.623 1.623 0 1 0-.001-3.245 1.623 1.623 0 0 0 .001 3.245Zm11.896-71.425a1.623 1.623 0 1 0 0-3.246 1.623 1.623 0 0 0 0 3.246Zm0 11.905a1.623 1.623 0 1 0 0-3.247 1.623 1.623 0 0 0 0 3.247Zm0 11.903a1.623 1.623 0 1 0 0-3.246 1.623 1.623 0 0 0 0 3.246Zm0 11.905a1.623 1.623 0 1 0 0-3.247 1.623 1.623 0 0 0 0 3.247Zm0 11.904a1.623 1.623 0 1 0 0-3.247 1.623 1.623 0 0 0 0 3.247Zm0 11.904a1.623 1.623 0 1 0 0-3.247 1.623 1.623 0 0 0 0 3.247Zm0 11.904a1.623 1.623 0 1 0 0-3.247 1.623 1.623 0 0 0 0 3.247Zm11.897-71.425a1.622 1.622 0 1 0-.001-3.245 1.622 1.622 0 0 0 .001 3.245Zm0 11.905a1.623 1.623 0 1 0-.001-3.246 1.623 1.623 0 0 0 .001 3.245Zm0 11.903a1.622 1.622 0 1 0 0-3.244 1.622 1.622 0 0 0 0 3.244Zm0 11.905a1.623 1.623 0 1 0-.001-3.245 1.623 1.623 0 0 0 .001 3.245Zm0 11.904a1.623 1.623 0 1 0-.001-3.245 1.623 1.623 0 0 0 .001 3.245Zm0 11.904a1.622 1.622 0 1 0 0-3.245 1.622 1.622 0 0 0 0 3.245Zm0 11.904a1.623 1.623 0 1 0-.001-3.245 1.623 1.623 0 0 0 .001 3.245Zm11.896-71.425a1.623 1.623 0 1 0 0-3.246 1.623 1.623 0 0 0 0 3.246Zm0 11.905a1.623 1.623 0 1 0 0-3.247 1.623 1.623 0 0 0 0 3.247Zm0 11.903a1.623 1.623 0 1 0 0-3.246 1.623 1.623 0 0 0 0 3.246Zm0 11.905a1.623 1.623 0 1 0 0-3.247 1.623 1.623 0 0 0 0 3.247Zm0 11.904a1.623 1.623 0 1 0 0-3.247 1.623 1.623 0 0 0 0 3.247Zm0 11.904a1.623 1.623 0 1 0 0-3.247 1.623 1.623 0 0 0 0 3.247Zm0 11.904a1.623 1.623 0 1 0 0-3.247 1.623 1.623 0 0 0 0 3.247Zm11.897-71.425a1.622 1.622 0 1 0-.001-3.245 1.622 1.622 0 0 0 .001 3.245Zm0 11.905a1.623 1.623 0 1 0-.001-3.246 1.623 1.623 0 0 0 .001 3.245Zm0 11.903a1.622 1.622 0 1 0 0-3.244 1.622 1.622 0 0 0 0 3.244Zm0 11.905a1.623 1.623 0 1 0-.001-3.245 1.623 1.623 0 0 0 .001 3.245Zm0 11.904a1.623 1.623 0 1 0-.001-3.245 1.623 1.623 0 0 0 .001 3.245Zm0 11.904a1.622 1.622 0 1 0 0-3.245 1.622 1.622 0 0 0 0 3.245Zm0 11.904a1.623 1.623 0 1 0-.001-3.245 1.623 1.623 0 0 0 .001 3.245Zm11.896-71.425a1.623 1.623 0 1 0 0-3.246 1.623 1.623 0 0 0 0 3.246Zm0 11.905a1.623 1.623 0 1 0 0-3.247 1.623 1.623 0 0 0 0 3.247Zm0 11.903a1.623 1.623 0 1 0 0-3.246 1.623 1.623 0 0 0 0 3.246Zm0 11.905a1.623 1.623 0 1 0 0-3.247 1.623 1.623 0 0 0 0 3.247Zm0 11.904a1.623 1.623 0 1 0 0-3.247 1.623 1.623 0 0 0 0 3.247Zm0 11.904a1.623 1.623 0 1 0 0-3.247 1.623 1.623 0 0 0 0 3.247Zm0 11.904a1.623 1.623 0 1 0 0-3.247 1.623 1.623 0 0 0 0 3.247Zm11.897-71.425a1.622 1.622 0 1 0-.001-3.245 1.622 1.622 0 0 0 .001 3.245Zm0 11.905a1.623 1.623 0 1 0-.001-3.246 1.623 1.623 0 0 0 .001 3.245Zm0 11.903a1.622 1.622 0 1 0 0-3.244 1.622 1.622 0 0 0 0 3.244Zm0 11.905a1.623 1.623 0 1 0-.001-3.245 1.623 1.623 0 0 0 .001 3.245Zm0 11.904a1.623 1.623 0 1 0-.001-3.245 1.623 1.623 0 0 0 .001 3.245Zm0 11.904a1.622 1.622 0 1 0 0-3.245 1.622 1.622 0 0 0 0 3.245Zm0 11.904a1.623 1.623 0 1 0-.001-3.245 1.623 1.623 0 0 0 0 3.245Zm11.896-71.425a1.623 1.623 0 1 0 0-3.246 1.623 1.623 0 0 0 0 3.246Zm0 11.905a1.623 1.623 0 1 0 0-3.247 1.623 1.623 0 0 0 0 3.247Zm0 11.903a1.623 1.623 0 1 0 0-3.246 1.623 1.623 0 0 0 0 3.246Zm0 11.905a1.623 1.623 0 1 0 0-3.247 1.623 1.623 0 0 0 0 3.247Zm0 11.904a1.623 1.623 0 1 0 0-3.247 1.623 1.623 0 0 0 0 3.247Zm0 11.904a1.623 1.623 0 1 0 0-3.247 1.623 1.623 0 0 0 0 3.247Zm0 11.904a1.623 1.623 0 1 0 0-3.247 1.623 1.623 0 0 0 0 3.247Zm11.897-83.329a1.623 1.623 0 1 0-.001-3.245 1.623 1.623 0 0 0 .001 3.245Zm11.896 0a1.623 1.623 0 1 0 0-3.247 1.623 1.623 0 0 0 0 3.247Zm11.897 0a1.623 1.623 0 1 0-.001-3.245 1.623 1.623 0 0 0 .001 3.245Zm11.896 0a1.623 1.623 0 1 0 0-3.247 1.623 1.623 0 0 0 0 3.247Zm11.897 0a1.623 1.623 0 1 0-.001-3.245 1.623 1.623 0 0 0 .001 3.245Zm11.896 0a1.623 1.623 0 1 0-.001-3.245 1.623 1.623 0 0 0 .001 3.245Zm11.897 0a1.623 1.623 0 1 0-.001-3.245 1.623 1.623 0 0 0 .001 3.245Zm11.896 0a1.623 1.623 0 1 0-.001-3.245 1.623 1.623 0 0 0 .001 3.245Zm11.897 0a1.623 1.623 0 1 0-.001-3.245 1.623 1.623 0 0 0 .001 3.245Zm11.896 0a1.623 1.623 0 1 0-.001-3.245 1.623 1.623 0 0 0 .001 3.245Zm11.896 0a1.623 1.623 0 1 0-.001-3.245 1.623 1.623 0 0 0 .001 3.245Zm11.897 0a1.623 1.623 0 1 0-.001-3.245 1.623 1.623 0 0 0 .001 3.245Zm11.897 0a1.623 1.623 0 1 0-.001-3.245 1.623 1.623 0 0 0 .001 3.245Zm11.896 0a1.623 1.623 0 1 0-.001-3.245 1.623 1.623 0 0 0 .001 3.245ZM334.724 18.575a1.622 1.622 0 1 0-.001-3.245 1.622 1.622 0 0 0 .001 3.245Zm0 11.905a1.623 1.623 0 1 0-.001-3.246 1.623 1.623 0 0 0 .001 3.245Zm0 11.903a1.622 1.622 0 1 0 0-3.244 1.622 1.622 0 0 0 0 3.244Zm0 11.905a1.623 1.623 0 1 0-.001-3.245 1.623 1.623 0 0 0 .001 3.245Zm0 11.904a1.623 1.623 0 1 0-.001-3.245 1.623 1.623 0 0 0 .001 3.245Zm0 11.904a1.622 1.622 0 1 0 0-3.245 1.622 1.622 0 0 0 0 3.245Zm0 11.904a1.623 1.623 0 1 0-.001-3.245 1.623 1.623 0 0 0 .001 3.245Zm11.896-71.425a1.623 1.623 0 1 0 0-3.246 1.623 1.623 0 0 0 0 3.246Zm0 11.905a1.623 1.623 0 1 0 0-3.247 1.623 1.623 0 0 0 0 3.247Zm0 11.903a1.623 1.623 0 1 0 0-3.246 1.623 1.623 0 0 0 0 3.246Zm0 11.905a1.623 1.623 0 1 0 0-3.247 1.623 1.623 0 0 0 0 3.247Zm0 11.904a1.623 1.623 0 1 0 0-3.247 1.623 1.623 0 0 0 0 3.247Zm0 11.904a1.623 1.623 0 1 0 0-3.247 1.623 1.623 0 0 0 0 3.247Zm0 11.904a1.623 1.623 0 1 0 0-3.247 1.623 1.623 0 0 0 0 3.247Zm11.897-71.425a1.622 1.622 0 1 0-.001-3.245 1.622 1.622 0 0 0 .001 3.245Zm0 11.905a1.623 1.623 0 1 0-.001-3.246 1.623 1.623 0 0 0 .001 3.245Zm0 11.903a1.622 1.622 0 1 0 0-3.244 1.622 1.622 0 0 0 0 3.244Zm0 11.905a1.623 1.623 0 1 0-.001-3.245 1.623 1.623 0 0 0 .001 3.245Zm0 11.904a1.623 1.623 0 1 0-.001-3.245 1.623 1.623 0 0 0 .001 3.245Zm0 11.904a1.622 1.622 0 1 0 0-3.245 1.622 1.622 0 0 0 0 3.245Zm0 11.904a1.623 1.623 0 1 0-.001-3.245 1.623 1.623 0 0 0 .001 3.245Zm11.896-71.425a1.623 1.623 0 1 0 0-3.246 1.623 1.623 0 0 0 0 3.246Zm0 11.905a1.623 1.623 0 1 0 0-3.247 1.623 1.623 0 0 0 0 3.247Zm0 11.903a1.623 1.623 0 1 0 0-3.246 1.623 1.623 0 0 0 0 3.246Zm0 11.905a1.623 1.623 0 1 0 0-3.247 1.623 1.623 0 0 0 0 3.247Zm0 11.904a1.623 1.623 0 1 0 0-3.247 1.623 1.623 0 0 0 0 3.247Zm0 11.904a1.623 1.623 0 1 0 0-3.247 1.623 1.623 0 0 0 0 3.247Zm0 11.904a1.623 1.623 0 1 0 0-3.247 1.623 1.623 0 0 0 0 3.247Zm11.897-71.425a1.622 1.622 0 1 0-.001-3.245 1.622 1.622 0 0 0 .001 3.245Zm0 11.905a1.623 1.623 0 1 0-.001-3.246 1.623 1.623 0 0 0 .001 3.245Zm0 11.903a1.622 1.622 0 1 0 0-3.244 1.622 1.622 0 0 0 0 3.244Zm0 11.905a1.623 1.623 0 1 0-.001-3.245 1.623 1.623 0 0 0 .001 3.245Zm0 11.904a1.623 1.623 0 1 0-.001-3.245 1.623 1.623 0 0 0 .001 3.245Zm0 11.904a1.622 1.622 0 1 0 0-3.245 1.622 1.622 0 0 0 0 3.245Zm0 11.904a1.623 1.623 0 1 0-.001-3.245A1.623 1.623 0 0 0 382.31 90Zm11.896-71.425a1.622 1.622 0 1 0-.001-3.245 1.622 1.622 0 0 0 .001 3.245Zm0 11.905a1.623 1.623 0 1 0-.001-3.246 1.623 1.623 0 0 0 .001 3.245Zm0 11.903a1.622 1.622 0 1 0 0-3.244 1.622 1.622 0 0 0 0 3.244Zm0 11.905a1.623 1.623 0 1 0-.001-3.245 1.623 1.623 0 0 0 .001 3.245Zm0 11.904a1.623 1.623 0 1 0-.001-3.245 1.623 1.623 0 0 0 .001 3.245Zm0 11.904a1.622 1.622 0 1 0 0-3.245 1.622 1.622 0 0 0 0 3.245Zm0 11.904a1.623 1.623 0 1 0-.001-3.245 1.623 1.623 0 0 0 .001 3.245Zm11.897-71.425a1.622 1.622 0 1 0-.001-3.245 1.622 1.622 0 0 0 .001 3.245Zm0 11.905a1.623 1.623 0 1 0-.001-3.246 1.623 1.623 0 0 0 .001 3.245Zm0 11.903a1.622 1.622 0 1 0 0-3.244 1.622 1.622 0 0 0 0 3.244Zm0 11.905a1.623 1.623 0 1 0-.001-3.245 1.623 1.623 0 0 0 .001 3.245Zm0 11.904a1.623 1.623 0 1 0-.001-3.245 1.623 1.623 0 0 0 .001 3.245Zm0 11.904a1.622 1.622 0 1 0 0-3.245 1.622 1.622 0 0 0 0 3.245Zm0 11.904a1.623 1.623 0 1 0-.001-3.245 1.623 1.623 0 0 0 .001 3.245Zm11.896-71.425a1.622 1.622 0 1 0-.001-3.245 1.622 1.622 0 0 0 .001 3.245Zm0 11.905a1.623 1.623 0 1 0-.001-3.246 1.623 1.623 0 0 0 .001 3.245Zm0 11.903a1.622 1.622 0 1 0 0-3.244 1.622 1.622 0 0 0 0 3.244Zm0 11.905a1.623 1.623 0 1 0-.001-3.245 1.623 1.623 0 0 0 .001 3.245Zm0 11.904a1.623 1.623 0 1 0-.001-3.245 1.623 1.623 0 0 0 .001 3.245Zm0 11.904a1.622 1.622 0 1 0 0-3.245 1.622 1.622 0 0 0 0 3.245Zm0 11.904a1.623 1.623 0 1 0-.001-3.245 1.623 1.623 0 0 0 .001 3.245Zm11.897-71.425a1.622 1.622 0 1 0-.001-3.245 1.622 1.622 0 0 0 .001 3.245Zm0 11.905a1.623 1.623 0 1 0-.001-3.246 1.623 1.623 0 0 0 .001 3.245Zm0 11.903a1.622 1.622 0 1 0 0-3.244 1.622 1.622 0 0 0 0 3.244Zm0 11.905a1.623 1.623 0 1 0-.001-3.245 1.623 1.623 0 0 0 .001 3.245Zm0 11.904a1.623 1.623 0 1 0-.001-3.245 1.623 1.623 0 0 0 .001 3.245Zm0 11.904a1.622 1.622 0 1 0 0-3.245 1.622 1.622 0 0 0 0 3.245Zm0 11.904a1.623 1.623 0 1 0-.001-3.245 1.623 1.623 0 0 0 .001 3.245Zm11.896-71.425a1.622 1.622 0 1 0-.001-3.245 1.622 1.622 0 0 0 .001 3.245Zm0 11.905a1.623 1.623 0 1 0-.001-3.246 1.623 1.623 0 0 0 .001 3.245Zm0 11.903a1.622 1.622 0 1 0 0-3.244 1.622 1.622 0 0 0 0 3.244Zm0 11.905a1.623 1.623 0 1 0-.001-3.245 1.623 1.623 0 0 0 .001 3.245Zm0 11.904a1.623 1.623 0 1 0-.001-3.245 1.623 1.623 0 0 0 .001 3.245Zm0 11.904a1.622 1.622 0 1 0 0-3.245 1.622 1.622 0 0 0 0 3.245Zm0 11.904a1.623 1.623 0 1 0-.001-3.245 1.623 1.623 0 0 0 .001 3.245Zm11.896-71.425a1.622 1.622 0 1 0-.001-3.245 1.622 1.622 0 0 0 .001 3.245Zm0 11.905a1.623 1.623 0 1 0-.001-3.246 1.623 1.623 0 0 0 .001 3.245Zm0 11.903a1.622 1.622 0 1 0 0-3.244 1.622 1.622 0 0 0 0 3.244Zm0 11.905a1.623 1.623 0 1 0-.001-3.245 1.623 1.623 0 0 0 .001 3.245Zm0 11.904a1.623 1.623 0 1 0-.001-3.245 1.623 1.623 0 0 0 .001 3.245Zm0 11.904a1.622 1.622 0 1 0 0-3.245 1.622 1.622 0 0 0 0 3.245Zm0 11.904a1.623 1.623 0 1 0-.001-3.245 1.623 1.623 0 0 0 .001 3.245Zm11.897-71.425a1.622 1.622 0 1 0-.001-3.245 1.622 1.622 0 0 0 .001 3.245Zm0 11.905a1.623 1.623 0 1 0-.001-3.246 1.623 1.623 0 0 0 .001 3.245Zm0 11.903a1.622 1.622 0 1 0 0-3.244 1.622 1.622 0 0 0 0 3.244Zm0 11.905a1.623 1.623 0 1 0-.001-3.245 1.623 1.623 0 0 0 .001 3.245Zm0 11.904a1.623 1.623 0 1 0-.001-3.245 1.623 1.623 0 0 0 .001 3.245Zm0 11.904a1.622 1.622 0 1 0 0-3.245 1.622 1.622 0 0 0 0 3.245Zm0 11.904a1.623 1.623 0 1 0-.001-3.245 1.623 1.623 0 0 0 .001 3.245Zm11.897-71.425a1.622 1.622 0 1 0-.001-3.245 1.622 1.622 0 0 0 .001 3.245Zm0 11.905a1.623 1.623 0 1 0-.001-3.246 1.623 1.623 0 0 0 .001 3.245Zm0 11.903a1.622 1.622 0 1 0 0-3.244 1.622 1.622 0 0 0 0 3.244Zm0 11.905a1.623 1.623 0 1 0-.001-3.245 1.623 1.623 0 0 0 .001 3.245Zm0 11.904a1.623 1.623 0 1 0-.001-3.245 1.623 1.623 0 0 0 .001 3.245Zm0 11.904a1.622 1.622 0 1 0 0-3.245 1.622 1.622 0 0 0 0 3.245Zm0 11.904a1.623 1.623 0 1 0-.001-3.245 1.623 1.623 0 0 0 .001 3.245Zm11.896-71.425a1.622 1.622 0 1 0-.001-3.245 1.622 1.622 0 0 0 .001 3.245Zm0 11.905a1.623 1.623 0 1 0-.001-3.246 1.623 1.623 0 0 0 .001 3.245Zm0 11.903a1.622 1.622 0 1 0 0-3.244 1.622 1.622 0 0 0 0 3.244Zm0 11.905a1.623 1.623 0 1 0-.001-3.245 1.623 1.623 0 0 0 .001 3.245Zm0 11.904a1.623 1.623 0 1 0-.001-3.245 1.623 1.623 0 0 0 .001 3.245Zm0 11.904a1.622 1.622 0 1 0 0-3.245 1.622 1.622 0 0 0 0 3.245Zm0 11.904a1.623 1.623 0 1 0-.001-3.245 1.623 1.623 0 0 0 .001 3.245Z"/></g><defs><clipPath id="a"><path fill="#fff" d="M0 0h491v90H0z"/></clipPath></defs></svg>