<svg width="346" height="84" fill="none" xmlns="http://www.w3.org/2000/svg"><path d="M0 0h83.2v83.2H0V0Z" fill="#fff"/><path fill-rule="evenodd" clip-rule="evenodd" d="M31.1 29.454h17.8c5.778 0 10.1 4.742 10.1 10.521v3.395h6.735v-3.395c0-9.498-7.338-16.836-16.837-16.836H31.1c-9.506 0-16.836 7.37-16.836 16.861 0 9.49 7.33 16.86 16.837 16.86h33.326l-5.57-6.307H31.102C25.331 50.553 21 45.587 21 40c0-5.587 4.33-10.546 10.101-10.546Z" fill="#000"/><path d="M96.176 35.2H99.9c.653 0 1.218.126 1.694.378.485.243.854.588 1.106 1.036.261.448.392.961.392 1.54 0 .579-.131 1.092-.392 1.54a2.618 2.618 0 0 1-1.106 1.05c-.476.243-1.041.364-1.694.364h-2.268V45h-1.456v-9.8Zm3.682 4.648c.597 0 1.041-.159 1.33-.476.289-.317.434-.723.434-1.218s-.145-.9-.434-1.218c-.289-.317-.733-.476-1.33-.476h-2.226v3.388h2.226Zm7.29-4.648h1.386l3.514 9.8h-1.498l-.84-2.492h-3.738L105.118 45h-1.484l3.514-9.8Zm2.128 6.034-1.428-4.228-1.442 4.228h2.87Zm7.22 3.878c-1.12 0-2.006-.28-2.66-.84-.644-.57-.966-1.353-.966-2.352h1.414c0 .607.178 1.083.532 1.428.364.336.915.504 1.652.504.7 0 1.251-.145 1.652-.434.402-.299.602-.733.602-1.302 0-.532-.172-.933-.518-1.204-.345-.28-.83-.42-1.456-.42h-1.33v-1.288h1.232c1.12 0 1.68-.448 1.68-1.344 0-.485-.154-.859-.462-1.12-.308-.261-.746-.392-1.316-.392-.634 0-1.12.159-1.456.476-.336.308-.499.742-.49 1.302h-1.414c0-.616.14-1.153.42-1.61.28-.457.677-.807 1.19-1.05.523-.252 1.12-.378 1.792-.378.635 0 1.19.112 1.666.336.486.215.859.518 1.12.91.262.392.392.84.392 1.344 0 .495-.121.915-.364 1.26a2.107 2.107 0 0 1-.882.742c.514.177.92.471 1.218.882.299.41.448.924.448 1.54 0 .933-.336 1.67-1.008 2.212-.672.532-1.568.798-2.688.798Zm5.575-9.912h3.724c.653 0 1.218.126 1.694.378.485.243.854.588 1.106 1.036.261.448.392.961.392 1.54 0 .579-.131 1.092-.392 1.54a2.618 2.618 0 0 1-1.106 1.05c-.476.243-1.041.364-1.694.364h-2.268V45h-1.456v-9.8Zm3.682 4.648c.597 0 1.04-.159 1.33-.476.289-.317.434-.723.434-1.218s-.145-.9-.434-1.218c-.29-.317-.733-.476-1.33-.476h-2.226v3.388h2.226Zm7.29-4.648h1.386l3.514 9.8h-1.498l-.84-2.492h-3.738L131.013 45h-1.484l3.514-9.8Zm2.128 6.034-1.428-4.228-1.442 4.228h2.87Zm4.011-6.034h6.51v1.288h-5.068v2.408h2.198c1.074 0 1.928.27 2.562.812.644.532.966 1.274.966 2.226s-.322 1.703-.966 2.254c-.644.541-1.498.812-2.562.812h-3.64v-9.8Zm3.514 8.512c.71 0 1.256-.154 1.638-.462.383-.308.574-.747.574-1.316 0-.57-.191-1.008-.574-1.316-.382-.308-.928-.462-1.638-.462h-2.072v3.556h2.072Zm9.197 1.4c-.84 0-1.582-.21-2.226-.63-.644-.42-1.143-1.008-1.498-1.764s-.532-1.629-.532-2.618c0-.99.177-1.862.532-2.618.355-.756.854-1.344 1.498-1.764.644-.42 1.386-.63 2.226-.63.821 0 1.549.21 2.184.63.635.42 1.125 1.008 1.47 1.764.355.756.532 1.629.532 2.618 0 .99-.177 1.862-.532 2.618-.345.756-.835 1.344-1.47 1.764-.635.42-1.363.63-2.184.63Zm0-1.288c.532 0 1.003-.154 1.414-.462.411-.317.728-.756.952-1.316.224-.56.336-1.209.336-1.946 0-.737-.112-1.386-.336-1.946-.224-.56-.541-.994-.952-1.302a2.25 2.25 0 0 0-1.414-.476 2.33 2.33 0 0 0-1.442.476c-.42.308-.747.742-.98 1.302-.233.56-.35 1.209-.35 1.946 0 .737.117 1.386.35 1.946.233.56.56.999.98 1.316.42.308.901.462 1.442.462Zm8.103-7.336h-3.024V35.2h7.49v1.288h-3.01V45h-1.456v-8.512Zm8.279-1.288h1.386l3.514 9.8h-1.498l-.84-2.492h-3.738L166.245 45h-1.484l3.514-9.8Zm2.128 6.034-1.428-4.228-1.442 4.228h2.87Zm9.864-.63h-4.312V45h-1.456v-9.8h1.456v4.116h4.312V35.2h1.456V45h-1.456v-4.396Zm7.351 4.508c-.84 0-1.582-.21-2.226-.63-.644-.42-1.144-1.008-1.498-1.764-.355-.756-.532-1.629-.532-2.618 0-.99.177-1.862.532-2.618.354-.756.854-1.344 1.498-1.764.644-.42 1.386-.63 2.226-.63.821 0 1.549.21 2.184.63.634.42 1.124 1.008 1.47 1.764.354.756.532 1.629.532 2.618 0 .99-.178 1.862-.532 2.618-.346.756-.836 1.344-1.47 1.764-.635.42-1.363.63-2.184.63Zm0-1.288c.532 0 1.003-.154 1.414-.462.41-.317.728-.756.952-1.316.224-.56.336-1.209.336-1.946 0-.737-.112-1.386-.336-1.946-.224-.56-.542-.994-.952-1.302a2.25 2.25 0 0 0-1.414-.476 2.33 2.33 0 0 0-1.442.476c-.42.308-.747.742-.98 1.302-.234.56-.35 1.209-.35 1.946 0 .737.116 1.386.35 1.946.233.56.56.999.98 1.316.42.308.9.462 1.442.462Zm12.504-8.624h3.556c.924 0 1.656.215 2.198.644.55.43.826 1.013.826 1.75 0 .495-.117.915-.35 1.26a2.13 2.13 0 0 1-.91.784 2.49 2.49 0 0 1 1.26.896c.308.41.462.943.462 1.596 0 .887-.294 1.587-.882 2.1-.588.513-1.391.77-2.408.77h-3.752v-9.8Zm3.556 8.512c.672 0 1.18-.14 1.526-.42.354-.28.532-.686.532-1.218 0-.532-.178-.938-.532-1.218-.346-.28-.854-.42-1.526-.42h-2.114v3.276h2.114Zm-.07-4.55c.55 0 .97-.112 1.26-.336.289-.233.434-.579.434-1.036 0-.448-.145-.789-.434-1.022-.29-.233-.71-.35-1.26-.35h-2.044v2.744h2.044Zm5.5-3.962h6.314v1.288h-4.858v2.814h3.948v1.288h-3.948v3.122h5.012V45h-6.468v-9.8Zm8.196 0h6.51v1.288h-5.068v2.408h2.198c1.073 0 1.927.27 2.562.812.644.532.966 1.274.966 2.226s-.322 1.703-.966 2.254c-.644.541-1.498.812-2.562.812h-3.64v-9.8Zm3.514 8.512c.709 0 1.255-.154 1.638-.462.382-.308.574-.747.574-1.316 0-.57-.192-1.008-.574-1.316-.383-.308-.929-.462-1.638-.462h-2.072v3.556h2.072Zm5.934-3.108h4.382v1.176h-4.382v-1.176Zm10.92 4.508c-.858 0-1.614-.196-2.268-.588-.644-.392-1.148-.961-1.512-1.708-.364-.756-.546-1.661-.546-2.716 0-1.055.182-1.955.546-2.702.364-.756.873-1.33 1.526-1.722.654-.392 1.405-.588 2.254-.588 1.046 0 1.904.294 2.576.882.682.588 1.092 1.381 1.232 2.38h-1.526c-.084-.597-.331-1.073-.742-1.428-.401-.364-.914-.546-1.54-.546-.877 0-1.572.331-2.086.994-.504.653-.756 1.563-.756 2.73s.252 2.081.756 2.744c.514.653 1.209.98 2.086.98.626 0 1.148-.177 1.568-.532.42-.364.668-.845.742-1.442h1.47c-.102.999-.499 1.792-1.19 2.38-.681.588-1.544.882-2.59.882Zm7.773-8.624h-3.024V35.2h7.49v1.288h-3.01V45h-1.456v-8.512Zm6.602 7.224h.728c.252 0 .452-.051.602-.154.158-.103.289-.27.392-.504l.364-.798-3.472-7.056h1.596l2.604 5.6 2.464-5.6h1.554l-3.864 8.372c-.234.513-.495.882-.784 1.106-.28.215-.686.322-1.218.322h-.966v-1.288Zm7.119.014h.308c.317 0 .564-.21.742-.63.186-.42.284-1.167.294-2.24l.042-5.656h6.286v8.526h1.022v3.346h-1.386V45h-5.936v2.072h-1.372v-3.346Zm6.23 0v-7.252h-3.486l-.042 4.354c-.01.765-.066 1.377-.168 1.834-.094.448-.248.803-.462 1.064h4.158Zm3.849-8.526h1.414v7.518l4.228-7.518h1.596V45h-1.414v-7.518L270.841 45h-1.596v-9.8Zm9.563 0h6.314v1.288h-4.858v2.814h3.948v1.288h-3.948v3.122h5.012V45h-6.468v-9.8Zm8.279 0h1.414v7.518l4.228-7.518h1.596V45h-1.414v-7.518L288.683 45h-1.596v-9.8Zm3.612-.588c-.728 0-1.312-.182-1.75-.546-.439-.373-.658-.863-.658-1.47h1.218c0 .336.102.602.308.798.205.196.499.294.882.294.382 0 .676-.098.882-.294.214-.196.322-.462.322-.798h1.204c0 .607-.22 1.097-.658 1.47-.439.364-1.022.546-1.75.546Zm17.398 13.244c-1.297 0-1.946-.611-1.946-1.834v-.952a3.8 3.8 0 0 1-1.89-.812c-.541-.448-.961-1.027-1.26-1.736-.299-.719-.448-1.526-.448-2.422 0-.99.178-1.862.532-2.618.355-.756.854-1.344 1.498-1.764.644-.42 1.386-.63 2.226-.63.822 0 1.549.21 2.184.63.635.42 1.125 1.008 1.47 1.764.355.756.532 1.629.532 2.618 0 .896-.145 1.699-.434 2.408-.289.71-.7 1.283-1.232 1.722a3.708 3.708 0 0 1-1.834.826v.924c0 .252.061.439.182.56.131.121.327.182.588.182h1.498v1.134h-1.666Zm-1.288-4.032c.532 0 1.004-.154 1.414-.462.411-.317.728-.756.952-1.316.224-.56.336-1.209.336-1.946 0-.737-.112-1.386-.336-1.946-.224-.56-.541-.994-.952-1.302a2.248 2.248 0 0 0-1.414-.476 2.33 2.33 0 0 0-1.442.476c-.42.308-.746.742-.98 1.302-.233.56-.35 1.209-.35 1.946 0 .737.117 1.386.35 1.946.234.56.56.999.98 1.316.42.308.901.462 1.442.462Zm5.888-.112h1.666v-7.224h-1.666V35.2h4.788v1.288h-1.652v7.224h1.652V45h-4.788v-1.288Zm10.737 1.4c-.84 0-1.582-.21-2.226-.63-.644-.42-1.143-1.008-1.498-1.764-.354-.756-.532-1.629-.532-2.618 0-.99.178-1.862.532-2.618.355-.756.854-1.344 1.498-1.764.644-.42 1.386-.63 2.226-.63.822 0 1.549.21 2.184.63.635.42 1.125 1.008 1.47 1.764.355.756.532 1.629.532 2.618 0 .99-.177 1.862-.532 2.618-.345.756-.835 1.344-1.47 1.764-.635.42-1.362.63-2.184.63Zm0-1.288c.532 0 1.004-.154 1.414-.462.411-.317.728-.756.952-1.316.224-.56.336-1.209.336-1.946 0-.737-.112-1.386-.336-1.946-.224-.56-.541-.994-.952-1.302a2.248 2.248 0 0 0-1.414-.476 2.33 2.33 0 0 0-1.442.476c-.42.308-.746.742-.98 1.302-.233.56-.35 1.209-.35 1.946 0 .737.117 1.386.35 1.946.234.56.56.999.98 1.316.42.308.901.462 1.442.462Z" fill="#000"/><path d="M346 23v6l-6-6h6Z" fill="#0D0D0D"/></svg>