<svg width="491" height="90" viewBox="0 0 491 90" fill="none" xmlns="http://www.w3.org/2000/svg">
<g opacity="0.6" clip-path="url(#clip0_40_19442)">
<path d="M1.62225 6.67114C2.51819 6.67114 3.24449 5.94437 3.24449 5.04785C3.24449 4.15133 2.51819 3.42456 1.62225 3.42456C0.726305 3.42456 0 4.15133 0 5.04785C0 5.94437 0.726305 6.67114 1.62225 6.67114Z" fill="#C4C4C4"/>
<path d="M13.5187 6.67114C14.4147 6.67114 15.141 5.94437 15.141 5.04785C15.141 4.15133 14.4147 3.42456 13.5187 3.42456C12.6228 3.42456 11.8965 4.15133 11.8965 5.04785C11.8965 5.94437 12.6228 6.67114 13.5187 6.67114Z" fill="#C4C4C4"/>
<path d="M25.4152 6.67114C26.3112 6.67114 27.0375 5.94437 27.0375 5.04785C27.0375 4.15133 26.3112 3.42456 25.4152 3.42456C24.5193 3.42456 23.793 4.15133 23.793 5.04785C23.793 5.94437 24.5193 6.67114 25.4152 6.67114Z" fill="#C4C4C4"/>
<path d="M37.3117 6.67114C38.2076 6.67114 38.9339 5.94437 38.9339 5.04785C38.9339 4.15133 38.2076 3.42456 37.3117 3.42456C36.4158 3.42456 35.6895 4.15133 35.6895 5.04785C35.6895 5.94437 36.4158 6.67114 37.3117 6.67114Z" fill="#C4C4C4"/>
<path d="M49.2082 6.67114C50.1041 6.67114 50.8304 5.94437 50.8304 5.04785C50.8304 4.15133 50.1041 3.42456 49.2082 3.42456C48.3122 3.42456 47.5859 4.15133 47.5859 5.04785C47.5859 5.94437 48.3122 6.67114 49.2082 6.67114Z" fill="#C4C4C4"/>
<path d="M61.1047 6.67114C62.0006 6.67114 62.7269 5.94437 62.7269 5.04785C62.7269 4.15133 62.0006 3.42456 61.1047 3.42456C60.2087 3.42456 59.4824 4.15133 59.4824 5.04785C59.4824 5.94437 60.2087 6.67114 61.1047 6.67114Z" fill="#C4C4C4"/>
<path d="M73.0012 6.67114C73.8971 6.67114 74.6234 5.94437 74.6234 5.04785C74.6234 4.15133 73.8971 3.42456 73.0012 3.42456C72.1052 3.42456 71.3789 4.15133 71.3789 5.04785C71.3789 5.94437 72.1052 6.67114 73.0012 6.67114Z" fill="#C4C4C4"/>
<path d="M84.8976 6.67114C85.7936 6.67114 86.5199 5.94437 86.5199 5.04785C86.5199 4.15133 85.7936 3.42456 84.8976 3.42456C84.0017 3.42456 83.2754 4.15133 83.2754 5.04785C83.2754 5.94437 84.0017 6.67114 84.8976 6.67114Z" fill="#C4C4C4"/>
<path d="M96.7941 6.67114C97.6901 6.67114 98.4164 5.94437 98.4164 5.04785C98.4164 4.15133 97.6901 3.42456 96.7941 3.42456C95.8982 3.42456 95.1719 4.15133 95.1719 5.04785C95.1719 5.94437 95.8982 6.67114 96.7941 6.67114Z" fill="#C4C4C4"/>
<path d="M108.691 6.67114C109.587 6.67114 110.313 5.94437 110.313 5.04785C110.313 4.15133 109.587 3.42456 108.691 3.42456C107.795 3.42456 107.068 4.15133 107.068 5.04785C107.068 5.94437 107.795 6.67114 108.691 6.67114Z" fill="#C4C4C4"/>
<path d="M120.587 6.67114C121.483 6.67114 122.209 5.94437 122.209 5.04785C122.209 4.15133 121.483 3.42456 120.587 3.42456C119.691 3.42456 118.965 4.15133 118.965 5.04785C118.965 5.94437 119.691 6.67114 120.587 6.67114Z" fill="#C4C4C4"/>
<path d="M132.484 6.67114C133.38 6.67114 134.106 5.94437 134.106 5.04785C134.106 4.15133 133.38 3.42456 132.484 3.42456C131.588 3.42456 130.861 4.15133 130.861 5.04785C130.861 5.94437 131.588 6.67114 132.484 6.67114Z" fill="#C4C4C4"/>
<path d="M144.38 6.67114C145.276 6.67114 146.002 5.94437 146.002 5.04785C146.002 4.15133 145.276 3.42456 144.38 3.42456C143.484 3.42456 142.758 4.15133 142.758 5.04785C142.758 5.94437 143.484 6.67114 144.38 6.67114Z" fill="#C4C4C4"/>
<path d="M156.277 6.67114C157.172 6.67114 157.899 5.94437 157.899 5.04785C157.899 4.15133 157.172 3.42456 156.277 3.42456C155.381 3.42456 154.654 4.15133 154.654 5.04785C154.654 5.94437 155.381 6.67114 156.277 6.67114Z" fill="#C4C4C4"/>
<path d="M168.173 6.67114C169.069 6.67114 169.795 5.94437 169.795 5.04785C169.795 4.15133 169.069 3.42456 168.173 3.42456C167.277 3.42456 166.551 4.15133 166.551 5.04785C166.551 5.94437 167.277 6.67114 168.173 6.67114Z" fill="#C4C4C4"/>
<path d="M180.07 6.67114C180.965 6.67114 181.692 5.94437 181.692 5.04785C181.692 4.15133 180.965 3.42456 180.07 3.42456C179.174 3.42456 178.447 4.15133 178.447 5.04785C178.447 5.94437 179.174 6.67114 180.07 6.67114Z" fill="#C4C4C4"/>
<path d="M191.966 6.67114C192.862 6.67114 193.588 5.94437 193.588 5.04785C193.588 4.15133 192.862 3.42456 191.966 3.42456C191.07 3.42456 190.344 4.15133 190.344 5.04785C190.344 5.94437 191.07 6.67114 191.966 6.67114Z" fill="#C4C4C4"/>
<path d="M203.862 6.67114C204.758 6.67114 205.485 5.94437 205.485 5.04785C205.485 4.15133 204.758 3.42456 203.862 3.42456C202.967 3.42456 202.24 4.15133 202.24 5.04785C202.24 5.94437 202.967 6.67114 203.862 6.67114Z" fill="#C4C4C4"/>
<path d="M215.759 6.67114C216.655 6.67114 217.381 5.94437 217.381 5.04785C217.381 4.15133 216.655 3.42456 215.759 3.42456C214.863 3.42456 214.137 4.15133 214.137 5.04785C214.137 5.94437 214.863 6.67114 215.759 6.67114Z" fill="#C4C4C4"/>
<path d="M227.655 6.67114C228.551 6.67114 229.278 5.94437 229.278 5.04785C229.278 4.15133 228.551 3.42456 227.655 3.42456C226.76 3.42456 226.033 4.15133 226.033 5.04785C226.033 5.94437 226.76 6.67114 227.655 6.67114Z" fill="#C4C4C4"/>
<path d="M239.552 6.67114C240.448 6.67114 241.174 5.94437 241.174 5.04785C241.174 4.15133 240.448 3.42456 239.552 3.42456C238.656 3.42456 237.93 4.15133 237.93 5.04785C237.93 5.94437 238.656 6.67114 239.552 6.67114Z" fill="#C4C4C4"/>
<path d="M251.448 6.67114C252.344 6.67114 253.071 5.94437 253.071 5.04785C253.071 4.15133 252.344 3.42456 251.448 3.42456C250.552 3.42456 249.826 4.15133 249.826 5.04785C249.826 5.94437 250.552 6.67114 251.448 6.67114Z" fill="#C4C4C4"/>
<path d="M263.345 6.67114C264.241 6.67114 264.967 5.94437 264.967 5.04785C264.967 4.15133 264.241 3.42456 263.345 3.42456C262.449 3.42456 261.723 4.15133 261.723 5.04785C261.723 5.94437 262.449 6.67114 263.345 6.67114Z" fill="#C4C4C4"/>
<path d="M275.241 6.67114C276.137 6.67114 276.864 5.94437 276.864 5.04785C276.864 4.15133 276.137 3.42456 275.241 3.42456C274.345 3.42456 273.619 4.15133 273.619 5.04785C273.619 5.94437 274.345 6.67114 275.241 6.67114Z" fill="#C4C4C4"/>
<path d="M287.138 6.67114C288.034 6.67114 288.76 5.94437 288.76 5.04785C288.76 4.15133 288.034 3.42456 287.138 3.42456C286.242 3.42456 285.516 4.15133 285.516 5.04785C285.516 5.94437 286.242 6.67114 287.138 6.67114Z" fill="#C4C4C4"/>
<path d="M299.034 6.67114C299.93 6.67114 300.657 5.94437 300.657 5.04785C300.657 4.15133 299.93 3.42456 299.034 3.42456C298.138 3.42456 297.412 4.15133 297.412 5.04785C297.412 5.94437 298.138 6.67114 299.034 6.67114Z" fill="#C4C4C4"/>
<path d="M310.931 6.67114C311.827 6.67114 312.553 5.94437 312.553 5.04785C312.553 4.15133 311.827 3.42456 310.931 3.42456C310.035 3.42456 309.309 4.15133 309.309 5.04785C309.309 5.94437 310.035 6.67114 310.931 6.67114Z" fill="#C4C4C4"/>
<path d="M322.827 6.67114C323.723 6.67114 324.45 5.94437 324.45 5.04785C324.45 4.15133 323.723 3.42456 322.827 3.42456C321.931 3.42456 321.205 4.15133 321.205 5.04785C321.205 5.94437 321.931 6.67114 322.827 6.67114Z" fill="#C4C4C4"/>
<path d="M1.62225 18.5754C2.51819 18.5754 3.24449 17.8487 3.24449 16.9521C3.24449 16.0556 2.51819 15.3289 1.62225 15.3289C0.726305 15.3289 0 16.0556 0 16.9521C0 17.8487 0.726305 18.5754 1.62225 18.5754Z" fill="#C4C4C4"/>
<path d="M1.62225 30.4795C2.51819 30.4795 3.24449 29.7527 3.24449 28.8562C3.24449 27.9597 2.51819 27.2329 1.62225 27.2329C0.726305 27.2329 0 27.9597 0 28.8562C0 29.7527 0.726305 30.4795 1.62225 30.4795Z" fill="#C4C4C4"/>
<path d="M1.62225 42.3835C2.51819 42.3835 3.24449 41.6568 3.24449 40.7603C3.24449 39.8637 2.51819 39.137 1.62225 39.137C0.726305 39.137 0 39.8637 0 40.7603C0 41.6568 0.726305 42.3835 1.62225 42.3835Z" fill="#C4C4C4"/>
<path d="M1.62225 54.2876C2.51819 54.2876 3.24449 53.5608 3.24449 52.6643C3.24449 51.7678 2.51819 51.041 1.62225 51.041C0.726305 51.041 0 51.7678 0 52.6643C0 53.5608 0.726305 54.2876 1.62225 54.2876Z" fill="#C4C4C4"/>
<path d="M1.62225 66.1919C2.51819 66.1919 3.24449 65.4651 3.24449 64.5686C3.24449 63.6721 2.51819 62.9453 1.62225 62.9453C0.726305 62.9453 0 63.6721 0 64.5686C0 65.4651 0.726305 66.1919 1.62225 66.1919Z" fill="#C4C4C4"/>
<path d="M1.62225 78.0959C2.51819 78.0959 3.24449 77.3692 3.24449 76.4727C3.24449 75.5761 2.51819 74.8494 1.62225 74.8494C0.726305 74.8494 0 75.5761 0 76.4727C0 77.3692 0.726305 78.0959 1.62225 78.0959Z" fill="#C4C4C4"/>
<path d="M1.62225 90C2.51819 90 3.24449 89.2732 3.24449 88.3767C3.24449 87.4802 2.51819 86.7534 1.62225 86.7534C0.726305 86.7534 0 87.4802 0 88.3767C0 89.2732 0.726305 90 1.62225 90Z" fill="#C4C4C4"/>
<path d="M13.5187 18.5754C14.4147 18.5754 15.141 17.8487 15.141 16.9521C15.141 16.0556 14.4147 15.3289 13.5187 15.3289C12.6228 15.3289 11.8965 16.0556 11.8965 16.9521C11.8965 17.8487 12.6228 18.5754 13.5187 18.5754Z" fill="#C4C4C4"/>
<path d="M13.5187 30.4795C14.4147 30.4795 15.141 29.7527 15.141 28.8562C15.141 27.9597 14.4147 27.2329 13.5187 27.2329C12.6228 27.2329 11.8965 27.9597 11.8965 28.8562C11.8965 29.7527 12.6228 30.4795 13.5187 30.4795Z" fill="#C4C4C4"/>
<path d="M13.5187 42.3835C14.4147 42.3835 15.141 41.6568 15.141 40.7603C15.141 39.8637 14.4147 39.137 13.5187 39.137C12.6228 39.137 11.8965 39.8637 11.8965 40.7603C11.8965 41.6568 12.6228 42.3835 13.5187 42.3835Z" fill="#C4C4C4"/>
<path d="M13.5187 54.2876C14.4147 54.2876 15.141 53.5608 15.141 52.6643C15.141 51.7678 14.4147 51.041 13.5187 51.041C12.6228 51.041 11.8965 51.7678 11.8965 52.6643C11.8965 53.5608 12.6228 54.2876 13.5187 54.2876Z" fill="#C4C4C4"/>
<path d="M13.5187 66.1919C14.4147 66.1919 15.141 65.4651 15.141 64.5686C15.141 63.6721 14.4147 62.9453 13.5187 62.9453C12.6228 62.9453 11.8965 63.6721 11.8965 64.5686C11.8965 65.4651 12.6228 66.1919 13.5187 66.1919Z" fill="#C4C4C4"/>
<path d="M13.5187 78.0959C14.4147 78.0959 15.141 77.3692 15.141 76.4727C15.141 75.5761 14.4147 74.8494 13.5187 74.8494C12.6228 74.8494 11.8965 75.5761 11.8965 76.4727C11.8965 77.3692 12.6228 78.0959 13.5187 78.0959Z" fill="#C4C4C4"/>
<path d="M13.5187 90C14.4147 90 15.141 89.2732 15.141 88.3767C15.141 87.4802 14.4147 86.7534 13.5187 86.7534C12.6228 86.7534 11.8965 87.4802 11.8965 88.3767C11.8965 89.2732 12.6228 90 13.5187 90Z" fill="#C4C4C4"/>
<path d="M25.4152 18.5754C26.3112 18.5754 27.0375 17.8487 27.0375 16.9521C27.0375 16.0556 26.3112 15.3289 25.4152 15.3289C24.5193 15.3289 23.793 16.0556 23.793 16.9521C23.793 17.8487 24.5193 18.5754 25.4152 18.5754Z" fill="#C4C4C4"/>
<path d="M25.4152 30.4795C26.3112 30.4795 27.0375 29.7527 27.0375 28.8562C27.0375 27.9597 26.3112 27.2329 25.4152 27.2329C24.5193 27.2329 23.793 27.9597 23.793 28.8562C23.793 29.7527 24.5193 30.4795 25.4152 30.4795Z" fill="#C4C4C4"/>
<path d="M25.4152 42.3835C26.3112 42.3835 27.0375 41.6568 27.0375 40.7603C27.0375 39.8637 26.3112 39.137 25.4152 39.137C24.5193 39.137 23.793 39.8637 23.793 40.7603C23.793 41.6568 24.5193 42.3835 25.4152 42.3835Z" fill="#C4C4C4"/>
<path d="M25.4152 54.2876C26.3112 54.2876 27.0375 53.5608 27.0375 52.6643C27.0375 51.7678 26.3112 51.041 25.4152 51.041C24.5193 51.041 23.793 51.7678 23.793 52.6643C23.793 53.5608 24.5193 54.2876 25.4152 54.2876Z" fill="#C4C4C4"/>
<path d="M25.4152 66.1919C26.3112 66.1919 27.0375 65.4651 27.0375 64.5686C27.0375 63.6721 26.3112 62.9453 25.4152 62.9453C24.5193 62.9453 23.793 63.6721 23.793 64.5686C23.793 65.4651 24.5193 66.1919 25.4152 66.1919Z" fill="#C4C4C4"/>
<path d="M25.4152 78.0959C26.3112 78.0959 27.0375 77.3692 27.0375 76.4727C27.0375 75.5761 26.3112 74.8494 25.4152 74.8494C24.5193 74.8494 23.793 75.5761 23.793 76.4727C23.793 77.3692 24.5193 78.0959 25.4152 78.0959Z" fill="#C4C4C4"/>
<path d="M25.4152 90C26.3112 90 27.0375 89.2732 27.0375 88.3767C27.0375 87.4802 26.3112 86.7534 25.4152 86.7534C24.5193 86.7534 23.793 87.4802 23.793 88.3767C23.793 89.2732 24.5193 90 25.4152 90Z" fill="#C4C4C4"/>
<path d="M37.3117 18.5754C38.2076 18.5754 38.9339 17.8487 38.9339 16.9521C38.9339 16.0556 38.2076 15.3289 37.3117 15.3289C36.4158 15.3289 35.6895 16.0556 35.6895 16.9521C35.6895 17.8487 36.4158 18.5754 37.3117 18.5754Z" fill="#C4C4C4"/>
<path d="M37.3117 30.4795C38.2076 30.4795 38.9339 29.7527 38.9339 28.8562C38.9339 27.9597 38.2076 27.2329 37.3117 27.2329C36.4158 27.2329 35.6895 27.9597 35.6895 28.8562C35.6895 29.7527 36.4158 30.4795 37.3117 30.4795Z" fill="#C4C4C4"/>
<path d="M37.3117 42.3835C38.2076 42.3835 38.9339 41.6568 38.9339 40.7603C38.9339 39.8637 38.2076 39.137 37.3117 39.137C36.4158 39.137 35.6895 39.8637 35.6895 40.7603C35.6895 41.6568 36.4158 42.3835 37.3117 42.3835Z" fill="#C4C4C4"/>
<path d="M37.3117 54.2876C38.2076 54.2876 38.9339 53.5608 38.9339 52.6643C38.9339 51.7678 38.2076 51.041 37.3117 51.041C36.4158 51.041 35.6895 51.7678 35.6895 52.6643C35.6895 53.5608 36.4158 54.2876 37.3117 54.2876Z" fill="#C4C4C4"/>
<path d="M37.3117 66.1919C38.2076 66.1919 38.9339 65.4651 38.9339 64.5686C38.9339 63.6721 38.2076 62.9453 37.3117 62.9453C36.4158 62.9453 35.6895 63.6721 35.6895 64.5686C35.6895 65.4651 36.4158 66.1919 37.3117 66.1919Z" fill="#C4C4C4"/>
<path d="M37.3117 78.0959C38.2076 78.0959 38.9339 77.3692 38.9339 76.4727C38.9339 75.5761 38.2076 74.8494 37.3117 74.8494C36.4158 74.8494 35.6895 75.5761 35.6895 76.4727C35.6895 77.3692 36.4158 78.0959 37.3117 78.0959Z" fill="#C4C4C4"/>
<path d="M37.3117 90C38.2076 90 38.9339 89.2732 38.9339 88.3767C38.9339 87.4802 38.2076 86.7534 37.3117 86.7534C36.4158 86.7534 35.6895 87.4802 35.6895 88.3767C35.6895 89.2732 36.4158 90 37.3117 90Z" fill="#C4C4C4"/>
<path d="M49.2082 18.5754C50.1041 18.5754 50.8304 17.8487 50.8304 16.9521C50.8304 16.0556 50.1041 15.3289 49.2082 15.3289C48.3122 15.3289 47.5859 16.0556 47.5859 16.9521C47.5859 17.8487 48.3122 18.5754 49.2082 18.5754Z" fill="#C4C4C4"/>
<path d="M49.2082 30.4795C50.1041 30.4795 50.8304 29.7527 50.8304 28.8562C50.8304 27.9597 50.1041 27.2329 49.2082 27.2329C48.3122 27.2329 47.5859 27.9597 47.5859 28.8562C47.5859 29.7527 48.3122 30.4795 49.2082 30.4795Z" fill="#C4C4C4"/>
<path d="M49.2082 42.3835C50.1041 42.3835 50.8304 41.6568 50.8304 40.7603C50.8304 39.8637 50.1041 39.137 49.2082 39.137C48.3122 39.137 47.5859 39.8637 47.5859 40.7603C47.5859 41.6568 48.3122 42.3835 49.2082 42.3835Z" fill="#C4C4C4"/>
<path d="M49.2082 54.2876C50.1041 54.2876 50.8304 53.5608 50.8304 52.6643C50.8304 51.7678 50.1041 51.041 49.2082 51.041C48.3122 51.041 47.5859 51.7678 47.5859 52.6643C47.5859 53.5608 48.3122 54.2876 49.2082 54.2876Z" fill="#C4C4C4"/>
<path d="M49.2082 66.1919C50.1041 66.1919 50.8304 65.4651 50.8304 64.5686C50.8304 63.6721 50.1041 62.9453 49.2082 62.9453C48.3122 62.9453 47.5859 63.6721 47.5859 64.5686C47.5859 65.4651 48.3122 66.1919 49.2082 66.1919Z" fill="#C4C4C4"/>
<path d="M49.2082 78.0959C50.1041 78.0959 50.8304 77.3692 50.8304 76.4727C50.8304 75.5761 50.1041 74.8494 49.2082 74.8494C48.3122 74.8494 47.5859 75.5761 47.5859 76.4727C47.5859 77.3692 48.3122 78.0959 49.2082 78.0959Z" fill="#C4C4C4"/>
<path d="M49.2082 90C50.1041 90 50.8304 89.2732 50.8304 88.3767C50.8304 87.4802 50.1041 86.7534 49.2082 86.7534C48.3122 86.7534 47.5859 87.4802 47.5859 88.3767C47.5859 89.2732 48.3122 90 49.2082 90Z" fill="#C4C4C4"/>
<path d="M61.1047 18.5754C62.0006 18.5754 62.7269 17.8487 62.7269 16.9521C62.7269 16.0556 62.0006 15.3289 61.1047 15.3289C60.2087 15.3289 59.4824 16.0556 59.4824 16.9521C59.4824 17.8487 60.2087 18.5754 61.1047 18.5754Z" fill="#C4C4C4"/>
<path d="M61.1047 30.4795C62.0006 30.4795 62.7269 29.7527 62.7269 28.8562C62.7269 27.9597 62.0006 27.2329 61.1047 27.2329C60.2087 27.2329 59.4824 27.9597 59.4824 28.8562C59.4824 29.7527 60.2087 30.4795 61.1047 30.4795Z" fill="#C4C4C4"/>
<path d="M61.1047 42.3835C62.0006 42.3835 62.7269 41.6568 62.7269 40.7603C62.7269 39.8637 62.0006 39.137 61.1047 39.137C60.2087 39.137 59.4824 39.8637 59.4824 40.7603C59.4824 41.6568 60.2087 42.3835 61.1047 42.3835Z" fill="#C4C4C4"/>
<path d="M61.1047 54.2876C62.0006 54.2876 62.7269 53.5608 62.7269 52.6643C62.7269 51.7678 62.0006 51.041 61.1047 51.041C60.2087 51.041 59.4824 51.7678 59.4824 52.6643C59.4824 53.5608 60.2087 54.2876 61.1047 54.2876Z" fill="#C4C4C4"/>
<path d="M61.1047 66.1919C62.0006 66.1919 62.7269 65.4651 62.7269 64.5686C62.7269 63.6721 62.0006 62.9453 61.1047 62.9453C60.2087 62.9453 59.4824 63.6721 59.4824 64.5686C59.4824 65.4651 60.2087 66.1919 61.1047 66.1919Z" fill="#C4C4C4"/>
<path d="M61.1047 78.0959C62.0006 78.0959 62.7269 77.3692 62.7269 76.4727C62.7269 75.5761 62.0006 74.8494 61.1047 74.8494C60.2087 74.8494 59.4824 75.5761 59.4824 76.4727C59.4824 77.3692 60.2087 78.0959 61.1047 78.0959Z" fill="#C4C4C4"/>
<path d="M61.1047 90C62.0006 90 62.7269 89.2732 62.7269 88.3767C62.7269 87.4802 62.0006 86.7534 61.1047 86.7534C60.2087 86.7534 59.4824 87.4802 59.4824 88.3767C59.4824 89.2732 60.2087 90 61.1047 90Z" fill="#C4C4C4"/>
<path d="M73.0012 18.5754C73.8971 18.5754 74.6234 17.8487 74.6234 16.9521C74.6234 16.0556 73.8971 15.3289 73.0012 15.3289C72.1052 15.3289 71.3789 16.0556 71.3789 16.9521C71.3789 17.8487 72.1052 18.5754 73.0012 18.5754Z" fill="#C4C4C4"/>
<path d="M73.0012 30.4795C73.8971 30.4795 74.6234 29.7527 74.6234 28.8562C74.6234 27.9597 73.8971 27.2329 73.0012 27.2329C72.1052 27.2329 71.3789 27.9597 71.3789 28.8562C71.3789 29.7527 72.1052 30.4795 73.0012 30.4795Z" fill="#C4C4C4"/>
<path d="M73.0012 42.3835C73.8971 42.3835 74.6234 41.6568 74.6234 40.7603C74.6234 39.8637 73.8971 39.137 73.0012 39.137C72.1052 39.137 71.3789 39.8637 71.3789 40.7603C71.3789 41.6568 72.1052 42.3835 73.0012 42.3835Z" fill="#C4C4C4"/>
<path d="M73.0012 54.2876C73.8971 54.2876 74.6234 53.5608 74.6234 52.6643C74.6234 51.7678 73.8971 51.041 73.0012 51.041C72.1052 51.041 71.3789 51.7678 71.3789 52.6643C71.3789 53.5608 72.1052 54.2876 73.0012 54.2876Z" fill="#C4C4C4"/>
<path d="M73.0012 66.1919C73.8971 66.1919 74.6234 65.4651 74.6234 64.5686C74.6234 63.6721 73.8971 62.9453 73.0012 62.9453C72.1052 62.9453 71.3789 63.6721 71.3789 64.5686C71.3789 65.4651 72.1052 66.1919 73.0012 66.1919Z" fill="#C4C4C4"/>
<path d="M73.0012 78.0959C73.8971 78.0959 74.6234 77.3692 74.6234 76.4727C74.6234 75.5761 73.8971 74.8494 73.0012 74.8494C72.1052 74.8494 71.3789 75.5761 71.3789 76.4727C71.3789 77.3692 72.1052 78.0959 73.0012 78.0959Z" fill="#C4C4C4"/>
<path d="M73.0012 90C73.8971 90 74.6234 89.2732 74.6234 88.3767C74.6234 87.4802 73.8971 86.7534 73.0012 86.7534C72.1052 86.7534 71.3789 87.4802 71.3789 88.3767C71.3789 89.2732 72.1052 90 73.0012 90Z" fill="#C4C4C4"/>
<path d="M84.8976 18.5754C85.7936 18.5754 86.5199 17.8487 86.5199 16.9521C86.5199 16.0556 85.7936 15.3289 84.8976 15.3289C84.0017 15.3289 83.2754 16.0556 83.2754 16.9521C83.2754 17.8487 84.0017 18.5754 84.8976 18.5754Z" fill="#C4C4C4"/>
<path d="M84.8976 30.4795C85.7936 30.4795 86.5199 29.7527 86.5199 28.8562C86.5199 27.9597 85.7936 27.2329 84.8976 27.2329C84.0017 27.2329 83.2754 27.9597 83.2754 28.8562C83.2754 29.7527 84.0017 30.4795 84.8976 30.4795Z" fill="#C4C4C4"/>
<path d="M84.8976 42.3835C85.7936 42.3835 86.5199 41.6568 86.5199 40.7603C86.5199 39.8637 85.7936 39.137 84.8976 39.137C84.0017 39.137 83.2754 39.8637 83.2754 40.7603C83.2754 41.6568 84.0017 42.3835 84.8976 42.3835Z" fill="#C4C4C4"/>
<path d="M84.8976 54.2876C85.7936 54.2876 86.5199 53.5608 86.5199 52.6643C86.5199 51.7678 85.7936 51.041 84.8976 51.041C84.0017 51.041 83.2754 51.7678 83.2754 52.6643C83.2754 53.5608 84.0017 54.2876 84.8976 54.2876Z" fill="#C4C4C4"/>
<path d="M84.8976 66.1919C85.7936 66.1919 86.5199 65.4651 86.5199 64.5686C86.5199 63.6721 85.7936 62.9453 84.8976 62.9453C84.0017 62.9453 83.2754 63.6721 83.2754 64.5686C83.2754 65.4651 84.0017 66.1919 84.8976 66.1919Z" fill="#C4C4C4"/>
<path d="M84.8976 78.0959C85.7936 78.0959 86.5199 77.3692 86.5199 76.4727C86.5199 75.5761 85.7936 74.8494 84.8976 74.8494C84.0017 74.8494 83.2754 75.5761 83.2754 76.4727C83.2754 77.3692 84.0017 78.0959 84.8976 78.0959Z" fill="#C4C4C4"/>
<path d="M84.8976 90C85.7936 90 86.5199 89.2732 86.5199 88.3767C86.5199 87.4802 85.7936 86.7534 84.8976 86.7534C84.0017 86.7534 83.2754 87.4802 83.2754 88.3767C83.2754 89.2732 84.0017 90 84.8976 90Z" fill="#C4C4C4"/>
<path d="M96.7941 18.5754C97.6901 18.5754 98.4164 17.8487 98.4164 16.9521C98.4164 16.0556 97.6901 15.3289 96.7941 15.3289C95.8982 15.3289 95.1719 16.0556 95.1719 16.9521C95.1719 17.8487 95.8982 18.5754 96.7941 18.5754Z" fill="#C4C4C4"/>
<path d="M96.7941 30.4795C97.6901 30.4795 98.4164 29.7527 98.4164 28.8562C98.4164 27.9597 97.6901 27.2329 96.7941 27.2329C95.8982 27.2329 95.1719 27.9597 95.1719 28.8562C95.1719 29.7527 95.8982 30.4795 96.7941 30.4795Z" fill="#C4C4C4"/>
<path d="M96.7941 42.3835C97.6901 42.3835 98.4164 41.6568 98.4164 40.7603C98.4164 39.8637 97.6901 39.137 96.7941 39.137C95.8982 39.137 95.1719 39.8637 95.1719 40.7603C95.1719 41.6568 95.8982 42.3835 96.7941 42.3835Z" fill="#C4C4C4"/>
<path d="M96.7941 54.2876C97.6901 54.2876 98.4164 53.5608 98.4164 52.6643C98.4164 51.7678 97.6901 51.041 96.7941 51.041C95.8982 51.041 95.1719 51.7678 95.1719 52.6643C95.1719 53.5608 95.8982 54.2876 96.7941 54.2876Z" fill="#C4C4C4"/>
<path d="M96.7941 66.1919C97.6901 66.1919 98.4164 65.4651 98.4164 64.5686C98.4164 63.6721 97.6901 62.9453 96.7941 62.9453C95.8982 62.9453 95.1719 63.6721 95.1719 64.5686C95.1719 65.4651 95.8982 66.1919 96.7941 66.1919Z" fill="#C4C4C4"/>
<path d="M96.7941 78.0959C97.6901 78.0959 98.4164 77.3692 98.4164 76.4727C98.4164 75.5761 97.6901 74.8494 96.7941 74.8494C95.8982 74.8494 95.1719 75.5761 95.1719 76.4727C95.1719 77.3692 95.8982 78.0959 96.7941 78.0959Z" fill="#C4C4C4"/>
<path d="M96.7941 90C97.6901 90 98.4164 89.2732 98.4164 88.3767C98.4164 87.4802 97.6901 86.7534 96.7941 86.7534C95.8982 86.7534 95.1719 87.4802 95.1719 88.3767C95.1719 89.2732 95.8982 90 96.7941 90Z" fill="#C4C4C4"/>
<path d="M108.691 18.5754C109.587 18.5754 110.313 17.8487 110.313 16.9521C110.313 16.0556 109.587 15.3289 108.691 15.3289C107.795 15.3289 107.068 16.0556 107.068 16.9521C107.068 17.8487 107.795 18.5754 108.691 18.5754Z" fill="#C4C4C4"/>
<path d="M108.691 30.4795C109.587 30.4795 110.313 29.7527 110.313 28.8562C110.313 27.9597 109.587 27.2329 108.691 27.2329C107.795 27.2329 107.068 27.9597 107.068 28.8562C107.068 29.7527 107.795 30.4795 108.691 30.4795Z" fill="#C4C4C4"/>
<path d="M108.691 42.3835C109.587 42.3835 110.313 41.6568 110.313 40.7603C110.313 39.8637 109.587 39.137 108.691 39.137C107.795 39.137 107.068 39.8637 107.068 40.7603C107.068 41.6568 107.795 42.3835 108.691 42.3835Z" fill="#C4C4C4"/>
<path d="M108.691 54.2876C109.587 54.2876 110.313 53.5608 110.313 52.6643C110.313 51.7678 109.587 51.041 108.691 51.041C107.795 51.041 107.068 51.7678 107.068 52.6643C107.068 53.5608 107.795 54.2876 108.691 54.2876Z" fill="#C4C4C4"/>
<path d="M108.691 66.1919C109.587 66.1919 110.313 65.4651 110.313 64.5686C110.313 63.6721 109.587 62.9453 108.691 62.9453C107.795 62.9453 107.068 63.6721 107.068 64.5686C107.068 65.4651 107.795 66.1919 108.691 66.1919Z" fill="#C4C4C4"/>
<path d="M108.691 78.0959C109.587 78.0959 110.313 77.3692 110.313 76.4727C110.313 75.5761 109.587 74.8494 108.691 74.8494C107.795 74.8494 107.068 75.5761 107.068 76.4727C107.068 77.3692 107.795 78.0959 108.691 78.0959Z" fill="#C4C4C4"/>
<path d="M108.691 90C109.587 90 110.313 89.2732 110.313 88.3767C110.313 87.4802 109.587 86.7534 108.691 86.7534C107.795 86.7534 107.068 87.4802 107.068 88.3767C107.068 89.2732 107.795 90 108.691 90Z" fill="#C4C4C4"/>
<path d="M120.587 18.5754C121.483 18.5754 122.209 17.8487 122.209 16.9521C122.209 16.0556 121.483 15.3289 120.587 15.3289C119.691 15.3289 118.965 16.0556 118.965 16.9521C118.965 17.8487 119.691 18.5754 120.587 18.5754Z" fill="#C4C4C4"/>
<path d="M120.587 30.4795C121.483 30.4795 122.209 29.7527 122.209 28.8562C122.209 27.9597 121.483 27.2329 120.587 27.2329C119.691 27.2329 118.965 27.9597 118.965 28.8562C118.965 29.7527 119.691 30.4795 120.587 30.4795Z" fill="#C4C4C4"/>
<path d="M120.587 42.3835C121.483 42.3835 122.209 41.6568 122.209 40.7603C122.209 39.8637 121.483 39.137 120.587 39.137C119.691 39.137 118.965 39.8637 118.965 40.7603C118.965 41.6568 119.691 42.3835 120.587 42.3835Z" fill="#C4C4C4"/>
<path d="M120.587 54.2876C121.483 54.2876 122.209 53.5608 122.209 52.6643C122.209 51.7678 121.483 51.041 120.587 51.041C119.691 51.041 118.965 51.7678 118.965 52.6643C118.965 53.5608 119.691 54.2876 120.587 54.2876Z" fill="#C4C4C4"/>
<path d="M120.587 66.1919C121.483 66.1919 122.209 65.4651 122.209 64.5686C122.209 63.6721 121.483 62.9453 120.587 62.9453C119.691 62.9453 118.965 63.6721 118.965 64.5686C118.965 65.4651 119.691 66.1919 120.587 66.1919Z" fill="#C4C4C4"/>
<path d="M120.587 78.0959C121.483 78.0959 122.209 77.3692 122.209 76.4727C122.209 75.5761 121.483 74.8494 120.587 74.8494C119.691 74.8494 118.965 75.5761 118.965 76.4727C118.965 77.3692 119.691 78.0959 120.587 78.0959Z" fill="#C4C4C4"/>
<path d="M120.587 90C121.483 90 122.209 89.2732 122.209 88.3767C122.209 87.4802 121.483 86.7534 120.587 86.7534C119.691 86.7534 118.965 87.4802 118.965 88.3767C118.965 89.2732 119.691 90 120.587 90Z" fill="#C4C4C4"/>
<path d="M132.484 18.5754C133.38 18.5754 134.106 17.8487 134.106 16.9521C134.106 16.0556 133.38 15.3289 132.484 15.3289C131.588 15.3289 130.861 16.0556 130.861 16.9521C130.861 17.8487 131.588 18.5754 132.484 18.5754Z" fill="#C4C4C4"/>
<path d="M132.484 30.4795C133.38 30.4795 134.106 29.7527 134.106 28.8562C134.106 27.9597 133.38 27.2329 132.484 27.2329C131.588 27.2329 130.861 27.9597 130.861 28.8562C130.861 29.7527 131.588 30.4795 132.484 30.4795Z" fill="#C4C4C4"/>
<path d="M132.484 42.3835C133.38 42.3835 134.106 41.6568 134.106 40.7603C134.106 39.8637 133.38 39.137 132.484 39.137C131.588 39.137 130.861 39.8637 130.861 40.7603C130.861 41.6568 131.588 42.3835 132.484 42.3835Z" fill="#C4C4C4"/>
<path d="M132.484 54.2876C133.38 54.2876 134.106 53.5608 134.106 52.6643C134.106 51.7678 133.38 51.041 132.484 51.041C131.588 51.041 130.861 51.7678 130.861 52.6643C130.861 53.5608 131.588 54.2876 132.484 54.2876Z" fill="#C4C4C4"/>
<path d="M132.484 66.1919C133.38 66.1919 134.106 65.4651 134.106 64.5686C134.106 63.6721 133.38 62.9453 132.484 62.9453C131.588 62.9453 130.861 63.6721 130.861 64.5686C130.861 65.4651 131.588 66.1919 132.484 66.1919Z" fill="#C4C4C4"/>
<path d="M132.484 78.0959C133.38 78.0959 134.106 77.3692 134.106 76.4727C134.106 75.5761 133.38 74.8494 132.484 74.8494C131.588 74.8494 130.861 75.5761 130.861 76.4727C130.861 77.3692 131.588 78.0959 132.484 78.0959Z" fill="#C4C4C4"/>
<path d="M132.484 90C133.38 90 134.106 89.2732 134.106 88.3767C134.106 87.4802 133.38 86.7534 132.484 86.7534C131.588 86.7534 130.861 87.4802 130.861 88.3767C130.861 89.2732 131.588 90 132.484 90Z" fill="#C4C4C4"/>
<path d="M144.38 18.5754C145.276 18.5754 146.002 17.8487 146.002 16.9521C146.002 16.0556 145.276 15.3289 144.38 15.3289C143.484 15.3289 142.758 16.0556 142.758 16.9521C142.758 17.8487 143.484 18.5754 144.38 18.5754Z" fill="#C4C4C4"/>
<path d="M144.38 30.4795C145.276 30.4795 146.002 29.7527 146.002 28.8562C146.002 27.9597 145.276 27.2329 144.38 27.2329C143.484 27.2329 142.758 27.9597 142.758 28.8562C142.758 29.7527 143.484 30.4795 144.38 30.4795Z" fill="#C4C4C4"/>
<path d="M144.38 42.3835C145.276 42.3835 146.002 41.6568 146.002 40.7603C146.002 39.8637 145.276 39.137 144.38 39.137C143.484 39.137 142.758 39.8637 142.758 40.7603C142.758 41.6568 143.484 42.3835 144.38 42.3835Z" fill="#C4C4C4"/>
<path d="M144.38 54.2876C145.276 54.2876 146.002 53.5608 146.002 52.6643C146.002 51.7678 145.276 51.041 144.38 51.041C143.484 51.041 142.758 51.7678 142.758 52.6643C142.758 53.5608 143.484 54.2876 144.38 54.2876Z" fill="#C4C4C4"/>
<path d="M144.38 66.1919C145.276 66.1919 146.002 65.4651 146.002 64.5686C146.002 63.6721 145.276 62.9453 144.38 62.9453C143.484 62.9453 142.758 63.6721 142.758 64.5686C142.758 65.4651 143.484 66.1919 144.38 66.1919Z" fill="#C4C4C4"/>
<path d="M144.38 78.0959C145.276 78.0959 146.002 77.3692 146.002 76.4727C146.002 75.5761 145.276 74.8494 144.38 74.8494C143.484 74.8494 142.758 75.5761 142.758 76.4727C142.758 77.3692 143.484 78.0959 144.38 78.0959Z" fill="#C4C4C4"/>
<path d="M144.38 90C145.276 90 146.002 89.2732 146.002 88.3767C146.002 87.4802 145.276 86.7534 144.38 86.7534C143.484 86.7534 142.758 87.4802 142.758 88.3767C142.758 89.2732 143.484 90 144.38 90Z" fill="#C4C4C4"/>
<path d="M156.277 18.5754C157.172 18.5754 157.899 17.8487 157.899 16.9521C157.899 16.0556 157.172 15.3289 156.277 15.3289C155.381 15.3289 154.654 16.0556 154.654 16.9521C154.654 17.8487 155.381 18.5754 156.277 18.5754Z" fill="#C4C4C4"/>
<path d="M156.277 30.4795C157.172 30.4795 157.899 29.7527 157.899 28.8562C157.899 27.9597 157.172 27.2329 156.277 27.2329C155.381 27.2329 154.654 27.9597 154.654 28.8562C154.654 29.7527 155.381 30.4795 156.277 30.4795Z" fill="#C4C4C4"/>
<path d="M156.277 42.3835C157.172 42.3835 157.899 41.6568 157.899 40.7603C157.899 39.8637 157.172 39.137 156.277 39.137C155.381 39.137 154.654 39.8637 154.654 40.7603C154.654 41.6568 155.381 42.3835 156.277 42.3835Z" fill="#C4C4C4"/>
<path d="M156.277 54.2876C157.172 54.2876 157.899 53.5608 157.899 52.6643C157.899 51.7678 157.172 51.041 156.277 51.041C155.381 51.041 154.654 51.7678 154.654 52.6643C154.654 53.5608 155.381 54.2876 156.277 54.2876Z" fill="#C4C4C4"/>
<path d="M156.277 66.1919C157.172 66.1919 157.899 65.4651 157.899 64.5686C157.899 63.6721 157.172 62.9453 156.277 62.9453C155.381 62.9453 154.654 63.6721 154.654 64.5686C154.654 65.4651 155.381 66.1919 156.277 66.1919Z" fill="#C4C4C4"/>
<path d="M156.277 78.0959C157.172 78.0959 157.899 77.3692 157.899 76.4727C157.899 75.5761 157.172 74.8494 156.277 74.8494C155.381 74.8494 154.654 75.5761 154.654 76.4727C154.654 77.3692 155.381 78.0959 156.277 78.0959Z" fill="#C4C4C4"/>
<path d="M156.277 90C157.172 90 157.899 89.2732 157.899 88.3767C157.899 87.4802 157.172 86.7534 156.277 86.7534C155.381 86.7534 154.654 87.4802 154.654 88.3767C154.654 89.2732 155.381 90 156.277 90Z" fill="#C4C4C4"/>
<path d="M168.173 18.5754C169.069 18.5754 169.795 17.8487 169.795 16.9521C169.795 16.0556 169.069 15.3289 168.173 15.3289C167.277 15.3289 166.551 16.0556 166.551 16.9521C166.551 17.8487 167.277 18.5754 168.173 18.5754Z" fill="#C4C4C4"/>
<path d="M168.173 30.4795C169.069 30.4795 169.795 29.7527 169.795 28.8562C169.795 27.9597 169.069 27.2329 168.173 27.2329C167.277 27.2329 166.551 27.9597 166.551 28.8562C166.551 29.7527 167.277 30.4795 168.173 30.4795Z" fill="#C4C4C4"/>
<path d="M168.173 42.3835C169.069 42.3835 169.795 41.6568 169.795 40.7603C169.795 39.8637 169.069 39.137 168.173 39.137C167.277 39.137 166.551 39.8637 166.551 40.7603C166.551 41.6568 167.277 42.3835 168.173 42.3835Z" fill="#C4C4C4"/>
<path d="M168.173 54.2876C169.069 54.2876 169.795 53.5608 169.795 52.6643C169.795 51.7678 169.069 51.041 168.173 51.041C167.277 51.041 166.551 51.7678 166.551 52.6643C166.551 53.5608 167.277 54.2876 168.173 54.2876Z" fill="#C4C4C4"/>
<path d="M168.173 66.1919C169.069 66.1919 169.795 65.4651 169.795 64.5686C169.795 63.6721 169.069 62.9453 168.173 62.9453C167.277 62.9453 166.551 63.6721 166.551 64.5686C166.551 65.4651 167.277 66.1919 168.173 66.1919Z" fill="#C4C4C4"/>
<path d="M168.173 78.0959C169.069 78.0959 169.795 77.3692 169.795 76.4727C169.795 75.5761 169.069 74.8494 168.173 74.8494C167.277 74.8494 166.551 75.5761 166.551 76.4727C166.551 77.3692 167.277 78.0959 168.173 78.0959Z" fill="#C4C4C4"/>
<path d="M168.173 90C169.069 90 169.795 89.2732 169.795 88.3767C169.795 87.4802 169.069 86.7534 168.173 86.7534C167.277 86.7534 166.551 87.4802 166.551 88.3767C166.551 89.2732 167.277 90 168.173 90Z" fill="#C4C4C4"/>
<path d="M180.07 18.5754C180.965 18.5754 181.692 17.8487 181.692 16.9521C181.692 16.0556 180.965 15.3289 180.07 15.3289C179.174 15.3289 178.447 16.0556 178.447 16.9521C178.447 17.8487 179.174 18.5754 180.07 18.5754Z" fill="#C4C4C4"/>
<path d="M180.07 30.4795C180.965 30.4795 181.692 29.7527 181.692 28.8562C181.692 27.9597 180.965 27.2329 180.07 27.2329C179.174 27.2329 178.447 27.9597 178.447 28.8562C178.447 29.7527 179.174 30.4795 180.07 30.4795Z" fill="#C4C4C4"/>
<path d="M180.07 42.3835C180.965 42.3835 181.692 41.6568 181.692 40.7603C181.692 39.8637 180.965 39.137 180.07 39.137C179.174 39.137 178.447 39.8637 178.447 40.7603C178.447 41.6568 179.174 42.3835 180.07 42.3835Z" fill="#C4C4C4"/>
<path d="M180.07 54.2876C180.965 54.2876 181.692 53.5608 181.692 52.6643C181.692 51.7678 180.965 51.041 180.07 51.041C179.174 51.041 178.447 51.7678 178.447 52.6643C178.447 53.5608 179.174 54.2876 180.07 54.2876Z" fill="#C4C4C4"/>
<path d="M180.07 66.1919C180.965 66.1919 181.692 65.4651 181.692 64.5686C181.692 63.6721 180.965 62.9453 180.07 62.9453C179.174 62.9453 178.447 63.6721 178.447 64.5686C178.447 65.4651 179.174 66.1919 180.07 66.1919Z" fill="#C4C4C4"/>
<path d="M180.07 78.0959C180.965 78.0959 181.692 77.3692 181.692 76.4727C181.692 75.5761 180.965 74.8494 180.07 74.8494C179.174 74.8494 178.447 75.5761 178.447 76.4727C178.447 77.3692 179.174 78.0959 180.07 78.0959Z" fill="#C4C4C4"/>
<path d="M180.07 90C180.965 90 181.692 89.2732 181.692 88.3767C181.692 87.4802 180.965 86.7534 180.07 86.7534C179.174 86.7534 178.447 87.4802 178.447 88.3767C178.447 89.2732 179.174 90 180.07 90Z" fill="#C4C4C4"/>
<path d="M191.966 18.5754C192.862 18.5754 193.588 17.8487 193.588 16.9521C193.588 16.0556 192.862 15.3289 191.966 15.3289C191.07 15.3289 190.344 16.0556 190.344 16.9521C190.344 17.8487 191.07 18.5754 191.966 18.5754Z" fill="#C4C4C4"/>
<path d="M191.966 30.4795C192.862 30.4795 193.588 29.7527 193.588 28.8562C193.588 27.9597 192.862 27.2329 191.966 27.2329C191.07 27.2329 190.344 27.9597 190.344 28.8562C190.344 29.7527 191.07 30.4795 191.966 30.4795Z" fill="#C4C4C4"/>
<path d="M191.966 42.3835C192.862 42.3835 193.588 41.6568 193.588 40.7603C193.588 39.8637 192.862 39.137 191.966 39.137C191.07 39.137 190.344 39.8637 190.344 40.7603C190.344 41.6568 191.07 42.3835 191.966 42.3835Z" fill="#C4C4C4"/>
<path d="M191.966 54.2876C192.862 54.2876 193.588 53.5608 193.588 52.6643C193.588 51.7678 192.862 51.041 191.966 51.041C191.07 51.041 190.344 51.7678 190.344 52.6643C190.344 53.5608 191.07 54.2876 191.966 54.2876Z" fill="#C4C4C4"/>
<path d="M191.966 66.1919C192.862 66.1919 193.588 65.4651 193.588 64.5686C193.588 63.6721 192.862 62.9453 191.966 62.9453C191.07 62.9453 190.344 63.6721 190.344 64.5686C190.344 65.4651 191.07 66.1919 191.966 66.1919Z" fill="#C4C4C4"/>
<path d="M191.966 78.0959C192.862 78.0959 193.588 77.3692 193.588 76.4727C193.588 75.5761 192.862 74.8494 191.966 74.8494C191.07 74.8494 190.344 75.5761 190.344 76.4727C190.344 77.3692 191.07 78.0959 191.966 78.0959Z" fill="#C4C4C4"/>
<path d="M191.966 90C192.862 90 193.588 89.2732 193.588 88.3767C193.588 87.4802 192.862 86.7534 191.966 86.7534C191.07 86.7534 190.344 87.4802 190.344 88.3767C190.344 89.2732 191.07 90 191.966 90Z" fill="#C4C4C4"/>
<path d="M203.862 18.5754C204.758 18.5754 205.485 17.8487 205.485 16.9521C205.485 16.0556 204.758 15.3289 203.862 15.3289C202.967 15.3289 202.24 16.0556 202.24 16.9521C202.24 17.8487 202.967 18.5754 203.862 18.5754Z" fill="#C4C4C4"/>
<path d="M203.862 30.4795C204.758 30.4795 205.485 29.7527 205.485 28.8562C205.485 27.9597 204.758 27.2329 203.862 27.2329C202.967 27.2329 202.24 27.9597 202.24 28.8562C202.24 29.7527 202.967 30.4795 203.862 30.4795Z" fill="#C4C4C4"/>
<path d="M203.862 42.3835C204.758 42.3835 205.485 41.6568 205.485 40.7603C205.485 39.8637 204.758 39.137 203.862 39.137C202.967 39.137 202.24 39.8637 202.24 40.7603C202.24 41.6568 202.967 42.3835 203.862 42.3835Z" fill="#C4C4C4"/>
<path d="M203.862 54.2876C204.758 54.2876 205.485 53.5608 205.485 52.6643C205.485 51.7678 204.758 51.041 203.862 51.041C202.967 51.041 202.24 51.7678 202.24 52.6643C202.24 53.5608 202.967 54.2876 203.862 54.2876Z" fill="#C4C4C4"/>
<path d="M203.862 66.1919C204.758 66.1919 205.485 65.4651 205.485 64.5686C205.485 63.6721 204.758 62.9453 203.862 62.9453C202.967 62.9453 202.24 63.6721 202.24 64.5686C202.24 65.4651 202.967 66.1919 203.862 66.1919Z" fill="#C4C4C4"/>
<path d="M203.862 78.0959C204.758 78.0959 205.485 77.3692 205.485 76.4727C205.485 75.5761 204.758 74.8494 203.862 74.8494C202.967 74.8494 202.24 75.5761 202.24 76.4727C202.24 77.3692 202.967 78.0959 203.862 78.0959Z" fill="#C4C4C4"/>
<path d="M203.862 90C204.758 90 205.485 89.2732 205.485 88.3767C205.485 87.4802 204.758 86.7534 203.862 86.7534C202.967 86.7534 202.24 87.4802 202.24 88.3767C202.24 89.2732 202.967 90 203.862 90Z" fill="#C4C4C4"/>
<path d="M215.759 18.5754C216.655 18.5754 217.381 17.8487 217.381 16.9521C217.381 16.0556 216.655 15.3289 215.759 15.3289C214.863 15.3289 214.137 16.0556 214.137 16.9521C214.137 17.8487 214.863 18.5754 215.759 18.5754Z" fill="#C4C4C4"/>
<path d="M215.759 30.4795C216.655 30.4795 217.381 29.7527 217.381 28.8562C217.381 27.9597 216.655 27.2329 215.759 27.2329C214.863 27.2329 214.137 27.9597 214.137 28.8562C214.137 29.7527 214.863 30.4795 215.759 30.4795Z" fill="#C4C4C4"/>
<path d="M215.759 42.3835C216.655 42.3835 217.381 41.6568 217.381 40.7603C217.381 39.8637 216.655 39.137 215.759 39.137C214.863 39.137 214.137 39.8637 214.137 40.7603C214.137 41.6568 214.863 42.3835 215.759 42.3835Z" fill="#C4C4C4"/>
<path d="M215.759 54.2876C216.655 54.2876 217.381 53.5608 217.381 52.6643C217.381 51.7678 216.655 51.041 215.759 51.041C214.863 51.041 214.137 51.7678 214.137 52.6643C214.137 53.5608 214.863 54.2876 215.759 54.2876Z" fill="#C4C4C4"/>
<path d="M215.759 66.1919C216.655 66.1919 217.381 65.4651 217.381 64.5686C217.381 63.6721 216.655 62.9453 215.759 62.9453C214.863 62.9453 214.137 63.6721 214.137 64.5686C214.137 65.4651 214.863 66.1919 215.759 66.1919Z" fill="#C4C4C4"/>
<path d="M215.759 78.0959C216.655 78.0959 217.381 77.3692 217.381 76.4727C217.381 75.5761 216.655 74.8494 215.759 74.8494C214.863 74.8494 214.137 75.5761 214.137 76.4727C214.137 77.3692 214.863 78.0959 215.759 78.0959Z" fill="#C4C4C4"/>
<path d="M215.759 90C216.655 90 217.381 89.2732 217.381 88.3767C217.381 87.4802 216.655 86.7534 215.759 86.7534C214.863 86.7534 214.137 87.4802 214.137 88.3767C214.137 89.2732 214.863 90 215.759 90Z" fill="#C4C4C4"/>
<path d="M227.655 18.5754C228.551 18.5754 229.278 17.8487 229.278 16.9521C229.278 16.0556 228.551 15.3289 227.655 15.3289C226.76 15.3289 226.033 16.0556 226.033 16.9521C226.033 17.8487 226.76 18.5754 227.655 18.5754Z" fill="#C4C4C4"/>
<path d="M227.655 30.4795C228.551 30.4795 229.278 29.7527 229.278 28.8562C229.278 27.9597 228.551 27.2329 227.655 27.2329C226.76 27.2329 226.033 27.9597 226.033 28.8562C226.033 29.7527 226.76 30.4795 227.655 30.4795Z" fill="#C4C4C4"/>
<path d="M227.655 42.3835C228.551 42.3835 229.278 41.6568 229.278 40.7603C229.278 39.8637 228.551 39.137 227.655 39.137C226.76 39.137 226.033 39.8637 226.033 40.7603C226.033 41.6568 226.76 42.3835 227.655 42.3835Z" fill="#C4C4C4"/>
<path d="M227.655 54.2876C228.551 54.2876 229.278 53.5608 229.278 52.6643C229.278 51.7678 228.551 51.041 227.655 51.041C226.76 51.041 226.033 51.7678 226.033 52.6643C226.033 53.5608 226.76 54.2876 227.655 54.2876Z" fill="#C4C4C4"/>
<path d="M227.655 66.1919C228.551 66.1919 229.278 65.4651 229.278 64.5686C229.278 63.6721 228.551 62.9453 227.655 62.9453C226.76 62.9453 226.033 63.6721 226.033 64.5686C226.033 65.4651 226.76 66.1919 227.655 66.1919Z" fill="#C4C4C4"/>
<path d="M227.655 78.0959C228.551 78.0959 229.278 77.3692 229.278 76.4727C229.278 75.5761 228.551 74.8494 227.655 74.8494C226.76 74.8494 226.033 75.5761 226.033 76.4727C226.033 77.3692 226.76 78.0959 227.655 78.0959Z" fill="#C4C4C4"/>
<path d="M227.655 90C228.551 90 229.278 89.2732 229.278 88.3767C229.278 87.4802 228.551 86.7534 227.655 86.7534C226.76 86.7534 226.033 87.4802 226.033 88.3767C226.033 89.2732 226.76 90 227.655 90Z" fill="#C4C4C4"/>
<path d="M239.552 18.5754C240.448 18.5754 241.174 17.8487 241.174 16.9521C241.174 16.0556 240.448 15.3289 239.552 15.3289C238.656 15.3289 237.93 16.0556 237.93 16.9521C237.93 17.8487 238.656 18.5754 239.552 18.5754Z" fill="#C4C4C4"/>
<path d="M239.552 30.4795C240.448 30.4795 241.174 29.7527 241.174 28.8562C241.174 27.9597 240.448 27.2329 239.552 27.2329C238.656 27.2329 237.93 27.9597 237.93 28.8562C237.93 29.7527 238.656 30.4795 239.552 30.4795Z" fill="#C4C4C4"/>
<path d="M239.552 42.3835C240.448 42.3835 241.174 41.6568 241.174 40.7603C241.174 39.8637 240.448 39.137 239.552 39.137C238.656 39.137 237.93 39.8637 237.93 40.7603C237.93 41.6568 238.656 42.3835 239.552 42.3835Z" fill="#C4C4C4"/>
<path d="M239.552 54.2876C240.448 54.2876 241.174 53.5608 241.174 52.6643C241.174 51.7678 240.448 51.041 239.552 51.041C238.656 51.041 237.93 51.7678 237.93 52.6643C237.93 53.5608 238.656 54.2876 239.552 54.2876Z" fill="#C4C4C4"/>
<path d="M239.552 66.1919C240.448 66.1919 241.174 65.4651 241.174 64.5686C241.174 63.6721 240.448 62.9453 239.552 62.9453C238.656 62.9453 237.93 63.6721 237.93 64.5686C237.93 65.4651 238.656 66.1919 239.552 66.1919Z" fill="#C4C4C4"/>
<path d="M239.552 78.0959C240.448 78.0959 241.174 77.3692 241.174 76.4727C241.174 75.5761 240.448 74.8494 239.552 74.8494C238.656 74.8494 237.93 75.5761 237.93 76.4727C237.93 77.3692 238.656 78.0959 239.552 78.0959Z" fill="#C4C4C4"/>
<path d="M239.552 90C240.448 90 241.174 89.2732 241.174 88.3767C241.174 87.4802 240.448 86.7534 239.552 86.7534C238.656 86.7534 237.93 87.4802 237.93 88.3767C237.93 89.2732 238.656 90 239.552 90Z" fill="#C4C4C4"/>
<path d="M251.448 18.5754C252.344 18.5754 253.071 17.8487 253.071 16.9521C253.071 16.0556 252.344 15.3289 251.448 15.3289C250.552 15.3289 249.826 16.0556 249.826 16.9521C249.826 17.8487 250.552 18.5754 251.448 18.5754Z" fill="#C4C4C4"/>
<path d="M251.448 30.4795C252.344 30.4795 253.071 29.7527 253.071 28.8562C253.071 27.9597 252.344 27.2329 251.448 27.2329C250.552 27.2329 249.826 27.9597 249.826 28.8562C249.826 29.7527 250.552 30.4795 251.448 30.4795Z" fill="#C4C4C4"/>
<path d="M251.448 42.3835C252.344 42.3835 253.071 41.6568 253.071 40.7603C253.071 39.8637 252.344 39.137 251.448 39.137C250.552 39.137 249.826 39.8637 249.826 40.7603C249.826 41.6568 250.552 42.3835 251.448 42.3835Z" fill="#C4C4C4"/>
<path d="M251.448 54.2876C252.344 54.2876 253.071 53.5608 253.071 52.6643C253.071 51.7678 252.344 51.041 251.448 51.041C250.552 51.041 249.826 51.7678 249.826 52.6643C249.826 53.5608 250.552 54.2876 251.448 54.2876Z" fill="#C4C4C4"/>
<path d="M251.448 66.1919C252.344 66.1919 253.071 65.4651 253.071 64.5686C253.071 63.6721 252.344 62.9453 251.448 62.9453C250.552 62.9453 249.826 63.6721 249.826 64.5686C249.826 65.4651 250.552 66.1919 251.448 66.1919Z" fill="#C4C4C4"/>
<path d="M251.448 78.0959C252.344 78.0959 253.071 77.3692 253.071 76.4727C253.071 75.5761 252.344 74.8494 251.448 74.8494C250.552 74.8494 249.826 75.5761 249.826 76.4727C249.826 77.3692 250.552 78.0959 251.448 78.0959Z" fill="#C4C4C4"/>
<path d="M251.448 90C252.344 90 253.071 89.2732 253.071 88.3767C253.071 87.4802 252.344 86.7534 251.448 86.7534C250.552 86.7534 249.826 87.4802 249.826 88.3767C249.826 89.2732 250.552 90 251.448 90Z" fill="#C4C4C4"/>
<path d="M263.345 18.5754C264.241 18.5754 264.967 17.8487 264.967 16.9521C264.967 16.0556 264.241 15.3289 263.345 15.3289C262.449 15.3289 261.723 16.0556 261.723 16.9521C261.723 17.8487 262.449 18.5754 263.345 18.5754Z" fill="#C4C4C4"/>
<path d="M263.345 30.4795C264.241 30.4795 264.967 29.7527 264.967 28.8562C264.967 27.9597 264.241 27.2329 263.345 27.2329C262.449 27.2329 261.723 27.9597 261.723 28.8562C261.723 29.7527 262.449 30.4795 263.345 30.4795Z" fill="#C4C4C4"/>
<path d="M263.345 42.3835C264.241 42.3835 264.967 41.6568 264.967 40.7603C264.967 39.8637 264.241 39.137 263.345 39.137C262.449 39.137 261.723 39.8637 261.723 40.7603C261.723 41.6568 262.449 42.3835 263.345 42.3835Z" fill="#C4C4C4"/>
<path d="M263.345 54.2876C264.241 54.2876 264.967 53.5608 264.967 52.6643C264.967 51.7678 264.241 51.041 263.345 51.041C262.449 51.041 261.723 51.7678 261.723 52.6643C261.723 53.5608 262.449 54.2876 263.345 54.2876Z" fill="#C4C4C4"/>
<path d="M263.345 66.1919C264.241 66.1919 264.967 65.4651 264.967 64.5686C264.967 63.6721 264.241 62.9453 263.345 62.9453C262.449 62.9453 261.723 63.6721 261.723 64.5686C261.723 65.4651 262.449 66.1919 263.345 66.1919Z" fill="#C4C4C4"/>
<path d="M263.345 78.0959C264.241 78.0959 264.967 77.3692 264.967 76.4727C264.967 75.5761 264.241 74.8494 263.345 74.8494C262.449 74.8494 261.723 75.5761 261.723 76.4727C261.723 77.3692 262.449 78.0959 263.345 78.0959Z" fill="#C4C4C4"/>
<path d="M263.345 90C264.241 90 264.967 89.2732 264.967 88.3767C264.967 87.4802 264.241 86.7534 263.345 86.7534C262.449 86.7534 261.723 87.4802 261.723 88.3767C261.723 89.2732 262.449 90 263.345 90Z" fill="#C4C4C4"/>
<path d="M275.241 18.5754C276.137 18.5754 276.864 17.8487 276.864 16.9521C276.864 16.0556 276.137 15.3289 275.241 15.3289C274.345 15.3289 273.619 16.0556 273.619 16.9521C273.619 17.8487 274.345 18.5754 275.241 18.5754Z" fill="#C4C4C4"/>
<path d="M275.241 30.4795C276.137 30.4795 276.864 29.7527 276.864 28.8562C276.864 27.9597 276.137 27.2329 275.241 27.2329C274.345 27.2329 273.619 27.9597 273.619 28.8562C273.619 29.7527 274.345 30.4795 275.241 30.4795Z" fill="#C4C4C4"/>
<path d="M275.241 42.3835C276.137 42.3835 276.864 41.6568 276.864 40.7603C276.864 39.8637 276.137 39.137 275.241 39.137C274.345 39.137 273.619 39.8637 273.619 40.7603C273.619 41.6568 274.345 42.3835 275.241 42.3835Z" fill="#C4C4C4"/>
<path d="M275.241 54.2876C276.137 54.2876 276.864 53.5608 276.864 52.6643C276.864 51.7678 276.137 51.041 275.241 51.041C274.345 51.041 273.619 51.7678 273.619 52.6643C273.619 53.5608 274.345 54.2876 275.241 54.2876Z" fill="#C4C4C4"/>
<path d="M275.241 66.1919C276.137 66.1919 276.864 65.4651 276.864 64.5686C276.864 63.6721 276.137 62.9453 275.241 62.9453C274.345 62.9453 273.619 63.6721 273.619 64.5686C273.619 65.4651 274.345 66.1919 275.241 66.1919Z" fill="#C4C4C4"/>
<path d="M275.241 78.0959C276.137 78.0959 276.864 77.3692 276.864 76.4727C276.864 75.5761 276.137 74.8494 275.241 74.8494C274.345 74.8494 273.619 75.5761 273.619 76.4727C273.619 77.3692 274.345 78.0959 275.241 78.0959Z" fill="#C4C4C4"/>
<path d="M275.241 90C276.137 90 276.864 89.2732 276.864 88.3767C276.864 87.4802 276.137 86.7534 275.241 86.7534C274.345 86.7534 273.619 87.4802 273.619 88.3767C273.619 89.2732 274.345 90 275.241 90Z" fill="#C4C4C4"/>
<path d="M287.138 18.5754C288.034 18.5754 288.76 17.8487 288.76 16.9521C288.76 16.0556 288.034 15.3289 287.138 15.3289C286.242 15.3289 285.516 16.0556 285.516 16.9521C285.516 17.8487 286.242 18.5754 287.138 18.5754Z" fill="#C4C4C4"/>
<path d="M287.138 30.4795C288.034 30.4795 288.76 29.7527 288.76 28.8562C288.76 27.9597 288.034 27.2329 287.138 27.2329C286.242 27.2329 285.516 27.9597 285.516 28.8562C285.516 29.7527 286.242 30.4795 287.138 30.4795Z" fill="#C4C4C4"/>
<path d="M287.138 42.3835C288.034 42.3835 288.76 41.6568 288.76 40.7603C288.76 39.8637 288.034 39.137 287.138 39.137C286.242 39.137 285.516 39.8637 285.516 40.7603C285.516 41.6568 286.242 42.3835 287.138 42.3835Z" fill="#C4C4C4"/>
<path d="M287.138 54.2876C288.034 54.2876 288.76 53.5608 288.76 52.6643C288.76 51.7678 288.034 51.041 287.138 51.041C286.242 51.041 285.516 51.7678 285.516 52.6643C285.516 53.5608 286.242 54.2876 287.138 54.2876Z" fill="#C4C4C4"/>
<path d="M287.138 66.1919C288.034 66.1919 288.76 65.4651 288.76 64.5686C288.76 63.6721 288.034 62.9453 287.138 62.9453C286.242 62.9453 285.516 63.6721 285.516 64.5686C285.516 65.4651 286.242 66.1919 287.138 66.1919Z" fill="#C4C4C4"/>
<path d="M287.138 78.0959C288.034 78.0959 288.76 77.3692 288.76 76.4727C288.76 75.5761 288.034 74.8494 287.138 74.8494C286.242 74.8494 285.516 75.5761 285.516 76.4727C285.516 77.3692 286.242 78.0959 287.138 78.0959Z" fill="#C4C4C4"/>
<path d="M287.138 90C288.034 90 288.76 89.2732 288.76 88.3767C288.76 87.4802 288.034 86.7534 287.138 86.7534C286.242 86.7534 285.516 87.4802 285.516 88.3767C285.516 89.2732 286.242 90 287.138 90Z" fill="#C4C4C4"/>
<path d="M299.034 18.5754C299.93 18.5754 300.657 17.8487 300.657 16.9521C300.657 16.0556 299.93 15.3289 299.034 15.3289C298.138 15.3289 297.412 16.0556 297.412 16.9521C297.412 17.8487 298.138 18.5754 299.034 18.5754Z" fill="#C4C4C4"/>
<path d="M299.034 30.4795C299.93 30.4795 300.657 29.7527 300.657 28.8562C300.657 27.9597 299.93 27.2329 299.034 27.2329C298.138 27.2329 297.412 27.9597 297.412 28.8562C297.412 29.7527 298.138 30.4795 299.034 30.4795Z" fill="#C4C4C4"/>
<path d="M299.034 42.3835C299.93 42.3835 300.657 41.6568 300.657 40.7603C300.657 39.8637 299.93 39.137 299.034 39.137C298.138 39.137 297.412 39.8637 297.412 40.7603C297.412 41.6568 298.138 42.3835 299.034 42.3835Z" fill="#C4C4C4"/>
<path d="M299.034 54.2876C299.93 54.2876 300.657 53.5608 300.657 52.6643C300.657 51.7678 299.93 51.041 299.034 51.041C298.138 51.041 297.412 51.7678 297.412 52.6643C297.412 53.5608 298.138 54.2876 299.034 54.2876Z" fill="#C4C4C4"/>
<path d="M299.034 66.1919C299.93 66.1919 300.657 65.4651 300.657 64.5686C300.657 63.6721 299.93 62.9453 299.034 62.9453C298.138 62.9453 297.412 63.6721 297.412 64.5686C297.412 65.4651 298.138 66.1919 299.034 66.1919Z" fill="#C4C4C4"/>
<path d="M299.034 78.0959C299.93 78.0959 300.657 77.3692 300.657 76.4727C300.657 75.5761 299.93 74.8494 299.034 74.8494C298.138 74.8494 297.412 75.5761 297.412 76.4727C297.412 77.3692 298.138 78.0959 299.034 78.0959Z" fill="#C4C4C4"/>
<path d="M299.034 90C299.93 90 300.657 89.2732 300.657 88.3767C300.657 87.4802 299.93 86.7534 299.034 86.7534C298.138 86.7534 297.412 87.4802 297.412 88.3767C297.412 89.2732 298.138 90 299.034 90Z" fill="#C4C4C4"/>
<path d="M310.931 18.5754C311.827 18.5754 312.553 17.8487 312.553 16.9521C312.553 16.0556 311.827 15.3289 310.931 15.3289C310.035 15.3289 309.309 16.0556 309.309 16.9521C309.309 17.8487 310.035 18.5754 310.931 18.5754Z" fill="#C4C4C4"/>
<path d="M310.931 30.4795C311.827 30.4795 312.553 29.7527 312.553 28.8562C312.553 27.9597 311.827 27.2329 310.931 27.2329C310.035 27.2329 309.309 27.9597 309.309 28.8562C309.309 29.7527 310.035 30.4795 310.931 30.4795Z" fill="#C4C4C4"/>
<path d="M310.931 42.3835C311.827 42.3835 312.553 41.6568 312.553 40.7603C312.553 39.8637 311.827 39.137 310.931 39.137C310.035 39.137 309.309 39.8637 309.309 40.7603C309.309 41.6568 310.035 42.3835 310.931 42.3835Z" fill="#C4C4C4"/>
<path d="M310.931 54.2876C311.827 54.2876 312.553 53.5608 312.553 52.6643C312.553 51.7678 311.827 51.041 310.931 51.041C310.035 51.041 309.309 51.7678 309.309 52.6643C309.309 53.5608 310.035 54.2876 310.931 54.2876Z" fill="#C4C4C4"/>
<path d="M310.931 66.1919C311.827 66.1919 312.553 65.4651 312.553 64.5686C312.553 63.6721 311.827 62.9453 310.931 62.9453C310.035 62.9453 309.309 63.6721 309.309 64.5686C309.309 65.4651 310.035 66.1919 310.931 66.1919Z" fill="#C4C4C4"/>
<path d="M310.931 78.0959C311.827 78.0959 312.553 77.3692 312.553 76.4727C312.553 75.5761 311.827 74.8494 310.931 74.8494C310.035 74.8494 309.309 75.5761 309.309 76.4727C309.309 77.3692 310.035 78.0959 310.931 78.0959Z" fill="#C4C4C4"/>
<path d="M310.931 90C311.827 90 312.553 89.2732 312.553 88.3767C312.553 87.4802 311.827 86.7534 310.931 86.7534C310.035 86.7534 309.309 87.4802 309.309 88.3767C309.309 89.2732 310.035 90 310.931 90Z" fill="#C4C4C4"/>
<path d="M322.827 18.5754C323.723 18.5754 324.45 17.8487 324.45 16.9521C324.45 16.0556 323.723 15.3289 322.827 15.3289C321.931 15.3289 321.205 16.0556 321.205 16.9521C321.205 17.8487 321.931 18.5754 322.827 18.5754Z" fill="#C4C4C4"/>
<path d="M322.827 30.4795C323.723 30.4795 324.45 29.7527 324.45 28.8562C324.45 27.9597 323.723 27.2329 322.827 27.2329C321.931 27.2329 321.205 27.9597 321.205 28.8562C321.205 29.7527 321.931 30.4795 322.827 30.4795Z" fill="#C4C4C4"/>
<path d="M322.827 42.3835C323.723 42.3835 324.45 41.6568 324.45 40.7603C324.45 39.8637 323.723 39.137 322.827 39.137C321.931 39.137 321.205 39.8637 321.205 40.7603C321.205 41.6568 321.931 42.3835 322.827 42.3835Z" fill="#C4C4C4"/>
<path d="M322.827 54.2876C323.723 54.2876 324.45 53.5608 324.45 52.6643C324.45 51.7678 323.723 51.041 322.827 51.041C321.931 51.041 321.205 51.7678 321.205 52.6643C321.205 53.5608 321.931 54.2876 322.827 54.2876Z" fill="#C4C4C4"/>
<path d="M322.827 66.1919C323.723 66.1919 324.45 65.4651 324.45 64.5686C324.45 63.6721 323.723 62.9453 322.827 62.9453C321.931 62.9453 321.205 63.6721 321.205 64.5686C321.205 65.4651 321.931 66.1919 322.827 66.1919Z" fill="#C4C4C4"/>
<path d="M322.827 78.0959C323.723 78.0959 324.45 77.3692 324.45 76.4727C324.45 75.5761 323.723 74.8494 322.827 74.8494C321.931 74.8494 321.205 75.5761 321.205 76.4727C321.205 77.3692 321.931 78.0959 322.827 78.0959Z" fill="#C4C4C4"/>
<path d="M322.827 90C323.723 90 324.45 89.2732 324.45 88.3767C324.45 87.4802 323.723 86.7534 322.827 86.7534C321.931 86.7534 321.205 87.4802 321.205 88.3767C321.205 89.2732 321.931 90 322.827 90Z" fill="#C4C4C4"/>
<path d="M334.724 6.67114C335.62 6.67114 336.346 5.94437 336.346 5.04785C336.346 4.15133 335.62 3.42456 334.724 3.42456C333.828 3.42456 333.102 4.15133 333.102 5.04785C333.102 5.94437 333.828 6.67114 334.724 6.67114Z" fill="#C4C4C4"/>
<path d="M346.62 6.67114C347.516 6.67114 348.243 5.94437 348.243 5.04785C348.243 4.15133 347.516 3.42456 346.62 3.42456C345.724 3.42456 344.998 4.15133 344.998 5.04785C344.998 5.94437 345.724 6.67114 346.62 6.67114Z" fill="#C4C4C4"/>
<path d="M358.517 6.67114C359.413 6.67114 360.139 5.94437 360.139 5.04785C360.139 4.15133 359.413 3.42456 358.517 3.42456C357.621 3.42456 356.895 4.15133 356.895 5.04785C356.895 5.94437 357.621 6.67114 358.517 6.67114Z" fill="#C4C4C4"/>
<path d="M370.413 6.67114C371.309 6.67114 372.036 5.94437 372.036 5.04785C372.036 4.15133 371.309 3.42456 370.413 3.42456C369.517 3.42456 368.791 4.15133 368.791 5.04785C368.791 5.94437 369.517 6.67114 370.413 6.67114Z" fill="#C4C4C4"/>
<path d="M382.31 6.67114C383.206 6.67114 383.932 5.94437 383.932 5.04785C383.932 4.15133 383.206 3.42456 382.31 3.42456C381.414 3.42456 380.688 4.15133 380.688 5.04785C380.688 5.94437 381.414 6.67114 382.31 6.67114Z" fill="#C4C4C4"/>
<path d="M394.206 6.67114C395.102 6.67114 395.828 5.94437 395.828 5.04785C395.828 4.15133 395.102 3.42456 394.206 3.42456C393.31 3.42456 392.584 4.15133 392.584 5.04785C392.584 5.94437 393.31 6.67114 394.206 6.67114Z" fill="#C4C4C4"/>
<path d="M406.103 6.67114C406.999 6.67114 407.725 5.94437 407.725 5.04785C407.725 4.15133 406.999 3.42456 406.103 3.42456C405.207 3.42456 404.48 4.15133 404.48 5.04785C404.48 5.94437 405.207 6.67114 406.103 6.67114Z" fill="#C4C4C4"/>
<path d="M417.999 6.67114C418.895 6.67114 419.621 5.94437 419.621 5.04785C419.621 4.15133 418.895 3.42456 417.999 3.42456C417.103 3.42456 416.377 4.15133 416.377 5.04785C416.377 5.94437 417.103 6.67114 417.999 6.67114Z" fill="#C4C4C4"/>
<path d="M429.896 6.67114C430.792 6.67114 431.518 5.94437 431.518 5.04785C431.518 4.15133 430.792 3.42456 429.896 3.42456C429 3.42456 428.273 4.15133 428.273 5.04785C428.273 5.94437 429 6.67114 429.896 6.67114Z" fill="#C4C4C4"/>
<path d="M441.792 6.67114C442.688 6.67114 443.414 5.94437 443.414 5.04785C443.414 4.15133 442.688 3.42456 441.792 3.42456C440.896 3.42456 440.17 4.15133 440.17 5.04785C440.17 5.94437 440.896 6.67114 441.792 6.67114Z" fill="#C4C4C4"/>
<path d="M453.688 6.67114C454.584 6.67114 455.31 5.94437 455.31 5.04785C455.31 4.15133 454.584 3.42456 453.688 3.42456C452.792 3.42456 452.066 4.15133 452.066 5.04785C452.066 5.94437 452.792 6.67114 453.688 6.67114Z" fill="#C4C4C4"/>
<path d="M465.585 6.67114C466.481 6.67114 467.207 5.94437 467.207 5.04785C467.207 4.15133 466.481 3.42456 465.585 3.42456C464.689 3.42456 463.963 4.15133 463.963 5.04785C463.963 5.94437 464.689 6.67114 465.585 6.67114Z" fill="#C4C4C4"/>
<path d="M477.482 6.67114C478.378 6.67114 479.104 5.94437 479.104 5.04785C479.104 4.15133 478.378 3.42456 477.482 3.42456C476.586 3.42456 475.859 4.15133 475.859 5.04785C475.859 5.94437 476.586 6.67114 477.482 6.67114Z" fill="#C4C4C4"/>
<path d="M489.378 6.67114C490.274 6.67114 491 5.94437 491 5.04785C491 4.15133 490.274 3.42456 489.378 3.42456C488.482 3.42456 487.755 4.15133 487.755 5.04785C487.755 5.94437 488.482 6.67114 489.378 6.67114Z" fill="#C4C4C4"/>
<path d="M334.724 18.5754C335.62 18.5754 336.346 17.8487 336.346 16.9521C336.346 16.0556 335.62 15.3289 334.724 15.3289C333.828 15.3289 333.102 16.0556 333.102 16.9521C333.102 17.8487 333.828 18.5754 334.724 18.5754Z" fill="#C4C4C4"/>
<path d="M334.724 30.4795C335.62 30.4795 336.346 29.7527 336.346 28.8562C336.346 27.9597 335.62 27.2329 334.724 27.2329C333.828 27.2329 333.102 27.9597 333.102 28.8562C333.102 29.7527 333.828 30.4795 334.724 30.4795Z" fill="#C4C4C4"/>
<path d="M334.724 42.3835C335.62 42.3835 336.346 41.6568 336.346 40.7603C336.346 39.8637 335.62 39.137 334.724 39.137C333.828 39.137 333.102 39.8637 333.102 40.7603C333.102 41.6568 333.828 42.3835 334.724 42.3835Z" fill="#C4C4C4"/>
<path d="M334.724 54.2876C335.62 54.2876 336.346 53.5608 336.346 52.6643C336.346 51.7678 335.62 51.041 334.724 51.041C333.828 51.041 333.102 51.7678 333.102 52.6643C333.102 53.5608 333.828 54.2876 334.724 54.2876Z" fill="#C4C4C4"/>
<path d="M334.724 66.1919C335.62 66.1919 336.346 65.4651 336.346 64.5686C336.346 63.6721 335.62 62.9453 334.724 62.9453C333.828 62.9453 333.102 63.6721 333.102 64.5686C333.102 65.4651 333.828 66.1919 334.724 66.1919Z" fill="#C4C4C4"/>
<path d="M334.724 78.0959C335.62 78.0959 336.346 77.3692 336.346 76.4727C336.346 75.5761 335.62 74.8494 334.724 74.8494C333.828 74.8494 333.102 75.5761 333.102 76.4727C333.102 77.3692 333.828 78.0959 334.724 78.0959Z" fill="#C4C4C4"/>
<path d="M334.724 90C335.62 90 336.346 89.2732 336.346 88.3767C336.346 87.4802 335.62 86.7534 334.724 86.7534C333.828 86.7534 333.102 87.4802 333.102 88.3767C333.102 89.2732 333.828 90 334.724 90Z" fill="#C4C4C4"/>
<path d="M346.62 18.5754C347.516 18.5754 348.243 17.8487 348.243 16.9521C348.243 16.0556 347.516 15.3289 346.62 15.3289C345.724 15.3289 344.998 16.0556 344.998 16.9521C344.998 17.8487 345.724 18.5754 346.62 18.5754Z" fill="#C4C4C4"/>
<path d="M346.62 30.4795C347.516 30.4795 348.243 29.7527 348.243 28.8562C348.243 27.9597 347.516 27.2329 346.62 27.2329C345.724 27.2329 344.998 27.9597 344.998 28.8562C344.998 29.7527 345.724 30.4795 346.62 30.4795Z" fill="#C4C4C4"/>
<path d="M346.62 42.3835C347.516 42.3835 348.243 41.6568 348.243 40.7603C348.243 39.8637 347.516 39.137 346.62 39.137C345.724 39.137 344.998 39.8637 344.998 40.7603C344.998 41.6568 345.724 42.3835 346.62 42.3835Z" fill="#C4C4C4"/>
<path d="M346.62 54.2876C347.516 54.2876 348.243 53.5608 348.243 52.6643C348.243 51.7678 347.516 51.041 346.62 51.041C345.724 51.041 344.998 51.7678 344.998 52.6643C344.998 53.5608 345.724 54.2876 346.62 54.2876Z" fill="#C4C4C4"/>
<path d="M346.62 66.1919C347.516 66.1919 348.243 65.4651 348.243 64.5686C348.243 63.6721 347.516 62.9453 346.62 62.9453C345.724 62.9453 344.998 63.6721 344.998 64.5686C344.998 65.4651 345.724 66.1919 346.62 66.1919Z" fill="#C4C4C4"/>
<path d="M346.62 78.0959C347.516 78.0959 348.243 77.3692 348.243 76.4727C348.243 75.5761 347.516 74.8494 346.62 74.8494C345.724 74.8494 344.998 75.5761 344.998 76.4727C344.998 77.3692 345.724 78.0959 346.62 78.0959Z" fill="#C4C4C4"/>
<path d="M346.62 90C347.516 90 348.243 89.2732 348.243 88.3767C348.243 87.4802 347.516 86.7534 346.62 86.7534C345.724 86.7534 344.998 87.4802 344.998 88.3767C344.998 89.2732 345.724 90 346.62 90Z" fill="#C4C4C4"/>
<path d="M358.517 18.5754C359.413 18.5754 360.139 17.8487 360.139 16.9521C360.139 16.0556 359.413 15.3289 358.517 15.3289C357.621 15.3289 356.895 16.0556 356.895 16.9521C356.895 17.8487 357.621 18.5754 358.517 18.5754Z" fill="#C4C4C4"/>
<path d="M358.517 30.4795C359.413 30.4795 360.139 29.7527 360.139 28.8562C360.139 27.9597 359.413 27.2329 358.517 27.2329C357.621 27.2329 356.895 27.9597 356.895 28.8562C356.895 29.7527 357.621 30.4795 358.517 30.4795Z" fill="#C4C4C4"/>
<path d="M358.517 42.3835C359.413 42.3835 360.139 41.6568 360.139 40.7603C360.139 39.8637 359.413 39.137 358.517 39.137C357.621 39.137 356.895 39.8637 356.895 40.7603C356.895 41.6568 357.621 42.3835 358.517 42.3835Z" fill="#C4C4C4"/>
<path d="M358.517 54.2876C359.413 54.2876 360.139 53.5608 360.139 52.6643C360.139 51.7678 359.413 51.041 358.517 51.041C357.621 51.041 356.895 51.7678 356.895 52.6643C356.895 53.5608 357.621 54.2876 358.517 54.2876Z" fill="#C4C4C4"/>
<path d="M358.517 66.1919C359.413 66.1919 360.139 65.4651 360.139 64.5686C360.139 63.6721 359.413 62.9453 358.517 62.9453C357.621 62.9453 356.895 63.6721 356.895 64.5686C356.895 65.4651 357.621 66.1919 358.517 66.1919Z" fill="#C4C4C4"/>
<path d="M358.517 78.0959C359.413 78.0959 360.139 77.3692 360.139 76.4727C360.139 75.5761 359.413 74.8494 358.517 74.8494C357.621 74.8494 356.895 75.5761 356.895 76.4727C356.895 77.3692 357.621 78.0959 358.517 78.0959Z" fill="#C4C4C4"/>
<path d="M358.517 90C359.413 90 360.139 89.2732 360.139 88.3767C360.139 87.4802 359.413 86.7534 358.517 86.7534C357.621 86.7534 356.895 87.4802 356.895 88.3767C356.895 89.2732 357.621 90 358.517 90Z" fill="#C4C4C4"/>
<path d="M370.413 18.5754C371.309 18.5754 372.036 17.8487 372.036 16.9521C372.036 16.0556 371.309 15.3289 370.413 15.3289C369.517 15.3289 368.791 16.0556 368.791 16.9521C368.791 17.8487 369.517 18.5754 370.413 18.5754Z" fill="#C4C4C4"/>
<path d="M370.413 30.4795C371.309 30.4795 372.036 29.7527 372.036 28.8562C372.036 27.9597 371.309 27.2329 370.413 27.2329C369.517 27.2329 368.791 27.9597 368.791 28.8562C368.791 29.7527 369.517 30.4795 370.413 30.4795Z" fill="#C4C4C4"/>
<path d="M370.413 42.3835C371.309 42.3835 372.036 41.6568 372.036 40.7603C372.036 39.8637 371.309 39.137 370.413 39.137C369.517 39.137 368.791 39.8637 368.791 40.7603C368.791 41.6568 369.517 42.3835 370.413 42.3835Z" fill="#C4C4C4"/>
<path d="M370.413 54.2876C371.309 54.2876 372.036 53.5608 372.036 52.6643C372.036 51.7678 371.309 51.041 370.413 51.041C369.517 51.041 368.791 51.7678 368.791 52.6643C368.791 53.5608 369.517 54.2876 370.413 54.2876Z" fill="#C4C4C4"/>
<path d="M370.413 66.1919C371.309 66.1919 372.036 65.4651 372.036 64.5686C372.036 63.6721 371.309 62.9453 370.413 62.9453C369.517 62.9453 368.791 63.6721 368.791 64.5686C368.791 65.4651 369.517 66.1919 370.413 66.1919Z" fill="#C4C4C4"/>
<path d="M370.413 78.0959C371.309 78.0959 372.036 77.3692 372.036 76.4727C372.036 75.5761 371.309 74.8494 370.413 74.8494C369.517 74.8494 368.791 75.5761 368.791 76.4727C368.791 77.3692 369.517 78.0959 370.413 78.0959Z" fill="#C4C4C4"/>
<path d="M370.413 90C371.309 90 372.036 89.2732 372.036 88.3767C372.036 87.4802 371.309 86.7534 370.413 86.7534C369.517 86.7534 368.791 87.4802 368.791 88.3767C368.791 89.2732 369.517 90 370.413 90Z" fill="#C4C4C4"/>
<path d="M382.31 18.5754C383.206 18.5754 383.932 17.8487 383.932 16.9521C383.932 16.0556 383.206 15.3289 382.31 15.3289C381.414 15.3289 380.688 16.0556 380.688 16.9521C380.688 17.8487 381.414 18.5754 382.31 18.5754Z" fill="#C4C4C4"/>
<path d="M382.31 30.4795C383.206 30.4795 383.932 29.7527 383.932 28.8562C383.932 27.9597 383.206 27.2329 382.31 27.2329C381.414 27.2329 380.688 27.9597 380.688 28.8562C380.688 29.7527 381.414 30.4795 382.31 30.4795Z" fill="#C4C4C4"/>
<path d="M382.31 42.3835C383.206 42.3835 383.932 41.6568 383.932 40.7603C383.932 39.8637 383.206 39.137 382.31 39.137C381.414 39.137 380.688 39.8637 380.688 40.7603C380.688 41.6568 381.414 42.3835 382.31 42.3835Z" fill="#C4C4C4"/>
<path d="M382.31 54.2876C383.206 54.2876 383.932 53.5608 383.932 52.6643C383.932 51.7678 383.206 51.041 382.31 51.041C381.414 51.041 380.688 51.7678 380.688 52.6643C380.688 53.5608 381.414 54.2876 382.31 54.2876Z" fill="#C4C4C4"/>
<path d="M382.31 66.1919C383.206 66.1919 383.932 65.4651 383.932 64.5686C383.932 63.6721 383.206 62.9453 382.31 62.9453C381.414 62.9453 380.688 63.6721 380.688 64.5686C380.688 65.4651 381.414 66.1919 382.31 66.1919Z" fill="#C4C4C4"/>
<path d="M382.31 78.0959C383.206 78.0959 383.932 77.3692 383.932 76.4727C383.932 75.5761 383.206 74.8494 382.31 74.8494C381.414 74.8494 380.688 75.5761 380.688 76.4727C380.688 77.3692 381.414 78.0959 382.31 78.0959Z" fill="#C4C4C4"/>
<path d="M382.31 90C383.206 90 383.932 89.2732 383.932 88.3767C383.932 87.4802 383.206 86.7534 382.31 86.7534C381.414 86.7534 380.688 87.4802 380.688 88.3767C380.688 89.2732 381.414 90 382.31 90Z" fill="#C4C4C4"/>
<path d="M394.206 18.5754C395.102 18.5754 395.828 17.8487 395.828 16.9521C395.828 16.0556 395.102 15.3289 394.206 15.3289C393.31 15.3289 392.584 16.0556 392.584 16.9521C392.584 17.8487 393.31 18.5754 394.206 18.5754Z" fill="#C4C4C4"/>
<path d="M394.206 30.4795C395.102 30.4795 395.828 29.7527 395.828 28.8562C395.828 27.9597 395.102 27.2329 394.206 27.2329C393.31 27.2329 392.584 27.9597 392.584 28.8562C392.584 29.7527 393.31 30.4795 394.206 30.4795Z" fill="#C4C4C4"/>
<path d="M394.206 42.3835C395.102 42.3835 395.828 41.6568 395.828 40.7603C395.828 39.8637 395.102 39.137 394.206 39.137C393.31 39.137 392.584 39.8637 392.584 40.7603C392.584 41.6568 393.31 42.3835 394.206 42.3835Z" fill="#C4C4C4"/>
<path d="M394.206 54.2876C395.102 54.2876 395.828 53.5608 395.828 52.6643C395.828 51.7678 395.102 51.041 394.206 51.041C393.31 51.041 392.584 51.7678 392.584 52.6643C392.584 53.5608 393.31 54.2876 394.206 54.2876Z" fill="#C4C4C4"/>
<path d="M394.206 66.1919C395.102 66.1919 395.828 65.4651 395.828 64.5686C395.828 63.6721 395.102 62.9453 394.206 62.9453C393.31 62.9453 392.584 63.6721 392.584 64.5686C392.584 65.4651 393.31 66.1919 394.206 66.1919Z" fill="#C4C4C4"/>
<path d="M394.206 78.0959C395.102 78.0959 395.828 77.3692 395.828 76.4727C395.828 75.5761 395.102 74.8494 394.206 74.8494C393.31 74.8494 392.584 75.5761 392.584 76.4727C392.584 77.3692 393.31 78.0959 394.206 78.0959Z" fill="#C4C4C4"/>
<path d="M394.206 90C395.102 90 395.828 89.2732 395.828 88.3767C395.828 87.4802 395.102 86.7534 394.206 86.7534C393.31 86.7534 392.584 87.4802 392.584 88.3767C392.584 89.2732 393.31 90 394.206 90Z" fill="#C4C4C4"/>
<path d="M406.103 18.5754C406.999 18.5754 407.725 17.8487 407.725 16.9521C407.725 16.0556 406.999 15.3289 406.103 15.3289C405.207 15.3289 404.48 16.0556 404.48 16.9521C404.48 17.8487 405.207 18.5754 406.103 18.5754Z" fill="#C4C4C4"/>
<path d="M406.103 30.4795C406.999 30.4795 407.725 29.7527 407.725 28.8562C407.725 27.9597 406.999 27.2329 406.103 27.2329C405.207 27.2329 404.48 27.9597 404.48 28.8562C404.48 29.7527 405.207 30.4795 406.103 30.4795Z" fill="#C4C4C4"/>
<path d="M406.103 42.3835C406.999 42.3835 407.725 41.6568 407.725 40.7603C407.725 39.8637 406.999 39.137 406.103 39.137C405.207 39.137 404.48 39.8637 404.48 40.7603C404.48 41.6568 405.207 42.3835 406.103 42.3835Z" fill="#C4C4C4"/>
<path d="M406.103 54.2876C406.999 54.2876 407.725 53.5608 407.725 52.6643C407.725 51.7678 406.999 51.041 406.103 51.041C405.207 51.041 404.48 51.7678 404.48 52.6643C404.48 53.5608 405.207 54.2876 406.103 54.2876Z" fill="#C4C4C4"/>
<path d="M406.103 66.1919C406.999 66.1919 407.725 65.4651 407.725 64.5686C407.725 63.6721 406.999 62.9453 406.103 62.9453C405.207 62.9453 404.48 63.6721 404.48 64.5686C404.48 65.4651 405.207 66.1919 406.103 66.1919Z" fill="#C4C4C4"/>
<path d="M406.103 78.0959C406.999 78.0959 407.725 77.3692 407.725 76.4727C407.725 75.5761 406.999 74.8494 406.103 74.8494C405.207 74.8494 404.48 75.5761 404.48 76.4727C404.48 77.3692 405.207 78.0959 406.103 78.0959Z" fill="#C4C4C4"/>
<path d="M406.103 90C406.999 90 407.725 89.2732 407.725 88.3767C407.725 87.4802 406.999 86.7534 406.103 86.7534C405.207 86.7534 404.48 87.4802 404.48 88.3767C404.48 89.2732 405.207 90 406.103 90Z" fill="#C4C4C4"/>
<path d="M417.999 18.5754C418.895 18.5754 419.621 17.8487 419.621 16.9521C419.621 16.0556 418.895 15.3289 417.999 15.3289C417.103 15.3289 416.377 16.0556 416.377 16.9521C416.377 17.8487 417.103 18.5754 417.999 18.5754Z" fill="#C4C4C4"/>
<path d="M417.999 30.4795C418.895 30.4795 419.621 29.7527 419.621 28.8562C419.621 27.9597 418.895 27.2329 417.999 27.2329C417.103 27.2329 416.377 27.9597 416.377 28.8562C416.377 29.7527 417.103 30.4795 417.999 30.4795Z" fill="#C4C4C4"/>
<path d="M417.999 42.3835C418.895 42.3835 419.621 41.6568 419.621 40.7603C419.621 39.8637 418.895 39.137 417.999 39.137C417.103 39.137 416.377 39.8637 416.377 40.7603C416.377 41.6568 417.103 42.3835 417.999 42.3835Z" fill="#C4C4C4"/>
<path d="M417.999 54.2876C418.895 54.2876 419.621 53.5608 419.621 52.6643C419.621 51.7678 418.895 51.041 417.999 51.041C417.103 51.041 416.377 51.7678 416.377 52.6643C416.377 53.5608 417.103 54.2876 417.999 54.2876Z" fill="#C4C4C4"/>
<path d="M417.999 66.1919C418.895 66.1919 419.621 65.4651 419.621 64.5686C419.621 63.6721 418.895 62.9453 417.999 62.9453C417.103 62.9453 416.377 63.6721 416.377 64.5686C416.377 65.4651 417.103 66.1919 417.999 66.1919Z" fill="#C4C4C4"/>
<path d="M417.999 78.0959C418.895 78.0959 419.621 77.3692 419.621 76.4727C419.621 75.5761 418.895 74.8494 417.999 74.8494C417.103 74.8494 416.377 75.5761 416.377 76.4727C416.377 77.3692 417.103 78.0959 417.999 78.0959Z" fill="#C4C4C4"/>
<path d="M417.999 90C418.895 90 419.621 89.2732 419.621 88.3767C419.621 87.4802 418.895 86.7534 417.999 86.7534C417.103 86.7534 416.377 87.4802 416.377 88.3767C416.377 89.2732 417.103 90 417.999 90Z" fill="#C4C4C4"/>
<path d="M429.896 18.5754C430.792 18.5754 431.518 17.8487 431.518 16.9521C431.518 16.0556 430.792 15.3289 429.896 15.3289C429 15.3289 428.273 16.0556 428.273 16.9521C428.273 17.8487 429 18.5754 429.896 18.5754Z" fill="#C4C4C4"/>
<path d="M429.896 30.4795C430.792 30.4795 431.518 29.7527 431.518 28.8562C431.518 27.9597 430.792 27.2329 429.896 27.2329C429 27.2329 428.273 27.9597 428.273 28.8562C428.273 29.7527 429 30.4795 429.896 30.4795Z" fill="#C4C4C4"/>
<path d="M429.896 42.3835C430.792 42.3835 431.518 41.6568 431.518 40.7603C431.518 39.8637 430.792 39.137 429.896 39.137C429 39.137 428.273 39.8637 428.273 40.7603C428.273 41.6568 429 42.3835 429.896 42.3835Z" fill="#C4C4C4"/>
<path d="M429.896 54.2876C430.792 54.2876 431.518 53.5608 431.518 52.6643C431.518 51.7678 430.792 51.041 429.896 51.041C429 51.041 428.273 51.7678 428.273 52.6643C428.273 53.5608 429 54.2876 429.896 54.2876Z" fill="#C4C4C4"/>
<path d="M429.896 66.1919C430.792 66.1919 431.518 65.4651 431.518 64.5686C431.518 63.6721 430.792 62.9453 429.896 62.9453C429 62.9453 428.273 63.6721 428.273 64.5686C428.273 65.4651 429 66.1919 429.896 66.1919Z" fill="#C4C4C4"/>
<path d="M429.896 78.0959C430.792 78.0959 431.518 77.3692 431.518 76.4727C431.518 75.5761 430.792 74.8494 429.896 74.8494C429 74.8494 428.273 75.5761 428.273 76.4727C428.273 77.3692 429 78.0959 429.896 78.0959Z" fill="#C4C4C4"/>
<path d="M429.896 90C430.792 90 431.518 89.2732 431.518 88.3767C431.518 87.4802 430.792 86.7534 429.896 86.7534C429 86.7534 428.273 87.4802 428.273 88.3767C428.273 89.2732 429 90 429.896 90Z" fill="#C4C4C4"/>
<path d="M441.792 18.5754C442.688 18.5754 443.414 17.8487 443.414 16.9521C443.414 16.0556 442.688 15.3289 441.792 15.3289C440.896 15.3289 440.17 16.0556 440.17 16.9521C440.17 17.8487 440.896 18.5754 441.792 18.5754Z" fill="#C4C4C4"/>
<path d="M441.792 30.4795C442.688 30.4795 443.414 29.7527 443.414 28.8562C443.414 27.9597 442.688 27.2329 441.792 27.2329C440.896 27.2329 440.17 27.9597 440.17 28.8562C440.17 29.7527 440.896 30.4795 441.792 30.4795Z" fill="#C4C4C4"/>
<path d="M441.792 42.3835C442.688 42.3835 443.414 41.6568 443.414 40.7603C443.414 39.8637 442.688 39.137 441.792 39.137C440.896 39.137 440.17 39.8637 440.17 40.7603C440.17 41.6568 440.896 42.3835 441.792 42.3835Z" fill="#C4C4C4"/>
<path d="M441.792 54.2876C442.688 54.2876 443.414 53.5608 443.414 52.6643C443.414 51.7678 442.688 51.041 441.792 51.041C440.896 51.041 440.17 51.7678 440.17 52.6643C440.17 53.5608 440.896 54.2876 441.792 54.2876Z" fill="#C4C4C4"/>
<path d="M441.792 66.1919C442.688 66.1919 443.414 65.4651 443.414 64.5686C443.414 63.6721 442.688 62.9453 441.792 62.9453C440.896 62.9453 440.17 63.6721 440.17 64.5686C440.17 65.4651 440.896 66.1919 441.792 66.1919Z" fill="#C4C4C4"/>
<path d="M441.792 78.0959C442.688 78.0959 443.414 77.3692 443.414 76.4727C443.414 75.5761 442.688 74.8494 441.792 74.8494C440.896 74.8494 440.17 75.5761 440.17 76.4727C440.17 77.3692 440.896 78.0959 441.792 78.0959Z" fill="#C4C4C4"/>
<path d="M441.792 90C442.688 90 443.414 89.2732 443.414 88.3767C443.414 87.4802 442.688 86.7534 441.792 86.7534C440.896 86.7534 440.17 87.4802 440.17 88.3767C440.17 89.2732 440.896 90 441.792 90Z" fill="#C4C4C4"/>
<path d="M453.688 18.5754C454.584 18.5754 455.31 17.8487 455.31 16.9521C455.31 16.0556 454.584 15.3289 453.688 15.3289C452.792 15.3289 452.066 16.0556 452.066 16.9521C452.066 17.8487 452.792 18.5754 453.688 18.5754Z" fill="#C4C4C4"/>
<path d="M453.688 30.4795C454.584 30.4795 455.31 29.7527 455.31 28.8562C455.31 27.9597 454.584 27.2329 453.688 27.2329C452.792 27.2329 452.066 27.9597 452.066 28.8562C452.066 29.7527 452.792 30.4795 453.688 30.4795Z" fill="#C4C4C4"/>
<path d="M453.688 42.3835C454.584 42.3835 455.31 41.6568 455.31 40.7603C455.31 39.8637 454.584 39.137 453.688 39.137C452.792 39.137 452.066 39.8637 452.066 40.7603C452.066 41.6568 452.792 42.3835 453.688 42.3835Z" fill="#C4C4C4"/>
<path d="M453.688 54.2876C454.584 54.2876 455.31 53.5608 455.31 52.6643C455.31 51.7678 454.584 51.041 453.688 51.041C452.792 51.041 452.066 51.7678 452.066 52.6643C452.066 53.5608 452.792 54.2876 453.688 54.2876Z" fill="#C4C4C4"/>
<path d="M453.688 66.1919C454.584 66.1919 455.31 65.4651 455.31 64.5686C455.31 63.6721 454.584 62.9453 453.688 62.9453C452.792 62.9453 452.066 63.6721 452.066 64.5686C452.066 65.4651 452.792 66.1919 453.688 66.1919Z" fill="#C4C4C4"/>
<path d="M453.688 78.0959C454.584 78.0959 455.31 77.3692 455.31 76.4727C455.31 75.5761 454.584 74.8494 453.688 74.8494C452.792 74.8494 452.066 75.5761 452.066 76.4727C452.066 77.3692 452.792 78.0959 453.688 78.0959Z" fill="#C4C4C4"/>
<path d="M453.688 90C454.584 90 455.31 89.2732 455.31 88.3767C455.31 87.4802 454.584 86.7534 453.688 86.7534C452.792 86.7534 452.066 87.4802 452.066 88.3767C452.066 89.2732 452.792 90 453.688 90Z" fill="#C4C4C4"/>
<path d="M465.585 18.5754C466.481 18.5754 467.207 17.8487 467.207 16.9521C467.207 16.0556 466.481 15.3289 465.585 15.3289C464.689 15.3289 463.963 16.0556 463.963 16.9521C463.963 17.8487 464.689 18.5754 465.585 18.5754Z" fill="#C4C4C4"/>
<path d="M465.585 30.4795C466.481 30.4795 467.207 29.7527 467.207 28.8562C467.207 27.9597 466.481 27.2329 465.585 27.2329C464.689 27.2329 463.963 27.9597 463.963 28.8562C463.963 29.7527 464.689 30.4795 465.585 30.4795Z" fill="#C4C4C4"/>
<path d="M465.585 42.3835C466.481 42.3835 467.207 41.6568 467.207 40.7603C467.207 39.8637 466.481 39.137 465.585 39.137C464.689 39.137 463.963 39.8637 463.963 40.7603C463.963 41.6568 464.689 42.3835 465.585 42.3835Z" fill="#C4C4C4"/>
<path d="M465.585 54.2876C466.481 54.2876 467.207 53.5608 467.207 52.6643C467.207 51.7678 466.481 51.041 465.585 51.041C464.689 51.041 463.963 51.7678 463.963 52.6643C463.963 53.5608 464.689 54.2876 465.585 54.2876Z" fill="#C4C4C4"/>
<path d="M465.585 66.1919C466.481 66.1919 467.207 65.4651 467.207 64.5686C467.207 63.6721 466.481 62.9453 465.585 62.9453C464.689 62.9453 463.963 63.6721 463.963 64.5686C463.963 65.4651 464.689 66.1919 465.585 66.1919Z" fill="#C4C4C4"/>
<path d="M465.585 78.0959C466.481 78.0959 467.207 77.3692 467.207 76.4727C467.207 75.5761 466.481 74.8494 465.585 74.8494C464.689 74.8494 463.963 75.5761 463.963 76.4727C463.963 77.3692 464.689 78.0959 465.585 78.0959Z" fill="#C4C4C4"/>
<path d="M465.585 90C466.481 90 467.207 89.2732 467.207 88.3767C467.207 87.4802 466.481 86.7534 465.585 86.7534C464.689 86.7534 463.963 87.4802 463.963 88.3767C463.963 89.2732 464.689 90 465.585 90Z" fill="#C4C4C4"/>
<path d="M477.482 18.5754C478.378 18.5754 479.104 17.8487 479.104 16.9521C479.104 16.0556 478.378 15.3289 477.482 15.3289C476.586 15.3289 475.859 16.0556 475.859 16.9521C475.859 17.8487 476.586 18.5754 477.482 18.5754Z" fill="#C4C4C4"/>
<path d="M477.482 30.4795C478.378 30.4795 479.104 29.7527 479.104 28.8562C479.104 27.9597 478.378 27.2329 477.482 27.2329C476.586 27.2329 475.859 27.9597 475.859 28.8562C475.859 29.7527 476.586 30.4795 477.482 30.4795Z" fill="#C4C4C4"/>
<path d="M477.482 42.3835C478.378 42.3835 479.104 41.6568 479.104 40.7603C479.104 39.8637 478.378 39.137 477.482 39.137C476.586 39.137 475.859 39.8637 475.859 40.7603C475.859 41.6568 476.586 42.3835 477.482 42.3835Z" fill="#C4C4C4"/>
<path d="M477.482 54.2876C478.378 54.2876 479.104 53.5608 479.104 52.6643C479.104 51.7678 478.378 51.041 477.482 51.041C476.586 51.041 475.859 51.7678 475.859 52.6643C475.859 53.5608 476.586 54.2876 477.482 54.2876Z" fill="#C4C4C4"/>
<path d="M477.482 66.1919C478.378 66.1919 479.104 65.4651 479.104 64.5686C479.104 63.6721 478.378 62.9453 477.482 62.9453C476.586 62.9453 475.859 63.6721 475.859 64.5686C475.859 65.4651 476.586 66.1919 477.482 66.1919Z" fill="#C4C4C4"/>
<path d="M477.482 78.0959C478.378 78.0959 479.104 77.3692 479.104 76.4727C479.104 75.5761 478.378 74.8494 477.482 74.8494C476.586 74.8494 475.859 75.5761 475.859 76.4727C475.859 77.3692 476.586 78.0959 477.482 78.0959Z" fill="#C4C4C4"/>
<path d="M477.482 90C478.378 90 479.104 89.2732 479.104 88.3767C479.104 87.4802 478.378 86.7534 477.482 86.7534C476.586 86.7534 475.859 87.4802 475.859 88.3767C475.859 89.2732 476.586 90 477.482 90Z" fill="#C4C4C4"/>
<path d="M489.378 18.5754C490.274 18.5754 491 17.8487 491 16.9521C491 16.0556 490.274 15.3289 489.378 15.3289C488.482 15.3289 487.755 16.0556 487.755 16.9521C487.755 17.8487 488.482 18.5754 489.378 18.5754Z" fill="#C4C4C4"/>
<path d="M489.378 30.4795C490.274 30.4795 491 29.7527 491 28.8562C491 27.9597 490.274 27.2329 489.378 27.2329C488.482 27.2329 487.755 27.9597 487.755 28.8562C487.755 29.7527 488.482 30.4795 489.378 30.4795Z" fill="#C4C4C4"/>
<path d="M489.378 42.3835C490.274 42.3835 491 41.6568 491 40.7603C491 39.8637 490.274 39.137 489.378 39.137C488.482 39.137 487.755 39.8637 487.755 40.7603C487.755 41.6568 488.482 42.3835 489.378 42.3835Z" fill="#C4C4C4"/>
<path d="M489.378 54.2876C490.274 54.2876 491 53.5608 491 52.6643C491 51.7678 490.274 51.041 489.378 51.041C488.482 51.041 487.755 51.7678 487.755 52.6643C487.755 53.5608 488.482 54.2876 489.378 54.2876Z" fill="#C4C4C4"/>
<path d="M489.378 66.1919C490.274 66.1919 491 65.4651 491 64.5686C491 63.6721 490.274 62.9453 489.378 62.9453C488.482 62.9453 487.755 63.6721 487.755 64.5686C487.755 65.4651 488.482 66.1919 489.378 66.1919Z" fill="#C4C4C4"/>
<path d="M489.378 78.0959C490.274 78.0959 491 77.3692 491 76.4727C491 75.5761 490.274 74.8494 489.378 74.8494C488.482 74.8494 487.755 75.5761 487.755 76.4727C487.755 77.3692 488.482 78.0959 489.378 78.0959Z" fill="#C4C4C4"/>
<path d="M489.378 90C490.274 90 491 89.2732 491 88.3767C491 87.4802 490.274 86.7534 489.378 86.7534C488.482 86.7534 487.755 87.4802 487.755 88.3767C487.755 89.2732 488.482 90 489.378 90Z" fill="#C4C4C4"/>
</g>
<defs>
<clipPath id="clip0_40_19442">
<rect width="491" height="90" fill="white"/>
</clipPath>
</defs>
</svg>
