<svg width="346" height="84" viewBox="0 0 346 84" fill="none" xmlns="http://www.w3.org/2000/svg">
<path d="M0 0H83.2V83.2H0V0Z" fill="white"/>
<path fill-rule="evenodd" clip-rule="evenodd" d="M31.1004 29.4542L48.8993 29.4539C54.6785 29.4538 59.0011 34.1959 59.0011 39.975V43.3697H65.7356V39.975C65.7356 30.4765 58.3977 23.1387 48.8991 23.1389L31.1002 23.1392C21.5939 23.1394 14.2644 30.5098 14.2644 40.0001C14.2644 49.4905 21.5941 56.8609 31.1005 56.8609H64.4272L58.8578 50.5525H31.1005C25.3295 50.5525 20.9989 45.5871 20.9989 40.0001C20.9989 34.4131 25.3293 29.4543 31.1004 29.4542Z" fill="black"/>
<path d="M96.176 35.2H99.9C100.553 35.2 101.118 35.326 101.594 35.578C102.079 35.8207 102.448 36.166 102.7 36.614C102.961 37.062 103.092 37.5753 103.092 38.154C103.092 38.7327 102.961 39.246 102.7 39.694C102.448 40.142 102.079 40.492 101.594 40.744C101.118 40.9867 100.553 41.108 99.9 41.108H97.632V45H96.176V35.2ZM99.858 39.848C100.455 39.848 100.899 39.6893 101.188 39.372C101.477 39.0547 101.622 38.6487 101.622 38.154C101.622 37.6593 101.477 37.2533 101.188 36.936C100.899 36.6187 100.455 36.46 99.858 36.46H97.632V39.848H99.858Z" fill="black"/>
<path d="M107.148 35.2H108.534L112.048 45H110.55L109.71 42.508H105.972L105.118 45H103.634L107.148 35.2ZM109.276 41.234L107.848 37.006L106.406 41.234H109.276Z" fill="black"/>
<path d="M116.496 45.112C115.376 45.112 114.49 44.832 113.836 44.272C113.192 43.7027 112.87 42.9187 112.87 41.92H114.284C114.284 42.5267 114.462 43.0027 114.816 43.348C115.18 43.684 115.731 43.852 116.468 43.852C117.168 43.852 117.719 43.7073 118.12 43.418C118.522 43.1193 118.722 42.6853 118.722 42.116C118.722 41.584 118.55 41.1827 118.204 40.912C117.859 40.632 117.374 40.492 116.748 40.492H115.418V39.204H116.65C117.77 39.204 118.33 38.756 118.33 37.86C118.33 37.3747 118.176 37.0013 117.868 36.74C117.56 36.4787 117.122 36.348 116.552 36.348C115.918 36.348 115.432 36.5067 115.096 36.824C114.76 37.132 114.597 37.566 114.606 38.126H113.192C113.192 37.51 113.332 36.9733 113.612 36.516C113.892 36.0587 114.289 35.7087 114.802 35.466C115.325 35.214 115.922 35.088 116.594 35.088C117.229 35.088 117.784 35.2 118.26 35.424C118.746 35.6387 119.119 35.942 119.38 36.334C119.642 36.726 119.772 37.174 119.772 37.678C119.772 38.1727 119.651 38.5927 119.408 38.938C119.175 39.274 118.881 39.5213 118.526 39.68C119.04 39.8573 119.446 40.1513 119.744 40.562C120.043 40.9727 120.192 41.486 120.192 42.102C120.192 43.0353 119.856 43.7727 119.184 44.314C118.512 44.846 117.616 45.112 116.496 45.112Z" fill="black"/>
<path d="M122.071 35.2H125.795C126.448 35.2 127.013 35.326 127.489 35.578C127.974 35.8207 128.343 36.166 128.595 36.614C128.856 37.062 128.987 37.5753 128.987 38.154C128.987 38.7327 128.856 39.246 128.595 39.694C128.343 40.142 127.974 40.492 127.489 40.744C127.013 40.9867 126.448 41.108 125.795 41.108H123.527V45H122.071V35.2ZM125.753 39.848C126.35 39.848 126.793 39.6893 127.083 39.372C127.372 39.0547 127.517 38.6487 127.517 38.154C127.517 37.6593 127.372 37.2533 127.083 36.936C126.793 36.6187 126.35 36.46 125.753 36.46H123.527V39.848H125.753Z" fill="black"/>
<path d="M133.043 35.2H134.429L137.943 45H136.445L135.605 42.508H131.867L131.013 45H129.529L133.043 35.2ZM135.171 41.234L133.743 37.006L132.301 41.234H135.171Z" fill="black"/>
<path d="M139.182 35.2H145.692V36.488H140.624V38.896H142.822C143.896 38.896 144.75 39.1667 145.384 39.708C146.028 40.24 146.35 40.982 146.35 41.934C146.35 42.886 146.028 43.6373 145.384 44.188C144.74 44.7293 143.886 45 142.822 45H139.182V35.2ZM142.696 43.712C143.406 43.712 143.952 43.558 144.334 43.25C144.717 42.942 144.908 42.5033 144.908 41.934C144.908 41.3647 144.717 40.926 144.334 40.618C143.952 40.31 143.406 40.156 142.696 40.156H140.624V43.712H142.696Z" fill="black"/>
<path d="M151.893 45.112C151.053 45.112 150.311 44.902 149.667 44.482C149.023 44.062 148.524 43.474 148.169 42.718C147.814 41.962 147.637 41.0893 147.637 40.1C147.637 39.1107 147.814 38.238 148.169 37.482C148.524 36.726 149.023 36.138 149.667 35.718C150.311 35.298 151.053 35.088 151.893 35.088C152.714 35.088 153.442 35.298 154.077 35.718C154.712 36.138 155.202 36.726 155.547 37.482C155.902 38.238 156.079 39.1107 156.079 40.1C156.079 41.0893 155.902 41.962 155.547 42.718C155.202 43.474 154.712 44.062 154.077 44.482C153.442 44.902 152.714 45.112 151.893 45.112ZM151.893 43.824C152.425 43.824 152.896 43.67 153.307 43.362C153.718 43.0447 154.035 42.606 154.259 42.046C154.483 41.486 154.595 40.8373 154.595 40.1C154.595 39.3627 154.483 38.714 154.259 38.154C154.035 37.594 153.718 37.16 153.307 36.852C152.896 36.5347 152.425 36.376 151.893 36.376C151.352 36.376 150.871 36.5347 150.451 36.852C150.031 37.16 149.704 37.594 149.471 38.154C149.238 38.714 149.121 39.3627 149.121 40.1C149.121 40.8373 149.238 41.486 149.471 42.046C149.704 42.606 150.031 43.0447 150.451 43.362C150.871 43.67 151.352 43.824 151.893 43.824Z" fill="black"/>
<path d="M159.996 36.488H156.972V35.2H164.462V36.488H161.452V45H159.996V36.488Z" fill="black"/>
<path d="M168.275 35.2H169.661L173.175 45H171.677L170.837 42.508H167.099L166.245 45H164.761L168.275 35.2ZM170.403 41.234L168.975 37.006L167.533 41.234H170.403Z" fill="black"/>
<path d="M180.267 40.604H175.955V45H174.499V35.2H175.955V39.316H180.267V35.2H181.723V45H180.267V40.604Z" fill="black"/>
<path d="M187.618 45.112C186.778 45.112 186.036 44.902 185.392 44.482C184.748 44.062 184.248 43.474 183.894 42.718C183.539 41.962 183.362 41.0893 183.362 40.1C183.362 39.1107 183.539 38.238 183.894 37.482C184.248 36.726 184.748 36.138 185.392 35.718C186.036 35.298 186.778 35.088 187.618 35.088C188.439 35.088 189.167 35.298 189.802 35.718C190.436 36.138 190.926 36.726 191.272 37.482C191.626 38.238 191.804 39.1107 191.804 40.1C191.804 41.0893 191.626 41.962 191.272 42.718C190.926 43.474 190.436 44.062 189.802 44.482C189.167 44.902 188.439 45.112 187.618 45.112ZM187.618 43.824C188.15 43.824 188.621 43.67 189.032 43.362C189.442 43.0447 189.76 42.606 189.984 42.046C190.208 41.486 190.32 40.8373 190.32 40.1C190.32 39.3627 190.208 38.714 189.984 38.154C189.76 37.594 189.442 37.16 189.032 36.852C188.621 36.5347 188.15 36.376 187.618 36.376C187.076 36.376 186.596 36.5347 186.176 36.852C185.756 37.16 185.429 37.594 185.196 38.154C184.962 38.714 184.846 39.3627 184.846 40.1C184.846 40.8373 184.962 41.486 185.196 42.046C185.429 42.606 185.756 43.0447 186.176 43.362C186.596 43.67 187.076 43.824 187.618 43.824Z" fill="black"/>
<path d="M200.122 35.2H203.678C204.602 35.2 205.334 35.4147 205.876 35.844C206.426 36.2733 206.702 36.8567 206.702 37.594C206.702 38.0887 206.585 38.5087 206.352 38.854C206.128 39.1993 205.824 39.4607 205.442 39.638C205.974 39.8153 206.394 40.114 206.702 40.534C207.01 40.9447 207.164 41.4767 207.164 42.13C207.164 43.0167 206.87 43.7167 206.282 44.23C205.694 44.7433 204.891 45 203.874 45H200.122V35.2ZM203.678 43.712C204.35 43.712 204.858 43.572 205.204 43.292C205.558 43.012 205.736 42.606 205.736 42.074C205.736 41.542 205.558 41.136 205.204 40.856C204.858 40.576 204.35 40.436 203.678 40.436H201.564V43.712H203.678ZM203.608 39.162C204.158 39.162 204.578 39.05 204.868 38.826C205.157 38.5927 205.302 38.2473 205.302 37.79C205.302 37.342 205.157 37.0013 204.868 36.768C204.578 36.5347 204.158 36.418 203.608 36.418H201.564V39.162H203.608Z" fill="black"/>
<path d="M209.108 35.2H215.422V36.488H210.564V39.302H214.512V40.59H210.564V43.712H215.576V45H209.108V35.2Z" fill="black"/>
<path d="M217.304 35.2H223.814V36.488H218.746V38.896H220.944C222.017 38.896 222.871 39.1667 223.506 39.708C224.15 40.24 224.472 40.982 224.472 41.934C224.472 42.886 224.15 43.6373 223.506 44.188C222.862 44.7293 222.008 45 220.944 45H217.304V35.2ZM220.818 43.712C221.527 43.712 222.073 43.558 222.456 43.25C222.838 42.942 223.03 42.5033 223.03 41.934C223.03 41.3647 222.838 40.926 222.456 40.618C222.073 40.31 221.527 40.156 220.818 40.156H218.746V43.712H220.818Z" fill="black"/>
<path d="M226.752 40.604H231.134V41.78H226.752V40.604Z" fill="black"/>
<path d="M237.672 45.112C236.814 45.112 236.058 44.916 235.404 44.524C234.76 44.132 234.256 43.5627 233.892 42.816C233.528 42.06 233.346 41.1547 233.346 40.1C233.346 39.0453 233.528 38.1447 233.892 37.398C234.256 36.642 234.765 36.068 235.418 35.676C236.072 35.284 236.823 35.088 237.672 35.088C238.718 35.088 239.576 35.382 240.248 35.97C240.93 36.558 241.34 37.3513 241.48 38.35H239.954C239.87 37.7527 239.623 37.2767 239.212 36.922C238.811 36.558 238.298 36.376 237.672 36.376C236.795 36.376 236.1 36.7073 235.586 37.37C235.082 38.0233 234.83 38.9333 234.83 40.1C234.83 41.2667 235.082 42.1813 235.586 42.844C236.1 43.4973 236.795 43.824 237.672 43.824C238.298 43.824 238.82 43.6467 239.24 43.292C239.66 42.928 239.908 42.4473 239.982 41.85H241.452C241.35 42.8487 240.953 43.642 240.262 44.23C239.581 44.818 238.718 45.112 237.672 45.112Z" fill="black"/>
<path d="M245.445 36.488H242.421V35.2H249.911V36.488H246.901V45H245.445V36.488Z" fill="black"/>
<path d="M252.047 43.712H252.775C253.027 43.712 253.227 43.6607 253.377 43.558C253.535 43.4553 253.666 43.2873 253.769 43.054L254.133 42.256L250.661 35.2H252.257L254.861 40.8L257.325 35.2H258.879L255.015 43.572C254.781 44.0853 254.52 44.454 254.231 44.678C253.951 44.8927 253.545 45 253.013 45H252.047V43.712Z" fill="black"/>
<path d="M259.166 43.726H259.474C259.791 43.726 260.038 43.516 260.216 43.096C260.402 42.676 260.5 41.9293 260.51 40.856L260.552 35.2H266.838V43.726H267.86V47.072H266.474V45H260.538V47.072H259.166V43.726ZM265.396 43.726V36.474H261.91L261.868 40.828C261.858 41.5933 261.802 42.2047 261.7 42.662C261.606 43.11 261.452 43.4647 261.238 43.726H265.396Z" fill="black"/>
<path d="M269.245 35.2H270.659V42.718L274.887 35.2H276.483V45H275.069V37.482L270.841 45H269.245V35.2Z" fill="black"/>
<path d="M278.808 35.2H285.122V36.488H280.264V39.302H284.212V40.59H280.264V43.712H285.276V45H278.808V35.2Z" fill="black"/>
<path d="M287.087 35.2H288.501V42.718L292.729 35.2H294.325V45H292.911V37.482L288.683 45H287.087V35.2ZM290.699 34.612C289.971 34.612 289.387 34.43 288.949 34.066C288.51 33.6927 288.291 33.2027 288.291 32.596H289.509C289.509 32.932 289.611 33.198 289.817 33.394C290.022 33.59 290.316 33.688 290.699 33.688C291.081 33.688 291.375 33.59 291.581 33.394C291.795 33.198 291.903 32.932 291.903 32.596H293.107C293.107 33.2027 292.887 33.6927 292.449 34.066C292.01 34.43 291.427 34.612 290.699 34.612Z" fill="black"/>
<path d="M308.097 47.856C306.8 47.856 306.151 47.2447 306.151 46.022V45.07C305.433 44.9673 304.803 44.6967 304.261 44.258C303.72 43.81 303.3 43.2313 303.001 42.522C302.702 41.8033 302.553 40.996 302.553 40.1C302.553 39.1107 302.731 38.238 303.085 37.482C303.44 36.726 303.939 36.138 304.583 35.718C305.227 35.298 305.969 35.088 306.809 35.088C307.631 35.088 308.358 35.298 308.993 35.718C309.628 36.138 310.118 36.726 310.463 37.482C310.818 38.238 310.995 39.1107 310.995 40.1C310.995 40.996 310.85 41.7987 310.561 42.508C310.272 43.2173 309.861 43.7913 309.329 44.23C308.806 44.6687 308.195 44.944 307.495 45.056V45.98C307.495 46.232 307.556 46.4187 307.677 46.54C307.808 46.6613 308.004 46.722 308.265 46.722H309.763V47.856H308.097ZM306.809 43.824C307.341 43.824 307.813 43.67 308.223 43.362C308.634 43.0447 308.951 42.606 309.175 42.046C309.399 41.486 309.511 40.8373 309.511 40.1C309.511 39.3627 309.399 38.714 309.175 38.154C308.951 37.594 308.634 37.16 308.223 36.852C307.813 36.5347 307.341 36.376 306.809 36.376C306.268 36.376 305.787 36.5347 305.367 36.852C304.947 37.16 304.621 37.594 304.387 38.154C304.154 38.714 304.037 39.3627 304.037 40.1C304.037 40.8373 304.154 41.486 304.387 42.046C304.621 42.606 304.947 43.0447 305.367 43.362C305.787 43.67 306.268 43.824 306.809 43.824Z" fill="black"/>
<path d="M312.697 43.712H314.363V36.488H312.697V35.2H317.485V36.488H315.833V43.712H317.485V45H312.697V43.712Z" fill="black"/>
<path d="M323.434 45.112C322.594 45.112 321.852 44.902 321.208 44.482C320.564 44.062 320.065 43.474 319.71 42.718C319.356 41.962 319.178 41.0893 319.178 40.1C319.178 39.1107 319.356 38.238 319.71 37.482C320.065 36.726 320.564 36.138 321.208 35.718C321.852 35.298 322.594 35.088 323.434 35.088C324.256 35.088 324.983 35.298 325.618 35.718C326.253 36.138 326.743 36.726 327.088 37.482C327.443 38.238 327.62 39.1107 327.62 40.1C327.62 41.0893 327.443 41.962 327.088 42.718C326.743 43.474 326.253 44.062 325.618 44.482C324.983 44.902 324.256 45.112 323.434 45.112ZM323.434 43.824C323.966 43.824 324.438 43.67 324.848 43.362C325.259 43.0447 325.576 42.606 325.8 42.046C326.024 41.486 326.136 40.8373 326.136 40.1C326.136 39.3627 326.024 38.714 325.8 38.154C325.576 37.594 325.259 37.16 324.848 36.852C324.438 36.5347 323.966 36.376 323.434 36.376C322.893 36.376 322.412 36.5347 321.992 36.852C321.572 37.16 321.246 37.594 321.012 38.154C320.779 38.714 320.662 39.3627 320.662 40.1C320.662 40.8373 320.779 41.486 321.012 42.046C321.246 42.606 321.572 43.0447 321.992 43.362C322.412 43.67 322.893 43.824 323.434 43.824Z" fill="black"/>
<path d="M346 23V29L340 23H346Z" fill="#0D0D0D"/>
</svg>
