<svg width="147" height="53" fill="none" xmlns="http://www.w3.org/2000/svg"><g clip-path="url(#a)"><mask id="b" style="mask-type:luminance" maskUnits="userSpaceOnUse" x="0" y="0" width="147" height="53"><path d="M146.267.016H.667v52.33h145.6V.015Z" fill="#fff"/></mask><g mask="url(#b)" fill-rule="evenodd" clip-rule="evenodd"><path d="m10.579.016-2.48 6.846h34.36L44.94.016H10.58Zm-3.72 10.267-2.48 6.844h34.36l2.48-6.844H6.859ZM3.145 20.55l-2.48 6.845h34.36l2.479-6.845H3.146Z" fill="#0AF"/><path d="M73.714 30.003v.145c1.57.58 3.07 1.596 3.856 2.249 2.428 2.032 3.5 4.716 3.5 8.198 0 5.733-3 9.868-7.928 11.175-1.5.434-3.07.58-6 .58H52.218V10.415H65.43c2.714 0 4.57.144 6.212.579 4.786 1.306 7.928 4.644 7.928 9.94 0 2.83-1 5.225-2.642 6.82-.714.725-1.714 1.597-3.214 2.25Zm-13.212 4.425v11.029h5.714c1.712 0 3.284-.145 4.428-1.233 1.142-1.09 1.642-2.467 1.642-4.281 0-1.378-.358-2.684-1.072-3.627C70 34.792 68.5 34.428 65.93 34.428h-5.428Zm-.072-7.255h4.642c1.428 0 2.142 0 2.856-.217 1.93-.581 3.144-2.321 3.144-4.716 0-2.829-1.286-4.064-3.144-4.643-.786-.217-1.57-.29-3.142-.29H60.43v9.866ZM93.496 52.35V17.451H81.57v-7.036h33.138l-2.356 7.036h-10.571v34.9h-8.285Zm23.782 0V10.415h26.854l-2.356 7.036h-16.284v9.287h6.642c5.356 0 8.142 1.306 10.07 2.975 1.5 1.306 4.071 4.208 4.071 9.94 0 5.66-2.643 8.778-4.857 10.375-2.57 1.813-5.284 2.322-10.784 2.322h-13.356Zm8.214-7.038h6.214c2.356 0 3.784-.58 4.784-1.887.5-.652 1.214-1.814 1.214-3.99s-.714-3.7-2.142-4.79c-.856-.651-2-1.013-3.928-1.013h-6.142v11.68Z" fill="#0A2896"/></g></g><defs><clipPath id="a"><path fill="#fff" transform="translate(.667)" d="M0 0h146v53H0z"/></clipPath></defs></svg>